G04 #@! TF.GenerationSoftware,KiCad,Pcbnew,(5.1.7)-1*
G04 #@! TF.CreationDate,2021-06-27T15:00:08+02:00*
G04 #@! TF.ProjectId,TwomesGateway,54776f6d-6573-4476-9174-657761792e6b,rev?*
G04 #@! TF.SameCoordinates,Original*
G04 #@! TF.FileFunction,Paste,Top*
G04 #@! TF.FilePolarity,Positive*
%FSLAX46Y46*%
G04 Gerber Fmt 4.6, Leading zero omitted, Abs format (unit mm)*
G04 Created by KiCad (PCBNEW (5.1.7)-1) date 2021-06-27 15:00:08*
%MOMM*%
%LPD*%
G01*
G04 APERTURE LIST*
%ADD10R,1.800000X2.500000*%
%ADD11R,0.900000X1.625000*%
%ADD12R,1.850000X0.400000*%
%ADD13R,1.300000X1.715000*%
%ADD14R,0.900000X0.800000*%
%ADD15R,0.800000X0.900000*%
%ADD16R,1.200000X0.900000*%
%ADD17R,2.000000X0.900000*%
%ADD18R,0.900000X2.000000*%
%ADD19R,5.000000X5.000000*%
%ADD20R,1.060000X0.650000*%
%ADD21R,1.300000X1.550000*%
G04 APERTURE END LIST*
G36*
G01*
X94750000Y-141725000D02*
X95250000Y-141725000D01*
G75*
G02*
X95475000Y-141950000I0J-225000D01*
G01*
X95475000Y-142400000D01*
G75*
G02*
X95250000Y-142625000I-225000J0D01*
G01*
X94750000Y-142625000D01*
G75*
G02*
X94525000Y-142400000I0J225000D01*
G01*
X94525000Y-141950000D01*
G75*
G02*
X94750000Y-141725000I225000J0D01*
G01*
G37*
G36*
G01*
X94750000Y-140175000D02*
X95250000Y-140175000D01*
G75*
G02*
X95475000Y-140400000I0J-225000D01*
G01*
X95475000Y-140850000D01*
G75*
G02*
X95250000Y-141075000I-225000J0D01*
G01*
X94750000Y-141075000D01*
G75*
G02*
X94525000Y-140850000I0J225000D01*
G01*
X94525000Y-140400000D01*
G75*
G02*
X94750000Y-140175000I225000J0D01*
G01*
G37*
G36*
G01*
X92743750Y-140175000D02*
X93256250Y-140175000D01*
G75*
G02*
X93475000Y-140393750I0J-218750D01*
G01*
X93475000Y-140831250D01*
G75*
G02*
X93256250Y-141050000I-218750J0D01*
G01*
X92743750Y-141050000D01*
G75*
G02*
X92525000Y-140831250I0J218750D01*
G01*
X92525000Y-140393750D01*
G75*
G02*
X92743750Y-140175000I218750J0D01*
G01*
G37*
G36*
G01*
X92743750Y-141750000D02*
X93256250Y-141750000D01*
G75*
G02*
X93475000Y-141968750I0J-218750D01*
G01*
X93475000Y-142406250D01*
G75*
G02*
X93256250Y-142625000I-218750J0D01*
G01*
X92743750Y-142625000D01*
G75*
G02*
X92525000Y-142406250I0J218750D01*
G01*
X92525000Y-141968750D01*
G75*
G02*
X92743750Y-141750000I218750J0D01*
G01*
G37*
G36*
G01*
X84500000Y-94500000D02*
X84500000Y-92500000D01*
G75*
G02*
X84750000Y-92250000I250000J0D01*
G01*
X88650000Y-92250000D01*
G75*
G02*
X88900000Y-92500000I0J-250000D01*
G01*
X88900000Y-94500000D01*
G75*
G02*
X88650000Y-94750000I-250000J0D01*
G01*
X84750000Y-94750000D01*
G75*
G02*
X84500000Y-94500000I0J250000D01*
G01*
G37*
G36*
G01*
X77100000Y-94500000D02*
X77100000Y-92500000D01*
G75*
G02*
X77350000Y-92250000I250000J0D01*
G01*
X81250000Y-92250000D01*
G75*
G02*
X81500000Y-92500000I0J-250000D01*
G01*
X81500000Y-94500000D01*
G75*
G02*
X81250000Y-94750000I-250000J0D01*
G01*
X77350000Y-94750000D01*
G75*
G02*
X77100000Y-94500000I0J250000D01*
G01*
G37*
D10*
X69000000Y-105000000D03*
X69000000Y-101000000D03*
D11*
X70300000Y-120200000D03*
D12*
X70770000Y-118310000D03*
X70770000Y-117660000D03*
X70770000Y-117010000D03*
D11*
X70300000Y-113800000D03*
D12*
X70770000Y-116360000D03*
X70770000Y-115710000D03*
D13*
X67950000Y-120250000D03*
X67950000Y-113750000D03*
G36*
G01*
X73893750Y-81700000D02*
X74406250Y-81700000D01*
G75*
G02*
X74625000Y-81918750I0J-218750D01*
G01*
X74625000Y-82356250D01*
G75*
G02*
X74406250Y-82575000I-218750J0D01*
G01*
X73893750Y-82575000D01*
G75*
G02*
X73675000Y-82356250I0J218750D01*
G01*
X73675000Y-81918750D01*
G75*
G02*
X73893750Y-81700000I218750J0D01*
G01*
G37*
G36*
G01*
X73893750Y-80125000D02*
X74406250Y-80125000D01*
G75*
G02*
X74625000Y-80343750I0J-218750D01*
G01*
X74625000Y-80781250D01*
G75*
G02*
X74406250Y-81000000I-218750J0D01*
G01*
X73893750Y-81000000D01*
G75*
G02*
X73675000Y-80781250I0J218750D01*
G01*
X73675000Y-80343750D01*
G75*
G02*
X73893750Y-80125000I218750J0D01*
G01*
G37*
G36*
G01*
X74406250Y-85000000D02*
X73893750Y-85000000D01*
G75*
G02*
X73675000Y-84781250I0J218750D01*
G01*
X73675000Y-84343750D01*
G75*
G02*
X73893750Y-84125000I218750J0D01*
G01*
X74406250Y-84125000D01*
G75*
G02*
X74625000Y-84343750I0J-218750D01*
G01*
X74625000Y-84781250D01*
G75*
G02*
X74406250Y-85000000I-218750J0D01*
G01*
G37*
G36*
G01*
X74406250Y-86575000D02*
X73893750Y-86575000D01*
G75*
G02*
X73675000Y-86356250I0J218750D01*
G01*
X73675000Y-85918750D01*
G75*
G02*
X73893750Y-85700000I218750J0D01*
G01*
X74406250Y-85700000D01*
G75*
G02*
X74625000Y-85918750I0J-218750D01*
G01*
X74625000Y-86356250D01*
G75*
G02*
X74406250Y-86575000I-218750J0D01*
G01*
G37*
D14*
X95900000Y-87500000D03*
X97900000Y-86550000D03*
X97900000Y-88450000D03*
X98000000Y-83300000D03*
X96000000Y-84250000D03*
X96000000Y-82350000D03*
G36*
G01*
X76950000Y-111543750D02*
X76950000Y-112056250D01*
G75*
G02*
X76731250Y-112275000I-218750J0D01*
G01*
X76293750Y-112275000D01*
G75*
G02*
X76075000Y-112056250I0J218750D01*
G01*
X76075000Y-111543750D01*
G75*
G02*
X76293750Y-111325000I218750J0D01*
G01*
X76731250Y-111325000D01*
G75*
G02*
X76950000Y-111543750I0J-218750D01*
G01*
G37*
G36*
G01*
X78525000Y-111543750D02*
X78525000Y-112056250D01*
G75*
G02*
X78306250Y-112275000I-218750J0D01*
G01*
X77868750Y-112275000D01*
G75*
G02*
X77650000Y-112056250I0J218750D01*
G01*
X77650000Y-111543750D01*
G75*
G02*
X77868750Y-111325000I218750J0D01*
G01*
X78306250Y-111325000D01*
G75*
G02*
X78525000Y-111543750I0J-218750D01*
G01*
G37*
D15*
X69900000Y-91100000D03*
X68950000Y-89100000D03*
X70850000Y-89100000D03*
X70150000Y-82600000D03*
X69200000Y-80600000D03*
X71100000Y-80600000D03*
D16*
X71000000Y-136650000D03*
X71000000Y-133350000D03*
D17*
X73500000Y-142255000D03*
X73500000Y-140985000D03*
X73500000Y-139715000D03*
X73500000Y-138445000D03*
X73500000Y-137175000D03*
X73500000Y-135905000D03*
X73500000Y-134635000D03*
X73500000Y-133365000D03*
X73500000Y-132095000D03*
X73500000Y-130825000D03*
X73500000Y-129555000D03*
X73500000Y-128285000D03*
X73500000Y-127015000D03*
X73500000Y-125745000D03*
D18*
X76285000Y-124745000D03*
X77555000Y-124745000D03*
X78825000Y-124745000D03*
X80095000Y-124745000D03*
X81365000Y-124745000D03*
X82635000Y-124745000D03*
X83905000Y-124745000D03*
X85175000Y-124745000D03*
X86445000Y-124745000D03*
X87715000Y-124745000D03*
D17*
X90500000Y-125745000D03*
X90500000Y-127015000D03*
X90500000Y-128285000D03*
X90500000Y-129555000D03*
X90500000Y-130825000D03*
X90500000Y-132095000D03*
X90500000Y-133365000D03*
X90500000Y-134635000D03*
X90500000Y-135905000D03*
X90500000Y-137175000D03*
X90500000Y-138445000D03*
X90500000Y-139715000D03*
X90500000Y-140985000D03*
X90500000Y-142255000D03*
D19*
X83000000Y-134755000D03*
D20*
X70300000Y-98150000D03*
X70300000Y-96250000D03*
X72500000Y-96250000D03*
X72500000Y-97200000D03*
X72500000Y-98150000D03*
D21*
X93450000Y-101475000D03*
X97950000Y-101475000D03*
X97950000Y-93525000D03*
X93450000Y-93525000D03*
X93450000Y-114775000D03*
X97950000Y-114775000D03*
X97950000Y-106825000D03*
X93450000Y-106825000D03*
X80650000Y-111775000D03*
X85150000Y-111775000D03*
X85150000Y-103825000D03*
X80650000Y-103825000D03*
G36*
G01*
X87350000Y-117256250D02*
X87350000Y-116743750D01*
G75*
G02*
X87568750Y-116525000I218750J0D01*
G01*
X88006250Y-116525000D01*
G75*
G02*
X88225000Y-116743750I0J-218750D01*
G01*
X88225000Y-117256250D01*
G75*
G02*
X88006250Y-117475000I-218750J0D01*
G01*
X87568750Y-117475000D01*
G75*
G02*
X87350000Y-117256250I0J218750D01*
G01*
G37*
G36*
G01*
X85775000Y-117256250D02*
X85775000Y-116743750D01*
G75*
G02*
X85993750Y-116525000I218750J0D01*
G01*
X86431250Y-116525000D01*
G75*
G02*
X86650000Y-116743750I0J-218750D01*
G01*
X86650000Y-117256250D01*
G75*
G02*
X86431250Y-117475000I-218750J0D01*
G01*
X85993750Y-117475000D01*
G75*
G02*
X85775000Y-117256250I0J218750D01*
G01*
G37*
G36*
G01*
X87137500Y-121156250D02*
X87137500Y-120643750D01*
G75*
G02*
X87356250Y-120425000I218750J0D01*
G01*
X87793750Y-120425000D01*
G75*
G02*
X88012500Y-120643750I0J-218750D01*
G01*
X88012500Y-121156250D01*
G75*
G02*
X87793750Y-121375000I-218750J0D01*
G01*
X87356250Y-121375000D01*
G75*
G02*
X87137500Y-121156250I0J218750D01*
G01*
G37*
G36*
G01*
X85562500Y-121156250D02*
X85562500Y-120643750D01*
G75*
G02*
X85781250Y-120425000I218750J0D01*
G01*
X86218750Y-120425000D01*
G75*
G02*
X86437500Y-120643750I0J-218750D01*
G01*
X86437500Y-121156250D01*
G75*
G02*
X86218750Y-121375000I-218750J0D01*
G01*
X85781250Y-121375000D01*
G75*
G02*
X85562500Y-121156250I0J218750D01*
G01*
G37*
G36*
G01*
X76750000Y-104643750D02*
X76750000Y-105156250D01*
G75*
G02*
X76531250Y-105375000I-218750J0D01*
G01*
X76093750Y-105375000D01*
G75*
G02*
X75875000Y-105156250I0J218750D01*
G01*
X75875000Y-104643750D01*
G75*
G02*
X76093750Y-104425000I218750J0D01*
G01*
X76531250Y-104425000D01*
G75*
G02*
X76750000Y-104643750I0J-218750D01*
G01*
G37*
G36*
G01*
X78325000Y-104643750D02*
X78325000Y-105156250D01*
G75*
G02*
X78106250Y-105375000I-218750J0D01*
G01*
X77668750Y-105375000D01*
G75*
G02*
X77450000Y-105156250I0J218750D01*
G01*
X77450000Y-104643750D01*
G75*
G02*
X77668750Y-104425000I218750J0D01*
G01*
X78106250Y-104425000D01*
G75*
G02*
X78325000Y-104643750I0J-218750D01*
G01*
G37*
G36*
G01*
X81850000Y-100756250D02*
X81850000Y-100243750D01*
G75*
G02*
X82068750Y-100025000I218750J0D01*
G01*
X82506250Y-100025000D01*
G75*
G02*
X82725000Y-100243750I0J-218750D01*
G01*
X82725000Y-100756250D01*
G75*
G02*
X82506250Y-100975000I-218750J0D01*
G01*
X82068750Y-100975000D01*
G75*
G02*
X81850000Y-100756250I0J218750D01*
G01*
G37*
G36*
G01*
X80275000Y-100756250D02*
X80275000Y-100243750D01*
G75*
G02*
X80493750Y-100025000I218750J0D01*
G01*
X80931250Y-100025000D01*
G75*
G02*
X81150000Y-100243750I0J-218750D01*
G01*
X81150000Y-100756250D01*
G75*
G02*
X80931250Y-100975000I-218750J0D01*
G01*
X80493750Y-100975000D01*
G75*
G02*
X80275000Y-100756250I0J218750D01*
G01*
G37*
G36*
G01*
X93350000Y-86556250D02*
X93350000Y-86043750D01*
G75*
G02*
X93568750Y-85825000I218750J0D01*
G01*
X94006250Y-85825000D01*
G75*
G02*
X94225000Y-86043750I0J-218750D01*
G01*
X94225000Y-86556250D01*
G75*
G02*
X94006250Y-86775000I-218750J0D01*
G01*
X93568750Y-86775000D01*
G75*
G02*
X93350000Y-86556250I0J218750D01*
G01*
G37*
G36*
G01*
X91775000Y-86556250D02*
X91775000Y-86043750D01*
G75*
G02*
X91993750Y-85825000I218750J0D01*
G01*
X92431250Y-85825000D01*
G75*
G02*
X92650000Y-86043750I0J-218750D01*
G01*
X92650000Y-86556250D01*
G75*
G02*
X92431250Y-86775000I-218750J0D01*
G01*
X91993750Y-86775000D01*
G75*
G02*
X91775000Y-86556250I0J218750D01*
G01*
G37*
G36*
G01*
X72656250Y-85000000D02*
X72143750Y-85000000D01*
G75*
G02*
X71925000Y-84781250I0J218750D01*
G01*
X71925000Y-84343750D01*
G75*
G02*
X72143750Y-84125000I218750J0D01*
G01*
X72656250Y-84125000D01*
G75*
G02*
X72875000Y-84343750I0J-218750D01*
G01*
X72875000Y-84781250D01*
G75*
G02*
X72656250Y-85000000I-218750J0D01*
G01*
G37*
G36*
G01*
X72656250Y-86575000D02*
X72143750Y-86575000D01*
G75*
G02*
X71925000Y-86356250I0J218750D01*
G01*
X71925000Y-85918750D01*
G75*
G02*
X72143750Y-85700000I218750J0D01*
G01*
X72656250Y-85700000D01*
G75*
G02*
X72875000Y-85918750I0J-218750D01*
G01*
X72875000Y-86356250D01*
G75*
G02*
X72656250Y-86575000I-218750J0D01*
G01*
G37*
G36*
G01*
X73156250Y-90500000D02*
X72643750Y-90500000D01*
G75*
G02*
X72425000Y-90281250I0J218750D01*
G01*
X72425000Y-89843750D01*
G75*
G02*
X72643750Y-89625000I218750J0D01*
G01*
X73156250Y-89625000D01*
G75*
G02*
X73375000Y-89843750I0J-218750D01*
G01*
X73375000Y-90281250D01*
G75*
G02*
X73156250Y-90500000I-218750J0D01*
G01*
G37*
G36*
G01*
X73156250Y-92075000D02*
X72643750Y-92075000D01*
G75*
G02*
X72425000Y-91856250I0J218750D01*
G01*
X72425000Y-91418750D01*
G75*
G02*
X72643750Y-91200000I218750J0D01*
G01*
X73156250Y-91200000D01*
G75*
G02*
X73375000Y-91418750I0J-218750D01*
G01*
X73375000Y-91856250D01*
G75*
G02*
X73156250Y-92075000I-218750J0D01*
G01*
G37*
G36*
G01*
X83175000Y-117625000D02*
X83175000Y-116375000D01*
G75*
G02*
X83425000Y-116125000I250000J0D01*
G01*
X84175000Y-116125000D01*
G75*
G02*
X84425000Y-116375000I0J-250000D01*
G01*
X84425000Y-117625000D01*
G75*
G02*
X84175000Y-117875000I-250000J0D01*
G01*
X83425000Y-117875000D01*
G75*
G02*
X83175000Y-117625000I0J250000D01*
G01*
G37*
G36*
G01*
X80375000Y-117625000D02*
X80375000Y-116375000D01*
G75*
G02*
X80625000Y-116125000I250000J0D01*
G01*
X81375000Y-116125000D01*
G75*
G02*
X81625000Y-116375000I0J-250000D01*
G01*
X81625000Y-117625000D01*
G75*
G02*
X81375000Y-117875000I-250000J0D01*
G01*
X80625000Y-117875000D01*
G75*
G02*
X80375000Y-117625000I0J250000D01*
G01*
G37*
G36*
G01*
X83175000Y-121625000D02*
X83175000Y-120375000D01*
G75*
G02*
X83425000Y-120125000I250000J0D01*
G01*
X84175000Y-120125000D01*
G75*
G02*
X84425000Y-120375000I0J-250000D01*
G01*
X84425000Y-121625000D01*
G75*
G02*
X84175000Y-121875000I-250000J0D01*
G01*
X83425000Y-121875000D01*
G75*
G02*
X83175000Y-121625000I0J250000D01*
G01*
G37*
G36*
G01*
X80375000Y-121625000D02*
X80375000Y-120375000D01*
G75*
G02*
X80625000Y-120125000I250000J0D01*
G01*
X81375000Y-120125000D01*
G75*
G02*
X81625000Y-120375000I0J-250000D01*
G01*
X81625000Y-121625000D01*
G75*
G02*
X81375000Y-121875000I-250000J0D01*
G01*
X80625000Y-121875000D01*
G75*
G02*
X80375000Y-121625000I0J250000D01*
G01*
G37*
G36*
G01*
X73250000Y-103356250D02*
X73250000Y-102843750D01*
G75*
G02*
X73468750Y-102625000I218750J0D01*
G01*
X73906250Y-102625000D01*
G75*
G02*
X74125000Y-102843750I0J-218750D01*
G01*
X74125000Y-103356250D01*
G75*
G02*
X73906250Y-103575000I-218750J0D01*
G01*
X73468750Y-103575000D01*
G75*
G02*
X73250000Y-103356250I0J218750D01*
G01*
G37*
G36*
G01*
X71675000Y-103356250D02*
X71675000Y-102843750D01*
G75*
G02*
X71893750Y-102625000I218750J0D01*
G01*
X72331250Y-102625000D01*
G75*
G02*
X72550000Y-102843750I0J-218750D01*
G01*
X72550000Y-103356250D01*
G75*
G02*
X72331250Y-103575000I-218750J0D01*
G01*
X71893750Y-103575000D01*
G75*
G02*
X71675000Y-103356250I0J218750D01*
G01*
G37*
G36*
G01*
X73250000Y-101356250D02*
X73250000Y-100843750D01*
G75*
G02*
X73468750Y-100625000I218750J0D01*
G01*
X73906250Y-100625000D01*
G75*
G02*
X74125000Y-100843750I0J-218750D01*
G01*
X74125000Y-101356250D01*
G75*
G02*
X73906250Y-101575000I-218750J0D01*
G01*
X73468750Y-101575000D01*
G75*
G02*
X73250000Y-101356250I0J218750D01*
G01*
G37*
G36*
G01*
X71675000Y-101356250D02*
X71675000Y-100843750D01*
G75*
G02*
X71893750Y-100625000I218750J0D01*
G01*
X72331250Y-100625000D01*
G75*
G02*
X72550000Y-100843750I0J-218750D01*
G01*
X72550000Y-101356250D01*
G75*
G02*
X72331250Y-101575000I-218750J0D01*
G01*
X71893750Y-101575000D01*
G75*
G02*
X71675000Y-101356250I0J218750D01*
G01*
G37*
G36*
G01*
X71900000Y-94456250D02*
X71900000Y-93943750D01*
G75*
G02*
X72118750Y-93725000I218750J0D01*
G01*
X72556250Y-93725000D01*
G75*
G02*
X72775000Y-93943750I0J-218750D01*
G01*
X72775000Y-94456250D01*
G75*
G02*
X72556250Y-94675000I-218750J0D01*
G01*
X72118750Y-94675000D01*
G75*
G02*
X71900000Y-94456250I0J218750D01*
G01*
G37*
G36*
G01*
X70325000Y-94456250D02*
X70325000Y-93943750D01*
G75*
G02*
X70543750Y-93725000I218750J0D01*
G01*
X70981250Y-93725000D01*
G75*
G02*
X71200000Y-93943750I0J-218750D01*
G01*
X71200000Y-94456250D01*
G75*
G02*
X70981250Y-94675000I-218750J0D01*
G01*
X70543750Y-94675000D01*
G75*
G02*
X70325000Y-94456250I0J218750D01*
G01*
G37*
M02*
