G04 #@! TF.GenerationSoftware,KiCad,Pcbnew,(5.1.7)-1*
G04 #@! TF.CreationDate,2021-06-27T15:00:08+02:00*
G04 #@! TF.ProjectId,TwomesGateway,54776f6d-6573-4476-9174-657761792e6b,rev?*
G04 #@! TF.SameCoordinates,Original*
G04 #@! TF.FileFunction,Copper,L2,Bot*
G04 #@! TF.FilePolarity,Positive*
%FSLAX46Y46*%
G04 Gerber Fmt 4.6, Leading zero omitted, Abs format (unit mm)*
G04 Created by KiCad (PCBNEW (5.1.7)-1) date 2021-06-27 15:00:08*
%MOMM*%
%LPD*%
G01*
G04 APERTURE LIST*
G04 #@! TA.AperFunction,SMDPad,CuDef*
%ADD10R,0.900000X3.000000*%
G04 #@! TD*
G04 #@! TA.AperFunction,ComponentPad*
%ADD11R,1.520000X1.520000*%
G04 #@! TD*
G04 #@! TA.AperFunction,ComponentPad*
%ADD12C,1.520000*%
G04 #@! TD*
G04 #@! TA.AperFunction,ComponentPad*
%ADD13O,1.700000X1.700000*%
G04 #@! TD*
G04 #@! TA.AperFunction,ComponentPad*
%ADD14R,1.700000X1.700000*%
G04 #@! TD*
G04 #@! TA.AperFunction,ViaPad*
%ADD15C,0.800000*%
G04 #@! TD*
G04 #@! TA.AperFunction,Conductor*
%ADD16C,0.300000*%
G04 #@! TD*
G04 #@! TA.AperFunction,Conductor*
%ADD17C,0.500000*%
G04 #@! TD*
G04 #@! TA.AperFunction,Conductor*
%ADD18C,0.400000*%
G04 #@! TD*
G04 #@! TA.AperFunction,Conductor*
%ADD19C,0.254000*%
G04 #@! TD*
G04 #@! TA.AperFunction,Conductor*
%ADD20C,0.100000*%
G04 #@! TD*
G04 APERTURE END LIST*
D10*
X81025000Y-68200000D03*
X82295000Y-68200000D03*
X83565000Y-68200000D03*
X84835000Y-68200000D03*
X86105000Y-68200000D03*
X87375000Y-68200000D03*
D11*
X87500000Y-82500000D03*
D12*
X86230000Y-79960000D03*
X84960000Y-82500000D03*
X83690000Y-79960000D03*
X82420000Y-82500000D03*
X81150000Y-79960000D03*
D13*
X67800000Y-129050000D03*
X67800000Y-131590000D03*
X67800000Y-134130000D03*
X67800000Y-136670000D03*
X67800000Y-139210000D03*
D14*
X67800000Y-141750000D03*
D15*
X69250000Y-97250000D03*
X96000000Y-96500000D03*
X86000000Y-86450000D03*
X78500000Y-86500000D03*
X77200000Y-79200000D03*
X77500000Y-136500000D03*
X85000000Y-129000000D03*
X92000000Y-120000000D03*
X86500000Y-108000000D03*
X76000000Y-102500000D03*
X77350000Y-67900000D03*
X89250000Y-67500000D03*
X95000000Y-71000000D03*
X78400000Y-70400000D03*
X68250000Y-79500000D03*
X72800000Y-77200000D03*
X89250000Y-85500000D03*
X68250000Y-91500000D03*
X75250000Y-91500000D03*
X96250000Y-91500000D03*
X75250000Y-97500000D03*
X75250000Y-103500000D03*
X89250000Y-103500000D03*
X68250000Y-109500000D03*
X68250000Y-115500000D03*
X89250000Y-115500000D03*
X68250000Y-121500000D03*
X82250000Y-121500000D03*
X68250000Y-127500000D03*
X82250000Y-127500000D03*
X96250000Y-127500000D03*
X75250000Y-133500000D03*
X82250000Y-133500000D03*
X96250000Y-133500000D03*
X75250000Y-139500000D03*
X82250000Y-139500000D03*
X79600000Y-97600000D03*
X99800000Y-89800000D03*
X77800000Y-97600000D03*
X81400000Y-97600000D03*
X98275010Y-118400000D03*
X98275010Y-120400000D03*
X98275010Y-122400000D03*
X98275010Y-124400000D03*
X98275010Y-126400000D03*
X82000000Y-110000000D03*
X88000000Y-140000000D03*
X75250000Y-127500000D03*
D16*
X84960000Y-70125000D02*
X84835000Y-70000000D01*
X84960000Y-82500000D02*
X84960000Y-70125000D01*
X81025000Y-71800000D02*
X81025000Y-70000000D01*
X81375001Y-72150001D02*
X81025000Y-71800000D01*
X81150000Y-78885198D02*
X81375001Y-78660197D01*
X81375001Y-78660197D02*
X81375001Y-72150001D01*
X81150000Y-79960000D02*
X81150000Y-78885198D01*
X84835000Y-70000000D02*
X84835000Y-68200000D01*
X81025000Y-70000000D02*
X81025000Y-68200000D01*
D17*
X99800000Y-89800000D02*
X91200000Y-89800000D01*
X91200000Y-89800000D02*
X83400000Y-97600000D01*
X83400000Y-97600000D02*
X79600000Y-97600000D01*
X79600000Y-97600000D02*
X78000000Y-97600000D01*
X78000000Y-97600000D02*
X77800000Y-97600000D01*
X77800000Y-97600000D02*
X77800000Y-97600000D01*
X98275010Y-125524990D02*
X98275010Y-126400000D01*
X98275010Y-106275010D02*
X98275010Y-125524990D01*
X83400000Y-97600000D02*
X89600000Y-97600000D01*
X89600000Y-97600000D02*
X98275010Y-106275010D01*
X82000000Y-110000000D02*
X84000000Y-110000000D01*
X84000000Y-110000000D02*
X87500000Y-113500000D01*
X87500000Y-113500000D02*
X87500000Y-139500000D01*
X87500000Y-139500000D02*
X88000000Y-140000000D01*
X88000000Y-140000000D02*
X88000000Y-140000000D01*
D18*
X87500000Y-81340000D02*
X88200000Y-80640000D01*
X87500000Y-82500000D02*
X87500000Y-81340000D01*
X87375000Y-71900000D02*
X87375000Y-70000000D01*
X87234999Y-74654001D02*
X87234999Y-72040001D01*
X87234999Y-72040001D02*
X87375000Y-71900000D01*
X88200000Y-75619002D02*
X87234999Y-74654001D01*
X88200000Y-80640000D02*
X88200000Y-75619002D01*
D16*
X87375000Y-70000000D02*
X87375000Y-68200000D01*
D18*
X86230000Y-79960000D02*
X86230000Y-70125000D01*
D16*
X86105000Y-70000000D02*
X86105000Y-68200000D01*
X86230000Y-70125000D02*
X86105000Y-70000000D01*
X82420000Y-70125000D02*
X82295000Y-70000000D01*
X82420000Y-82500000D02*
X82420000Y-70125000D01*
X82295000Y-70000000D02*
X82295000Y-68200000D01*
D19*
X79936928Y-66700000D02*
X79940000Y-67914250D01*
X80098750Y-68073000D01*
X80898000Y-68073000D01*
X80898000Y-68053000D01*
X81152000Y-68053000D01*
X81152000Y-68073000D01*
X81172000Y-68073000D01*
X81172000Y-68327000D01*
X81152000Y-68327000D01*
X81152000Y-70176250D01*
X81310750Y-70335000D01*
X81475000Y-70338072D01*
X81580071Y-70327724D01*
X81635001Y-70430492D01*
X81635000Y-78646546D01*
X81619108Y-78639076D01*
X81352394Y-78572939D01*
X81077903Y-78560105D01*
X80806183Y-78601069D01*
X80547674Y-78694256D01*
X80432206Y-78755975D01*
X80365469Y-78995863D01*
X81150000Y-79780395D01*
X81164142Y-79766252D01*
X81343748Y-79945858D01*
X81329605Y-79960000D01*
X81343748Y-79974143D01*
X81164142Y-80153748D01*
X81150000Y-80139605D01*
X80365469Y-80924137D01*
X80432206Y-81164025D01*
X80680892Y-81280924D01*
X80947606Y-81347061D01*
X81222097Y-81359895D01*
X81493817Y-81318931D01*
X81635000Y-81268037D01*
X81635000Y-81346768D01*
X81530739Y-81416433D01*
X81336433Y-81610739D01*
X81183767Y-81839220D01*
X81078609Y-82093093D01*
X81025000Y-82362604D01*
X81025000Y-82637396D01*
X81078609Y-82906907D01*
X81183767Y-83160780D01*
X81336433Y-83389261D01*
X81530739Y-83583567D01*
X81759220Y-83736233D01*
X82013093Y-83841391D01*
X82282604Y-83895000D01*
X82557396Y-83895000D01*
X82826907Y-83841391D01*
X83080780Y-83736233D01*
X83309261Y-83583567D01*
X83428691Y-83464137D01*
X84175469Y-83464137D01*
X84242206Y-83704025D01*
X84490892Y-83820924D01*
X84757606Y-83887061D01*
X85032097Y-83899895D01*
X85303817Y-83858931D01*
X85562326Y-83765744D01*
X85677794Y-83704025D01*
X85744531Y-83464137D01*
X84960000Y-82679605D01*
X84175469Y-83464137D01*
X83428691Y-83464137D01*
X83503567Y-83389261D01*
X83656233Y-83160780D01*
X83687830Y-83084499D01*
X83694256Y-83102326D01*
X83755975Y-83217794D01*
X83995863Y-83284531D01*
X84780395Y-82500000D01*
X83995863Y-81715469D01*
X83755975Y-81782206D01*
X83690400Y-81921707D01*
X83656233Y-81839220D01*
X83503567Y-81610739D01*
X83428691Y-81535863D01*
X84175469Y-81535863D01*
X84960000Y-82320395D01*
X85744531Y-81535863D01*
X85677794Y-81295975D01*
X85429108Y-81179076D01*
X85162394Y-81112939D01*
X84887903Y-81100105D01*
X84616183Y-81141069D01*
X84357674Y-81234256D01*
X84242206Y-81295975D01*
X84175469Y-81535863D01*
X83428691Y-81535863D01*
X83309261Y-81416433D01*
X83205000Y-81346768D01*
X83205000Y-81269044D01*
X83283093Y-81301391D01*
X83552604Y-81355000D01*
X83827396Y-81355000D01*
X84096907Y-81301391D01*
X84350780Y-81196233D01*
X84579261Y-81043567D01*
X84773567Y-80849261D01*
X84926233Y-80620780D01*
X84960000Y-80539260D01*
X84993767Y-80620780D01*
X85146433Y-80849261D01*
X85340739Y-81043567D01*
X85569220Y-81196233D01*
X85823093Y-81301391D01*
X86092604Y-81355000D01*
X86234499Y-81355000D01*
X86209463Y-81385506D01*
X86150498Y-81495820D01*
X86114188Y-81615518D01*
X86101928Y-81740000D01*
X86101928Y-81764931D01*
X85924137Y-81715469D01*
X85139605Y-82500000D01*
X85924137Y-83284531D01*
X86101928Y-83235069D01*
X86101928Y-83260000D01*
X86114188Y-83384482D01*
X86150498Y-83504180D01*
X86209463Y-83614494D01*
X86288815Y-83711185D01*
X86385506Y-83790537D01*
X86495820Y-83849502D01*
X86615518Y-83885812D01*
X86740000Y-83898072D01*
X88260000Y-83898072D01*
X88384482Y-83885812D01*
X88504180Y-83849502D01*
X88614494Y-83790537D01*
X88711185Y-83711185D01*
X88790537Y-83614494D01*
X88849502Y-83504180D01*
X88885812Y-83384482D01*
X88898072Y-83260000D01*
X88898072Y-81740000D01*
X88885812Y-81615518D01*
X88849502Y-81495820D01*
X88790537Y-81385506D01*
X88720591Y-81300277D01*
X88761427Y-81259441D01*
X88793291Y-81233291D01*
X88897636Y-81106146D01*
X88975172Y-80961087D01*
X89022918Y-80803689D01*
X89035000Y-80681019D01*
X89035000Y-80681009D01*
X89039039Y-80640001D01*
X89035000Y-80598993D01*
X89035000Y-75839684D01*
X89187409Y-75870000D01*
X89632591Y-75870000D01*
X90069218Y-75783149D01*
X90480511Y-75612786D01*
X90850666Y-75365456D01*
X91165456Y-75050666D01*
X91412786Y-74680511D01*
X91583149Y-74269218D01*
X91630758Y-74029872D01*
X95265000Y-74029872D01*
X95265000Y-74470128D01*
X95350890Y-74901925D01*
X95519369Y-75308669D01*
X95763962Y-75674729D01*
X96075271Y-75986038D01*
X96441331Y-76230631D01*
X96848075Y-76399110D01*
X97279872Y-76485000D01*
X97720128Y-76485000D01*
X98151925Y-76399110D01*
X98558669Y-76230631D01*
X98924729Y-75986038D01*
X99236038Y-75674729D01*
X99480631Y-75308669D01*
X99649110Y-74901925D01*
X99735000Y-74470128D01*
X99735000Y-74029872D01*
X99649110Y-73598075D01*
X99480631Y-73191331D01*
X99236038Y-72825271D01*
X98924729Y-72513962D01*
X98558669Y-72269369D01*
X98151925Y-72100890D01*
X97720128Y-72015000D01*
X97279872Y-72015000D01*
X96848075Y-72100890D01*
X96441331Y-72269369D01*
X96075271Y-72513962D01*
X95763962Y-72825271D01*
X95519369Y-73191331D01*
X95350890Y-73598075D01*
X95265000Y-74029872D01*
X91630758Y-74029872D01*
X91670000Y-73832591D01*
X91670000Y-73387409D01*
X91583149Y-72950782D01*
X91412786Y-72539489D01*
X91165456Y-72169334D01*
X90850666Y-71854544D01*
X90480511Y-71607214D01*
X90069218Y-71436851D01*
X89632591Y-71350000D01*
X89187409Y-71350000D01*
X88750782Y-71436851D01*
X88339489Y-71607214D01*
X88210000Y-71693736D01*
X88210000Y-70205501D01*
X88276185Y-70151185D01*
X88355537Y-70054494D01*
X88414502Y-69944180D01*
X88450812Y-69824482D01*
X88463072Y-69700000D01*
X88463072Y-66700000D01*
X88455882Y-66627000D01*
X99873000Y-66627000D01*
X99873000Y-88765000D01*
X99698061Y-88765000D01*
X99498102Y-88804774D01*
X99309744Y-88882795D01*
X99261546Y-88915000D01*
X91243469Y-88915000D01*
X91200000Y-88910719D01*
X91156531Y-88915000D01*
X91156523Y-88915000D01*
X91026510Y-88927805D01*
X90859687Y-88978411D01*
X90705941Y-89060589D01*
X90604953Y-89143468D01*
X90604951Y-89143470D01*
X90571183Y-89171183D01*
X90543470Y-89204951D01*
X83033422Y-96715000D01*
X81938454Y-96715000D01*
X81890256Y-96682795D01*
X81701898Y-96604774D01*
X81501939Y-96565000D01*
X81298061Y-96565000D01*
X81098102Y-96604774D01*
X80909744Y-96682795D01*
X80861546Y-96715000D01*
X80138454Y-96715000D01*
X80090256Y-96682795D01*
X79901898Y-96604774D01*
X79701939Y-96565000D01*
X79498061Y-96565000D01*
X79298102Y-96604774D01*
X79109744Y-96682795D01*
X79061546Y-96715000D01*
X78338454Y-96715000D01*
X78290256Y-96682795D01*
X78101898Y-96604774D01*
X77901939Y-96565000D01*
X77698061Y-96565000D01*
X77498102Y-96604774D01*
X77309744Y-96682795D01*
X77140226Y-96796063D01*
X76996063Y-96940226D01*
X76882795Y-97109744D01*
X76804774Y-97298102D01*
X76765000Y-97498061D01*
X76765000Y-97701939D01*
X76804774Y-97901898D01*
X76882795Y-98090256D01*
X76996063Y-98259774D01*
X77140226Y-98403937D01*
X77309744Y-98517205D01*
X77498102Y-98595226D01*
X77698061Y-98635000D01*
X77901939Y-98635000D01*
X78101898Y-98595226D01*
X78290256Y-98517205D01*
X78338454Y-98485000D01*
X79061546Y-98485000D01*
X79109744Y-98517205D01*
X79298102Y-98595226D01*
X79498061Y-98635000D01*
X79701939Y-98635000D01*
X79901898Y-98595226D01*
X80090256Y-98517205D01*
X80138454Y-98485000D01*
X80861546Y-98485000D01*
X80909744Y-98517205D01*
X81098102Y-98595226D01*
X81298061Y-98635000D01*
X81501939Y-98635000D01*
X81701898Y-98595226D01*
X81890256Y-98517205D01*
X81938454Y-98485000D01*
X83356531Y-98485000D01*
X83400000Y-98489281D01*
X83443469Y-98485000D01*
X89233422Y-98485000D01*
X97390010Y-106641589D01*
X97390011Y-117861545D01*
X97357805Y-117909744D01*
X97279784Y-118098102D01*
X97240010Y-118298061D01*
X97240010Y-118501939D01*
X97279784Y-118701898D01*
X97357805Y-118890256D01*
X97390011Y-118938455D01*
X97390011Y-119861545D01*
X97357805Y-119909744D01*
X97279784Y-120098102D01*
X97240010Y-120298061D01*
X97240010Y-120501939D01*
X97279784Y-120701898D01*
X97357805Y-120890256D01*
X97390011Y-120938455D01*
X97390011Y-121861544D01*
X97357805Y-121909744D01*
X97279784Y-122098102D01*
X97240010Y-122298061D01*
X97240010Y-122501939D01*
X97279784Y-122701898D01*
X97357805Y-122890256D01*
X97390011Y-122938456D01*
X97390011Y-123861544D01*
X97357805Y-123909744D01*
X97279784Y-124098102D01*
X97240010Y-124298061D01*
X97240010Y-124501939D01*
X97279784Y-124701898D01*
X97357805Y-124890256D01*
X97390011Y-124938456D01*
X97390011Y-125481504D01*
X97390010Y-125481514D01*
X97390010Y-125861546D01*
X97357805Y-125909744D01*
X97279784Y-126098102D01*
X97240010Y-126298061D01*
X97240010Y-126501939D01*
X97279784Y-126701898D01*
X97357805Y-126890256D01*
X97471073Y-127059774D01*
X97615236Y-127203937D01*
X97784754Y-127317205D01*
X97973112Y-127395226D01*
X98173071Y-127435000D01*
X98376949Y-127435000D01*
X98576908Y-127395226D01*
X98765266Y-127317205D01*
X98934784Y-127203937D01*
X99078947Y-127059774D01*
X99192215Y-126890256D01*
X99270236Y-126701898D01*
X99310010Y-126501939D01*
X99310010Y-126298061D01*
X99270236Y-126098102D01*
X99192215Y-125909744D01*
X99160010Y-125861546D01*
X99160010Y-124938454D01*
X99192215Y-124890256D01*
X99270236Y-124701898D01*
X99310010Y-124501939D01*
X99310010Y-124298061D01*
X99270236Y-124098102D01*
X99192215Y-123909744D01*
X99160010Y-123861546D01*
X99160010Y-122938454D01*
X99192215Y-122890256D01*
X99270236Y-122701898D01*
X99310010Y-122501939D01*
X99310010Y-122298061D01*
X99270236Y-122098102D01*
X99192215Y-121909744D01*
X99160010Y-121861546D01*
X99160010Y-120938454D01*
X99192215Y-120890256D01*
X99270236Y-120701898D01*
X99310010Y-120501939D01*
X99310010Y-120298061D01*
X99270236Y-120098102D01*
X99192215Y-119909744D01*
X99160010Y-119861546D01*
X99160010Y-118938454D01*
X99192215Y-118890256D01*
X99270236Y-118701898D01*
X99310010Y-118501939D01*
X99310010Y-118298061D01*
X99270236Y-118098102D01*
X99192215Y-117909744D01*
X99160010Y-117861546D01*
X99160010Y-106318479D01*
X99164291Y-106275010D01*
X99160010Y-106231541D01*
X99160010Y-106231533D01*
X99147205Y-106101520D01*
X99096599Y-105934697D01*
X99014421Y-105780951D01*
X98903827Y-105646193D01*
X98870061Y-105618482D01*
X90256532Y-97004954D01*
X90228817Y-96971183D01*
X90094059Y-96860589D01*
X89940313Y-96778411D01*
X89773490Y-96727805D01*
X89643477Y-96715000D01*
X89643469Y-96715000D01*
X89600000Y-96710719D01*
X89556531Y-96715000D01*
X85536578Y-96715000D01*
X91566579Y-90685000D01*
X99261546Y-90685000D01*
X99309744Y-90717205D01*
X99498102Y-90795226D01*
X99698061Y-90835000D01*
X99873000Y-90835000D01*
X99873000Y-142873000D01*
X69224097Y-142873000D01*
X69239502Y-142844180D01*
X69275812Y-142724482D01*
X69288072Y-142600000D01*
X69288072Y-140900000D01*
X69275812Y-140775518D01*
X69239502Y-140655820D01*
X69180537Y-140545506D01*
X69101185Y-140448815D01*
X69004494Y-140369463D01*
X68894180Y-140310498D01*
X68821620Y-140288487D01*
X68953475Y-140156632D01*
X69115990Y-139913411D01*
X69227932Y-139643158D01*
X69285000Y-139356260D01*
X69285000Y-139063740D01*
X69227932Y-138776842D01*
X69115990Y-138506589D01*
X68953475Y-138263368D01*
X68746632Y-138056525D01*
X68572240Y-137940000D01*
X68746632Y-137823475D01*
X68953475Y-137616632D01*
X69115990Y-137373411D01*
X69227932Y-137103158D01*
X69285000Y-136816260D01*
X69285000Y-136523740D01*
X69227932Y-136236842D01*
X69115990Y-135966589D01*
X68953475Y-135723368D01*
X68746632Y-135516525D01*
X68572240Y-135400000D01*
X68746632Y-135283475D01*
X68953475Y-135076632D01*
X69115990Y-134833411D01*
X69227932Y-134563158D01*
X69285000Y-134276260D01*
X69285000Y-133983740D01*
X69227932Y-133696842D01*
X69115990Y-133426589D01*
X68953475Y-133183368D01*
X68746632Y-132976525D01*
X68572240Y-132860000D01*
X68746632Y-132743475D01*
X68953475Y-132536632D01*
X69115990Y-132293411D01*
X69227932Y-132023158D01*
X69285000Y-131736260D01*
X69285000Y-131443740D01*
X69227932Y-131156842D01*
X69115990Y-130886589D01*
X68953475Y-130643368D01*
X68746632Y-130436525D01*
X68564466Y-130314805D01*
X68681355Y-130245178D01*
X68897588Y-130050269D01*
X69071641Y-129816920D01*
X69196825Y-129554099D01*
X69241476Y-129406890D01*
X69120155Y-129177000D01*
X67927000Y-129177000D01*
X67927000Y-129197000D01*
X67673000Y-129197000D01*
X67673000Y-129177000D01*
X67653000Y-129177000D01*
X67653000Y-128923000D01*
X67673000Y-128923000D01*
X67673000Y-127729186D01*
X67927000Y-127729186D01*
X67927000Y-128923000D01*
X69120155Y-128923000D01*
X69241476Y-128693110D01*
X69196825Y-128545901D01*
X69071641Y-128283080D01*
X68897588Y-128049731D01*
X68681355Y-127854822D01*
X68431252Y-127705843D01*
X68156891Y-127608519D01*
X67927000Y-127729186D01*
X67673000Y-127729186D01*
X67443109Y-127608519D01*
X67168748Y-127705843D01*
X67127000Y-127730711D01*
X67127000Y-127398061D01*
X74215000Y-127398061D01*
X74215000Y-127601939D01*
X74254774Y-127801898D01*
X74332795Y-127990256D01*
X74446063Y-128159774D01*
X74590226Y-128303937D01*
X74759744Y-128417205D01*
X74948102Y-128495226D01*
X75148061Y-128535000D01*
X75351939Y-128535000D01*
X75551898Y-128495226D01*
X75740256Y-128417205D01*
X75909774Y-128303937D01*
X76053937Y-128159774D01*
X76167205Y-127990256D01*
X76245226Y-127801898D01*
X76285000Y-127601939D01*
X76285000Y-127398061D01*
X76245226Y-127198102D01*
X76167205Y-127009744D01*
X76053937Y-126840226D01*
X75909774Y-126696063D01*
X75740256Y-126582795D01*
X75551898Y-126504774D01*
X75351939Y-126465000D01*
X75148061Y-126465000D01*
X74948102Y-126504774D01*
X74759744Y-126582795D01*
X74590226Y-126696063D01*
X74446063Y-126840226D01*
X74332795Y-127009744D01*
X74254774Y-127198102D01*
X74215000Y-127398061D01*
X67127000Y-127398061D01*
X67127000Y-118912835D01*
X69215000Y-118912835D01*
X69215000Y-119087165D01*
X69249010Y-119258145D01*
X69315723Y-119419205D01*
X69412576Y-119564155D01*
X69535845Y-119687424D01*
X69680795Y-119784277D01*
X69841855Y-119850990D01*
X70012835Y-119885000D01*
X70187165Y-119885000D01*
X70358145Y-119850990D01*
X70519205Y-119784277D01*
X70664155Y-119687424D01*
X70787424Y-119564155D01*
X70884277Y-119419205D01*
X70950990Y-119258145D01*
X70985000Y-119087165D01*
X70985000Y-118912835D01*
X70950990Y-118741855D01*
X70884277Y-118580795D01*
X70787424Y-118435845D01*
X70664155Y-118312576D01*
X70519205Y-118215723D01*
X70358145Y-118149010D01*
X70187165Y-118115000D01*
X70012835Y-118115000D01*
X69841855Y-118149010D01*
X69680795Y-118215723D01*
X69535845Y-118312576D01*
X69412576Y-118435845D01*
X69315723Y-118580795D01*
X69249010Y-118741855D01*
X69215000Y-118912835D01*
X67127000Y-118912835D01*
X67127000Y-114912835D01*
X69215000Y-114912835D01*
X69215000Y-115087165D01*
X69249010Y-115258145D01*
X69315723Y-115419205D01*
X69412576Y-115564155D01*
X69535845Y-115687424D01*
X69680795Y-115784277D01*
X69841855Y-115850990D01*
X70012835Y-115885000D01*
X70187165Y-115885000D01*
X70358145Y-115850990D01*
X70519205Y-115784277D01*
X70664155Y-115687424D01*
X70787424Y-115564155D01*
X70884277Y-115419205D01*
X70950990Y-115258145D01*
X70985000Y-115087165D01*
X70985000Y-114912835D01*
X70950990Y-114741855D01*
X70884277Y-114580795D01*
X70787424Y-114435845D01*
X70664155Y-114312576D01*
X70519205Y-114215723D01*
X70358145Y-114149010D01*
X70187165Y-114115000D01*
X70012835Y-114115000D01*
X69841855Y-114149010D01*
X69680795Y-114215723D01*
X69535845Y-114312576D01*
X69412576Y-114435845D01*
X69315723Y-114580795D01*
X69249010Y-114741855D01*
X69215000Y-114912835D01*
X67127000Y-114912835D01*
X67127000Y-109898061D01*
X80965000Y-109898061D01*
X80965000Y-110101939D01*
X81004774Y-110301898D01*
X81082795Y-110490256D01*
X81196063Y-110659774D01*
X81340226Y-110803937D01*
X81509744Y-110917205D01*
X81698102Y-110995226D01*
X81898061Y-111035000D01*
X82101939Y-111035000D01*
X82301898Y-110995226D01*
X82490256Y-110917205D01*
X82538454Y-110885000D01*
X83633422Y-110885000D01*
X86615000Y-113866579D01*
X86615001Y-139456521D01*
X86610719Y-139500000D01*
X86627805Y-139673490D01*
X86678412Y-139840313D01*
X86760590Y-139994059D01*
X86843468Y-140095046D01*
X86843471Y-140095049D01*
X86871184Y-140128817D01*
X86904952Y-140156530D01*
X86993465Y-140245043D01*
X87004774Y-140301898D01*
X87082795Y-140490256D01*
X87196063Y-140659774D01*
X87340226Y-140803937D01*
X87509744Y-140917205D01*
X87698102Y-140995226D01*
X87898061Y-141035000D01*
X88101939Y-141035000D01*
X88301898Y-140995226D01*
X88490256Y-140917205D01*
X88659774Y-140803937D01*
X88803937Y-140659774D01*
X88917205Y-140490256D01*
X88995226Y-140301898D01*
X89035000Y-140101939D01*
X89035000Y-139898061D01*
X88995226Y-139698102D01*
X88917205Y-139509744D01*
X88803937Y-139340226D01*
X88659774Y-139196063D01*
X88490256Y-139082795D01*
X88385000Y-139039196D01*
X88385000Y-113543465D01*
X88389281Y-113499999D01*
X88385000Y-113456533D01*
X88385000Y-113456523D01*
X88372195Y-113326510D01*
X88321589Y-113159687D01*
X88239411Y-113005941D01*
X88128817Y-112871183D01*
X88095050Y-112843471D01*
X84656534Y-109404956D01*
X84628817Y-109371183D01*
X84494059Y-109260589D01*
X84340313Y-109178411D01*
X84173490Y-109127805D01*
X84043477Y-109115000D01*
X84043469Y-109115000D01*
X84000000Y-109110719D01*
X83956531Y-109115000D01*
X82538454Y-109115000D01*
X82490256Y-109082795D01*
X82301898Y-109004774D01*
X82101939Y-108965000D01*
X81898061Y-108965000D01*
X81698102Y-109004774D01*
X81509744Y-109082795D01*
X81340226Y-109196063D01*
X81196063Y-109340226D01*
X81082795Y-109509744D01*
X81004774Y-109698102D01*
X80965000Y-109898061D01*
X67127000Y-109898061D01*
X67127000Y-80032097D01*
X79750105Y-80032097D01*
X79791069Y-80303817D01*
X79884256Y-80562326D01*
X79945975Y-80677794D01*
X80185863Y-80744531D01*
X80970395Y-79960000D01*
X80185863Y-79175469D01*
X79945975Y-79242206D01*
X79829076Y-79490892D01*
X79762939Y-79757606D01*
X79750105Y-80032097D01*
X67127000Y-80032097D01*
X67127000Y-74029872D01*
X67265000Y-74029872D01*
X67265000Y-74470128D01*
X67350890Y-74901925D01*
X67519369Y-75308669D01*
X67763962Y-75674729D01*
X68075271Y-75986038D01*
X68441331Y-76230631D01*
X68848075Y-76399110D01*
X69279872Y-76485000D01*
X69720128Y-76485000D01*
X70151925Y-76399110D01*
X70558669Y-76230631D01*
X70924729Y-75986038D01*
X71236038Y-75674729D01*
X71480631Y-75308669D01*
X71649110Y-74901925D01*
X71735000Y-74470128D01*
X71735000Y-74029872D01*
X71649110Y-73598075D01*
X71561850Y-73387409D01*
X76990000Y-73387409D01*
X76990000Y-73832591D01*
X77076851Y-74269218D01*
X77247214Y-74680511D01*
X77494544Y-75050666D01*
X77809334Y-75365456D01*
X78179489Y-75612786D01*
X78590782Y-75783149D01*
X79027409Y-75870000D01*
X79472591Y-75870000D01*
X79909218Y-75783149D01*
X80320511Y-75612786D01*
X80690666Y-75365456D01*
X81005456Y-75050666D01*
X81252786Y-74680511D01*
X81423149Y-74269218D01*
X81510000Y-73832591D01*
X81510000Y-73387409D01*
X81423149Y-72950782D01*
X81252786Y-72539489D01*
X81005456Y-72169334D01*
X80690666Y-71854544D01*
X80320511Y-71607214D01*
X79909218Y-71436851D01*
X79472591Y-71350000D01*
X79027409Y-71350000D01*
X78590782Y-71436851D01*
X78179489Y-71607214D01*
X77809334Y-71854544D01*
X77494544Y-72169334D01*
X77247214Y-72539489D01*
X77076851Y-72950782D01*
X76990000Y-73387409D01*
X71561850Y-73387409D01*
X71480631Y-73191331D01*
X71236038Y-72825271D01*
X70924729Y-72513962D01*
X70558669Y-72269369D01*
X70151925Y-72100890D01*
X69720128Y-72015000D01*
X69279872Y-72015000D01*
X68848075Y-72100890D01*
X68441331Y-72269369D01*
X68075271Y-72513962D01*
X67763962Y-72825271D01*
X67519369Y-73191331D01*
X67350890Y-73598075D01*
X67265000Y-74029872D01*
X67127000Y-74029872D01*
X67127000Y-69700000D01*
X79936928Y-69700000D01*
X79949188Y-69824482D01*
X79985498Y-69944180D01*
X80044463Y-70054494D01*
X80123815Y-70151185D01*
X80220506Y-70230537D01*
X80330820Y-70289502D01*
X80450518Y-70325812D01*
X80575000Y-70338072D01*
X80739250Y-70335000D01*
X80898000Y-70176250D01*
X80898000Y-68327000D01*
X80098750Y-68327000D01*
X79940000Y-68485750D01*
X79936928Y-69700000D01*
X67127000Y-69700000D01*
X67127000Y-66627000D01*
X79944118Y-66627000D01*
X79936928Y-66700000D01*
G04 #@! TA.AperFunction,Conductor*
D20*
G36*
X79936928Y-66700000D02*
G01*
X79940000Y-67914250D01*
X80098750Y-68073000D01*
X80898000Y-68073000D01*
X80898000Y-68053000D01*
X81152000Y-68053000D01*
X81152000Y-68073000D01*
X81172000Y-68073000D01*
X81172000Y-68327000D01*
X81152000Y-68327000D01*
X81152000Y-70176250D01*
X81310750Y-70335000D01*
X81475000Y-70338072D01*
X81580071Y-70327724D01*
X81635001Y-70430492D01*
X81635000Y-78646546D01*
X81619108Y-78639076D01*
X81352394Y-78572939D01*
X81077903Y-78560105D01*
X80806183Y-78601069D01*
X80547674Y-78694256D01*
X80432206Y-78755975D01*
X80365469Y-78995863D01*
X81150000Y-79780395D01*
X81164142Y-79766252D01*
X81343748Y-79945858D01*
X81329605Y-79960000D01*
X81343748Y-79974143D01*
X81164142Y-80153748D01*
X81150000Y-80139605D01*
X80365469Y-80924137D01*
X80432206Y-81164025D01*
X80680892Y-81280924D01*
X80947606Y-81347061D01*
X81222097Y-81359895D01*
X81493817Y-81318931D01*
X81635000Y-81268037D01*
X81635000Y-81346768D01*
X81530739Y-81416433D01*
X81336433Y-81610739D01*
X81183767Y-81839220D01*
X81078609Y-82093093D01*
X81025000Y-82362604D01*
X81025000Y-82637396D01*
X81078609Y-82906907D01*
X81183767Y-83160780D01*
X81336433Y-83389261D01*
X81530739Y-83583567D01*
X81759220Y-83736233D01*
X82013093Y-83841391D01*
X82282604Y-83895000D01*
X82557396Y-83895000D01*
X82826907Y-83841391D01*
X83080780Y-83736233D01*
X83309261Y-83583567D01*
X83428691Y-83464137D01*
X84175469Y-83464137D01*
X84242206Y-83704025D01*
X84490892Y-83820924D01*
X84757606Y-83887061D01*
X85032097Y-83899895D01*
X85303817Y-83858931D01*
X85562326Y-83765744D01*
X85677794Y-83704025D01*
X85744531Y-83464137D01*
X84960000Y-82679605D01*
X84175469Y-83464137D01*
X83428691Y-83464137D01*
X83503567Y-83389261D01*
X83656233Y-83160780D01*
X83687830Y-83084499D01*
X83694256Y-83102326D01*
X83755975Y-83217794D01*
X83995863Y-83284531D01*
X84780395Y-82500000D01*
X83995863Y-81715469D01*
X83755975Y-81782206D01*
X83690400Y-81921707D01*
X83656233Y-81839220D01*
X83503567Y-81610739D01*
X83428691Y-81535863D01*
X84175469Y-81535863D01*
X84960000Y-82320395D01*
X85744531Y-81535863D01*
X85677794Y-81295975D01*
X85429108Y-81179076D01*
X85162394Y-81112939D01*
X84887903Y-81100105D01*
X84616183Y-81141069D01*
X84357674Y-81234256D01*
X84242206Y-81295975D01*
X84175469Y-81535863D01*
X83428691Y-81535863D01*
X83309261Y-81416433D01*
X83205000Y-81346768D01*
X83205000Y-81269044D01*
X83283093Y-81301391D01*
X83552604Y-81355000D01*
X83827396Y-81355000D01*
X84096907Y-81301391D01*
X84350780Y-81196233D01*
X84579261Y-81043567D01*
X84773567Y-80849261D01*
X84926233Y-80620780D01*
X84960000Y-80539260D01*
X84993767Y-80620780D01*
X85146433Y-80849261D01*
X85340739Y-81043567D01*
X85569220Y-81196233D01*
X85823093Y-81301391D01*
X86092604Y-81355000D01*
X86234499Y-81355000D01*
X86209463Y-81385506D01*
X86150498Y-81495820D01*
X86114188Y-81615518D01*
X86101928Y-81740000D01*
X86101928Y-81764931D01*
X85924137Y-81715469D01*
X85139605Y-82500000D01*
X85924137Y-83284531D01*
X86101928Y-83235069D01*
X86101928Y-83260000D01*
X86114188Y-83384482D01*
X86150498Y-83504180D01*
X86209463Y-83614494D01*
X86288815Y-83711185D01*
X86385506Y-83790537D01*
X86495820Y-83849502D01*
X86615518Y-83885812D01*
X86740000Y-83898072D01*
X88260000Y-83898072D01*
X88384482Y-83885812D01*
X88504180Y-83849502D01*
X88614494Y-83790537D01*
X88711185Y-83711185D01*
X88790537Y-83614494D01*
X88849502Y-83504180D01*
X88885812Y-83384482D01*
X88898072Y-83260000D01*
X88898072Y-81740000D01*
X88885812Y-81615518D01*
X88849502Y-81495820D01*
X88790537Y-81385506D01*
X88720591Y-81300277D01*
X88761427Y-81259441D01*
X88793291Y-81233291D01*
X88897636Y-81106146D01*
X88975172Y-80961087D01*
X89022918Y-80803689D01*
X89035000Y-80681019D01*
X89035000Y-80681009D01*
X89039039Y-80640001D01*
X89035000Y-80598993D01*
X89035000Y-75839684D01*
X89187409Y-75870000D01*
X89632591Y-75870000D01*
X90069218Y-75783149D01*
X90480511Y-75612786D01*
X90850666Y-75365456D01*
X91165456Y-75050666D01*
X91412786Y-74680511D01*
X91583149Y-74269218D01*
X91630758Y-74029872D01*
X95265000Y-74029872D01*
X95265000Y-74470128D01*
X95350890Y-74901925D01*
X95519369Y-75308669D01*
X95763962Y-75674729D01*
X96075271Y-75986038D01*
X96441331Y-76230631D01*
X96848075Y-76399110D01*
X97279872Y-76485000D01*
X97720128Y-76485000D01*
X98151925Y-76399110D01*
X98558669Y-76230631D01*
X98924729Y-75986038D01*
X99236038Y-75674729D01*
X99480631Y-75308669D01*
X99649110Y-74901925D01*
X99735000Y-74470128D01*
X99735000Y-74029872D01*
X99649110Y-73598075D01*
X99480631Y-73191331D01*
X99236038Y-72825271D01*
X98924729Y-72513962D01*
X98558669Y-72269369D01*
X98151925Y-72100890D01*
X97720128Y-72015000D01*
X97279872Y-72015000D01*
X96848075Y-72100890D01*
X96441331Y-72269369D01*
X96075271Y-72513962D01*
X95763962Y-72825271D01*
X95519369Y-73191331D01*
X95350890Y-73598075D01*
X95265000Y-74029872D01*
X91630758Y-74029872D01*
X91670000Y-73832591D01*
X91670000Y-73387409D01*
X91583149Y-72950782D01*
X91412786Y-72539489D01*
X91165456Y-72169334D01*
X90850666Y-71854544D01*
X90480511Y-71607214D01*
X90069218Y-71436851D01*
X89632591Y-71350000D01*
X89187409Y-71350000D01*
X88750782Y-71436851D01*
X88339489Y-71607214D01*
X88210000Y-71693736D01*
X88210000Y-70205501D01*
X88276185Y-70151185D01*
X88355537Y-70054494D01*
X88414502Y-69944180D01*
X88450812Y-69824482D01*
X88463072Y-69700000D01*
X88463072Y-66700000D01*
X88455882Y-66627000D01*
X99873000Y-66627000D01*
X99873000Y-88765000D01*
X99698061Y-88765000D01*
X99498102Y-88804774D01*
X99309744Y-88882795D01*
X99261546Y-88915000D01*
X91243469Y-88915000D01*
X91200000Y-88910719D01*
X91156531Y-88915000D01*
X91156523Y-88915000D01*
X91026510Y-88927805D01*
X90859687Y-88978411D01*
X90705941Y-89060589D01*
X90604953Y-89143468D01*
X90604951Y-89143470D01*
X90571183Y-89171183D01*
X90543470Y-89204951D01*
X83033422Y-96715000D01*
X81938454Y-96715000D01*
X81890256Y-96682795D01*
X81701898Y-96604774D01*
X81501939Y-96565000D01*
X81298061Y-96565000D01*
X81098102Y-96604774D01*
X80909744Y-96682795D01*
X80861546Y-96715000D01*
X80138454Y-96715000D01*
X80090256Y-96682795D01*
X79901898Y-96604774D01*
X79701939Y-96565000D01*
X79498061Y-96565000D01*
X79298102Y-96604774D01*
X79109744Y-96682795D01*
X79061546Y-96715000D01*
X78338454Y-96715000D01*
X78290256Y-96682795D01*
X78101898Y-96604774D01*
X77901939Y-96565000D01*
X77698061Y-96565000D01*
X77498102Y-96604774D01*
X77309744Y-96682795D01*
X77140226Y-96796063D01*
X76996063Y-96940226D01*
X76882795Y-97109744D01*
X76804774Y-97298102D01*
X76765000Y-97498061D01*
X76765000Y-97701939D01*
X76804774Y-97901898D01*
X76882795Y-98090256D01*
X76996063Y-98259774D01*
X77140226Y-98403937D01*
X77309744Y-98517205D01*
X77498102Y-98595226D01*
X77698061Y-98635000D01*
X77901939Y-98635000D01*
X78101898Y-98595226D01*
X78290256Y-98517205D01*
X78338454Y-98485000D01*
X79061546Y-98485000D01*
X79109744Y-98517205D01*
X79298102Y-98595226D01*
X79498061Y-98635000D01*
X79701939Y-98635000D01*
X79901898Y-98595226D01*
X80090256Y-98517205D01*
X80138454Y-98485000D01*
X80861546Y-98485000D01*
X80909744Y-98517205D01*
X81098102Y-98595226D01*
X81298061Y-98635000D01*
X81501939Y-98635000D01*
X81701898Y-98595226D01*
X81890256Y-98517205D01*
X81938454Y-98485000D01*
X83356531Y-98485000D01*
X83400000Y-98489281D01*
X83443469Y-98485000D01*
X89233422Y-98485000D01*
X97390010Y-106641589D01*
X97390011Y-117861545D01*
X97357805Y-117909744D01*
X97279784Y-118098102D01*
X97240010Y-118298061D01*
X97240010Y-118501939D01*
X97279784Y-118701898D01*
X97357805Y-118890256D01*
X97390011Y-118938455D01*
X97390011Y-119861545D01*
X97357805Y-119909744D01*
X97279784Y-120098102D01*
X97240010Y-120298061D01*
X97240010Y-120501939D01*
X97279784Y-120701898D01*
X97357805Y-120890256D01*
X97390011Y-120938455D01*
X97390011Y-121861544D01*
X97357805Y-121909744D01*
X97279784Y-122098102D01*
X97240010Y-122298061D01*
X97240010Y-122501939D01*
X97279784Y-122701898D01*
X97357805Y-122890256D01*
X97390011Y-122938456D01*
X97390011Y-123861544D01*
X97357805Y-123909744D01*
X97279784Y-124098102D01*
X97240010Y-124298061D01*
X97240010Y-124501939D01*
X97279784Y-124701898D01*
X97357805Y-124890256D01*
X97390011Y-124938456D01*
X97390011Y-125481504D01*
X97390010Y-125481514D01*
X97390010Y-125861546D01*
X97357805Y-125909744D01*
X97279784Y-126098102D01*
X97240010Y-126298061D01*
X97240010Y-126501939D01*
X97279784Y-126701898D01*
X97357805Y-126890256D01*
X97471073Y-127059774D01*
X97615236Y-127203937D01*
X97784754Y-127317205D01*
X97973112Y-127395226D01*
X98173071Y-127435000D01*
X98376949Y-127435000D01*
X98576908Y-127395226D01*
X98765266Y-127317205D01*
X98934784Y-127203937D01*
X99078947Y-127059774D01*
X99192215Y-126890256D01*
X99270236Y-126701898D01*
X99310010Y-126501939D01*
X99310010Y-126298061D01*
X99270236Y-126098102D01*
X99192215Y-125909744D01*
X99160010Y-125861546D01*
X99160010Y-124938454D01*
X99192215Y-124890256D01*
X99270236Y-124701898D01*
X99310010Y-124501939D01*
X99310010Y-124298061D01*
X99270236Y-124098102D01*
X99192215Y-123909744D01*
X99160010Y-123861546D01*
X99160010Y-122938454D01*
X99192215Y-122890256D01*
X99270236Y-122701898D01*
X99310010Y-122501939D01*
X99310010Y-122298061D01*
X99270236Y-122098102D01*
X99192215Y-121909744D01*
X99160010Y-121861546D01*
X99160010Y-120938454D01*
X99192215Y-120890256D01*
X99270236Y-120701898D01*
X99310010Y-120501939D01*
X99310010Y-120298061D01*
X99270236Y-120098102D01*
X99192215Y-119909744D01*
X99160010Y-119861546D01*
X99160010Y-118938454D01*
X99192215Y-118890256D01*
X99270236Y-118701898D01*
X99310010Y-118501939D01*
X99310010Y-118298061D01*
X99270236Y-118098102D01*
X99192215Y-117909744D01*
X99160010Y-117861546D01*
X99160010Y-106318479D01*
X99164291Y-106275010D01*
X99160010Y-106231541D01*
X99160010Y-106231533D01*
X99147205Y-106101520D01*
X99096599Y-105934697D01*
X99014421Y-105780951D01*
X98903827Y-105646193D01*
X98870061Y-105618482D01*
X90256532Y-97004954D01*
X90228817Y-96971183D01*
X90094059Y-96860589D01*
X89940313Y-96778411D01*
X89773490Y-96727805D01*
X89643477Y-96715000D01*
X89643469Y-96715000D01*
X89600000Y-96710719D01*
X89556531Y-96715000D01*
X85536578Y-96715000D01*
X91566579Y-90685000D01*
X99261546Y-90685000D01*
X99309744Y-90717205D01*
X99498102Y-90795226D01*
X99698061Y-90835000D01*
X99873000Y-90835000D01*
X99873000Y-142873000D01*
X69224097Y-142873000D01*
X69239502Y-142844180D01*
X69275812Y-142724482D01*
X69288072Y-142600000D01*
X69288072Y-140900000D01*
X69275812Y-140775518D01*
X69239502Y-140655820D01*
X69180537Y-140545506D01*
X69101185Y-140448815D01*
X69004494Y-140369463D01*
X68894180Y-140310498D01*
X68821620Y-140288487D01*
X68953475Y-140156632D01*
X69115990Y-139913411D01*
X69227932Y-139643158D01*
X69285000Y-139356260D01*
X69285000Y-139063740D01*
X69227932Y-138776842D01*
X69115990Y-138506589D01*
X68953475Y-138263368D01*
X68746632Y-138056525D01*
X68572240Y-137940000D01*
X68746632Y-137823475D01*
X68953475Y-137616632D01*
X69115990Y-137373411D01*
X69227932Y-137103158D01*
X69285000Y-136816260D01*
X69285000Y-136523740D01*
X69227932Y-136236842D01*
X69115990Y-135966589D01*
X68953475Y-135723368D01*
X68746632Y-135516525D01*
X68572240Y-135400000D01*
X68746632Y-135283475D01*
X68953475Y-135076632D01*
X69115990Y-134833411D01*
X69227932Y-134563158D01*
X69285000Y-134276260D01*
X69285000Y-133983740D01*
X69227932Y-133696842D01*
X69115990Y-133426589D01*
X68953475Y-133183368D01*
X68746632Y-132976525D01*
X68572240Y-132860000D01*
X68746632Y-132743475D01*
X68953475Y-132536632D01*
X69115990Y-132293411D01*
X69227932Y-132023158D01*
X69285000Y-131736260D01*
X69285000Y-131443740D01*
X69227932Y-131156842D01*
X69115990Y-130886589D01*
X68953475Y-130643368D01*
X68746632Y-130436525D01*
X68564466Y-130314805D01*
X68681355Y-130245178D01*
X68897588Y-130050269D01*
X69071641Y-129816920D01*
X69196825Y-129554099D01*
X69241476Y-129406890D01*
X69120155Y-129177000D01*
X67927000Y-129177000D01*
X67927000Y-129197000D01*
X67673000Y-129197000D01*
X67673000Y-129177000D01*
X67653000Y-129177000D01*
X67653000Y-128923000D01*
X67673000Y-128923000D01*
X67673000Y-127729186D01*
X67927000Y-127729186D01*
X67927000Y-128923000D01*
X69120155Y-128923000D01*
X69241476Y-128693110D01*
X69196825Y-128545901D01*
X69071641Y-128283080D01*
X68897588Y-128049731D01*
X68681355Y-127854822D01*
X68431252Y-127705843D01*
X68156891Y-127608519D01*
X67927000Y-127729186D01*
X67673000Y-127729186D01*
X67443109Y-127608519D01*
X67168748Y-127705843D01*
X67127000Y-127730711D01*
X67127000Y-127398061D01*
X74215000Y-127398061D01*
X74215000Y-127601939D01*
X74254774Y-127801898D01*
X74332795Y-127990256D01*
X74446063Y-128159774D01*
X74590226Y-128303937D01*
X74759744Y-128417205D01*
X74948102Y-128495226D01*
X75148061Y-128535000D01*
X75351939Y-128535000D01*
X75551898Y-128495226D01*
X75740256Y-128417205D01*
X75909774Y-128303937D01*
X76053937Y-128159774D01*
X76167205Y-127990256D01*
X76245226Y-127801898D01*
X76285000Y-127601939D01*
X76285000Y-127398061D01*
X76245226Y-127198102D01*
X76167205Y-127009744D01*
X76053937Y-126840226D01*
X75909774Y-126696063D01*
X75740256Y-126582795D01*
X75551898Y-126504774D01*
X75351939Y-126465000D01*
X75148061Y-126465000D01*
X74948102Y-126504774D01*
X74759744Y-126582795D01*
X74590226Y-126696063D01*
X74446063Y-126840226D01*
X74332795Y-127009744D01*
X74254774Y-127198102D01*
X74215000Y-127398061D01*
X67127000Y-127398061D01*
X67127000Y-118912835D01*
X69215000Y-118912835D01*
X69215000Y-119087165D01*
X69249010Y-119258145D01*
X69315723Y-119419205D01*
X69412576Y-119564155D01*
X69535845Y-119687424D01*
X69680795Y-119784277D01*
X69841855Y-119850990D01*
X70012835Y-119885000D01*
X70187165Y-119885000D01*
X70358145Y-119850990D01*
X70519205Y-119784277D01*
X70664155Y-119687424D01*
X70787424Y-119564155D01*
X70884277Y-119419205D01*
X70950990Y-119258145D01*
X70985000Y-119087165D01*
X70985000Y-118912835D01*
X70950990Y-118741855D01*
X70884277Y-118580795D01*
X70787424Y-118435845D01*
X70664155Y-118312576D01*
X70519205Y-118215723D01*
X70358145Y-118149010D01*
X70187165Y-118115000D01*
X70012835Y-118115000D01*
X69841855Y-118149010D01*
X69680795Y-118215723D01*
X69535845Y-118312576D01*
X69412576Y-118435845D01*
X69315723Y-118580795D01*
X69249010Y-118741855D01*
X69215000Y-118912835D01*
X67127000Y-118912835D01*
X67127000Y-114912835D01*
X69215000Y-114912835D01*
X69215000Y-115087165D01*
X69249010Y-115258145D01*
X69315723Y-115419205D01*
X69412576Y-115564155D01*
X69535845Y-115687424D01*
X69680795Y-115784277D01*
X69841855Y-115850990D01*
X70012835Y-115885000D01*
X70187165Y-115885000D01*
X70358145Y-115850990D01*
X70519205Y-115784277D01*
X70664155Y-115687424D01*
X70787424Y-115564155D01*
X70884277Y-115419205D01*
X70950990Y-115258145D01*
X70985000Y-115087165D01*
X70985000Y-114912835D01*
X70950990Y-114741855D01*
X70884277Y-114580795D01*
X70787424Y-114435845D01*
X70664155Y-114312576D01*
X70519205Y-114215723D01*
X70358145Y-114149010D01*
X70187165Y-114115000D01*
X70012835Y-114115000D01*
X69841855Y-114149010D01*
X69680795Y-114215723D01*
X69535845Y-114312576D01*
X69412576Y-114435845D01*
X69315723Y-114580795D01*
X69249010Y-114741855D01*
X69215000Y-114912835D01*
X67127000Y-114912835D01*
X67127000Y-109898061D01*
X80965000Y-109898061D01*
X80965000Y-110101939D01*
X81004774Y-110301898D01*
X81082795Y-110490256D01*
X81196063Y-110659774D01*
X81340226Y-110803937D01*
X81509744Y-110917205D01*
X81698102Y-110995226D01*
X81898061Y-111035000D01*
X82101939Y-111035000D01*
X82301898Y-110995226D01*
X82490256Y-110917205D01*
X82538454Y-110885000D01*
X83633422Y-110885000D01*
X86615000Y-113866579D01*
X86615001Y-139456521D01*
X86610719Y-139500000D01*
X86627805Y-139673490D01*
X86678412Y-139840313D01*
X86760590Y-139994059D01*
X86843468Y-140095046D01*
X86843471Y-140095049D01*
X86871184Y-140128817D01*
X86904952Y-140156530D01*
X86993465Y-140245043D01*
X87004774Y-140301898D01*
X87082795Y-140490256D01*
X87196063Y-140659774D01*
X87340226Y-140803937D01*
X87509744Y-140917205D01*
X87698102Y-140995226D01*
X87898061Y-141035000D01*
X88101939Y-141035000D01*
X88301898Y-140995226D01*
X88490256Y-140917205D01*
X88659774Y-140803937D01*
X88803937Y-140659774D01*
X88917205Y-140490256D01*
X88995226Y-140301898D01*
X89035000Y-140101939D01*
X89035000Y-139898061D01*
X88995226Y-139698102D01*
X88917205Y-139509744D01*
X88803937Y-139340226D01*
X88659774Y-139196063D01*
X88490256Y-139082795D01*
X88385000Y-139039196D01*
X88385000Y-113543465D01*
X88389281Y-113499999D01*
X88385000Y-113456533D01*
X88385000Y-113456523D01*
X88372195Y-113326510D01*
X88321589Y-113159687D01*
X88239411Y-113005941D01*
X88128817Y-112871183D01*
X88095050Y-112843471D01*
X84656534Y-109404956D01*
X84628817Y-109371183D01*
X84494059Y-109260589D01*
X84340313Y-109178411D01*
X84173490Y-109127805D01*
X84043477Y-109115000D01*
X84043469Y-109115000D01*
X84000000Y-109110719D01*
X83956531Y-109115000D01*
X82538454Y-109115000D01*
X82490256Y-109082795D01*
X82301898Y-109004774D01*
X82101939Y-108965000D01*
X81898061Y-108965000D01*
X81698102Y-109004774D01*
X81509744Y-109082795D01*
X81340226Y-109196063D01*
X81196063Y-109340226D01*
X81082795Y-109509744D01*
X81004774Y-109698102D01*
X80965000Y-109898061D01*
X67127000Y-109898061D01*
X67127000Y-80032097D01*
X79750105Y-80032097D01*
X79791069Y-80303817D01*
X79884256Y-80562326D01*
X79945975Y-80677794D01*
X80185863Y-80744531D01*
X80970395Y-79960000D01*
X80185863Y-79175469D01*
X79945975Y-79242206D01*
X79829076Y-79490892D01*
X79762939Y-79757606D01*
X79750105Y-80032097D01*
X67127000Y-80032097D01*
X67127000Y-74029872D01*
X67265000Y-74029872D01*
X67265000Y-74470128D01*
X67350890Y-74901925D01*
X67519369Y-75308669D01*
X67763962Y-75674729D01*
X68075271Y-75986038D01*
X68441331Y-76230631D01*
X68848075Y-76399110D01*
X69279872Y-76485000D01*
X69720128Y-76485000D01*
X70151925Y-76399110D01*
X70558669Y-76230631D01*
X70924729Y-75986038D01*
X71236038Y-75674729D01*
X71480631Y-75308669D01*
X71649110Y-74901925D01*
X71735000Y-74470128D01*
X71735000Y-74029872D01*
X71649110Y-73598075D01*
X71561850Y-73387409D01*
X76990000Y-73387409D01*
X76990000Y-73832591D01*
X77076851Y-74269218D01*
X77247214Y-74680511D01*
X77494544Y-75050666D01*
X77809334Y-75365456D01*
X78179489Y-75612786D01*
X78590782Y-75783149D01*
X79027409Y-75870000D01*
X79472591Y-75870000D01*
X79909218Y-75783149D01*
X80320511Y-75612786D01*
X80690666Y-75365456D01*
X81005456Y-75050666D01*
X81252786Y-74680511D01*
X81423149Y-74269218D01*
X81510000Y-73832591D01*
X81510000Y-73387409D01*
X81423149Y-72950782D01*
X81252786Y-72539489D01*
X81005456Y-72169334D01*
X80690666Y-71854544D01*
X80320511Y-71607214D01*
X79909218Y-71436851D01*
X79472591Y-71350000D01*
X79027409Y-71350000D01*
X78590782Y-71436851D01*
X78179489Y-71607214D01*
X77809334Y-71854544D01*
X77494544Y-72169334D01*
X77247214Y-72539489D01*
X77076851Y-72950782D01*
X76990000Y-73387409D01*
X71561850Y-73387409D01*
X71480631Y-73191331D01*
X71236038Y-72825271D01*
X70924729Y-72513962D01*
X70558669Y-72269369D01*
X70151925Y-72100890D01*
X69720128Y-72015000D01*
X69279872Y-72015000D01*
X68848075Y-72100890D01*
X68441331Y-72269369D01*
X68075271Y-72513962D01*
X67763962Y-72825271D01*
X67519369Y-73191331D01*
X67350890Y-73598075D01*
X67265000Y-74029872D01*
X67127000Y-74029872D01*
X67127000Y-69700000D01*
X79936928Y-69700000D01*
X79949188Y-69824482D01*
X79985498Y-69944180D01*
X80044463Y-70054494D01*
X80123815Y-70151185D01*
X80220506Y-70230537D01*
X80330820Y-70289502D01*
X80450518Y-70325812D01*
X80575000Y-70338072D01*
X80739250Y-70335000D01*
X80898000Y-70176250D01*
X80898000Y-68327000D01*
X80098750Y-68327000D01*
X79940000Y-68485750D01*
X79936928Y-69700000D01*
X67127000Y-69700000D01*
X67127000Y-66627000D01*
X79944118Y-66627000D01*
X79936928Y-66700000D01*
G37*
G04 #@! TD.AperFunction*
D19*
X84962000Y-68073000D02*
X84982000Y-68073000D01*
X84982000Y-68327000D01*
X84962000Y-68327000D01*
X84962000Y-70176250D01*
X85120750Y-70335000D01*
X85285000Y-70338072D01*
X85390071Y-70327724D01*
X85395001Y-70336948D01*
X85395000Y-78840177D01*
X85340739Y-78876433D01*
X85146433Y-79070739D01*
X84993767Y-79299220D01*
X84960000Y-79380740D01*
X84926233Y-79299220D01*
X84773567Y-79070739D01*
X84579261Y-78876433D01*
X84350780Y-78723767D01*
X84096907Y-78618609D01*
X83827396Y-78565000D01*
X83552604Y-78565000D01*
X83283093Y-78618609D01*
X83205000Y-78650956D01*
X83205000Y-70338072D01*
X84015000Y-70338072D01*
X84139482Y-70325812D01*
X84200000Y-70307454D01*
X84260518Y-70325812D01*
X84385000Y-70338072D01*
X84549250Y-70335000D01*
X84708000Y-70176250D01*
X84708000Y-68327000D01*
X84688000Y-68327000D01*
X84688000Y-68073000D01*
X84708000Y-68073000D01*
X84708000Y-68053000D01*
X84962000Y-68053000D01*
X84962000Y-68073000D01*
G04 #@! TA.AperFunction,Conductor*
D20*
G36*
X84962000Y-68073000D02*
G01*
X84982000Y-68073000D01*
X84982000Y-68327000D01*
X84962000Y-68327000D01*
X84962000Y-70176250D01*
X85120750Y-70335000D01*
X85285000Y-70338072D01*
X85390071Y-70327724D01*
X85395001Y-70336948D01*
X85395000Y-78840177D01*
X85340739Y-78876433D01*
X85146433Y-79070739D01*
X84993767Y-79299220D01*
X84960000Y-79380740D01*
X84926233Y-79299220D01*
X84773567Y-79070739D01*
X84579261Y-78876433D01*
X84350780Y-78723767D01*
X84096907Y-78618609D01*
X83827396Y-78565000D01*
X83552604Y-78565000D01*
X83283093Y-78618609D01*
X83205000Y-78650956D01*
X83205000Y-70338072D01*
X84015000Y-70338072D01*
X84139482Y-70325812D01*
X84200000Y-70307454D01*
X84260518Y-70325812D01*
X84385000Y-70338072D01*
X84549250Y-70335000D01*
X84708000Y-70176250D01*
X84708000Y-68327000D01*
X84688000Y-68327000D01*
X84688000Y-68073000D01*
X84708000Y-68073000D01*
X84708000Y-68053000D01*
X84962000Y-68053000D01*
X84962000Y-68073000D01*
G37*
G04 #@! TD.AperFunction*
M02*
