G04 #@! TF.GenerationSoftware,KiCad,Pcbnew,(5.1.7)-1*
G04 #@! TF.CreationDate,2021-06-27T15:00:08+02:00*
G04 #@! TF.ProjectId,TwomesGateway,54776f6d-6573-4476-9174-657761792e6b,rev?*
G04 #@! TF.SameCoordinates,Original*
G04 #@! TF.FileFunction,Soldermask,Top*
G04 #@! TF.FilePolarity,Negative*
%FSLAX46Y46*%
G04 Gerber Fmt 4.6, Leading zero omitted, Abs format (unit mm)*
G04 Created by KiCad (PCBNEW (5.1.7)-1) date 2021-06-27 15:00:08*
%MOMM*%
%LPD*%
G01*
G04 APERTURE LIST*
%ADD10C,0.602000*%
%ADD11C,3.302000*%
%ADD12C,3.352000*%
%ADD13C,1.622000*%
%ADD14O,1.802000X1.802000*%
%ADD15C,0.100000*%
G04 APERTURE END LIST*
G36*
G01*
X94724500Y-141674000D02*
X95275500Y-141674000D01*
G75*
G02*
X95526000Y-141924500I0J-250500D01*
G01*
X95526000Y-142425500D01*
G75*
G02*
X95275500Y-142676000I-250500J0D01*
G01*
X94724500Y-142676000D01*
G75*
G02*
X94474000Y-142425500I0J250500D01*
G01*
X94474000Y-141924500D01*
G75*
G02*
X94724500Y-141674000I250500J0D01*
G01*
G37*
G36*
G01*
X94724500Y-140124000D02*
X95275500Y-140124000D01*
G75*
G02*
X95526000Y-140374500I0J-250500D01*
G01*
X95526000Y-140875500D01*
G75*
G02*
X95275500Y-141126000I-250500J0D01*
G01*
X94724500Y-141126000D01*
G75*
G02*
X94474000Y-140875500I0J250500D01*
G01*
X94474000Y-140374500D01*
G75*
G02*
X94724500Y-140124000I250500J0D01*
G01*
G37*
G36*
G01*
X92718250Y-140124000D02*
X93281750Y-140124000D01*
G75*
G02*
X93526000Y-140368250I0J-244250D01*
G01*
X93526000Y-140856750D01*
G75*
G02*
X93281750Y-141101000I-244250J0D01*
G01*
X92718250Y-141101000D01*
G75*
G02*
X92474000Y-140856750I0J244250D01*
G01*
X92474000Y-140368250D01*
G75*
G02*
X92718250Y-140124000I244250J0D01*
G01*
G37*
G36*
G01*
X92718250Y-141699000D02*
X93281750Y-141699000D01*
G75*
G02*
X93526000Y-141943250I0J-244250D01*
G01*
X93526000Y-142431750D01*
G75*
G02*
X93281750Y-142676000I-244250J0D01*
G01*
X92718250Y-142676000D01*
G75*
G02*
X92474000Y-142431750I0J244250D01*
G01*
X92474000Y-141943250D01*
G75*
G02*
X92718250Y-141699000I244250J0D01*
G01*
G37*
G36*
G01*
X84449000Y-94540800D02*
X84449000Y-92459200D01*
G75*
G02*
X84709200Y-92199000I260200J0D01*
G01*
X88690800Y-92199000D01*
G75*
G02*
X88951000Y-92459200I0J-260200D01*
G01*
X88951000Y-94540800D01*
G75*
G02*
X88690800Y-94801000I-260200J0D01*
G01*
X84709200Y-94801000D01*
G75*
G02*
X84449000Y-94540800I0J260200D01*
G01*
G37*
G36*
G01*
X77049000Y-94540800D02*
X77049000Y-92459200D01*
G75*
G02*
X77309200Y-92199000I260200J0D01*
G01*
X81290800Y-92199000D01*
G75*
G02*
X81551000Y-92459200I0J-260200D01*
G01*
X81551000Y-94540800D01*
G75*
G02*
X81290800Y-94801000I-260200J0D01*
G01*
X77309200Y-94801000D01*
G75*
G02*
X77049000Y-94540800I0J260200D01*
G01*
G37*
G36*
G01*
X68100000Y-103699000D02*
X69900000Y-103699000D01*
G75*
G02*
X69951000Y-103750000I0J-51000D01*
G01*
X69951000Y-106250000D01*
G75*
G02*
X69900000Y-106301000I-51000J0D01*
G01*
X68100000Y-106301000D01*
G75*
G02*
X68049000Y-106250000I0J51000D01*
G01*
X68049000Y-103750000D01*
G75*
G02*
X68100000Y-103699000I51000J0D01*
G01*
G37*
G36*
G01*
X68100000Y-99699000D02*
X69900000Y-99699000D01*
G75*
G02*
X69951000Y-99750000I0J-51000D01*
G01*
X69951000Y-102250000D01*
G75*
G02*
X69900000Y-102301000I-51000J0D01*
G01*
X68100000Y-102301000D01*
G75*
G02*
X68049000Y-102250000I0J51000D01*
G01*
X68049000Y-99750000D01*
G75*
G02*
X68100000Y-99699000I51000J0D01*
G01*
G37*
G36*
G01*
X69850000Y-119336500D02*
X70750000Y-119336500D01*
G75*
G02*
X70801000Y-119387500I0J-51000D01*
G01*
X70801000Y-121012500D01*
G75*
G02*
X70750000Y-121063500I-51000J0D01*
G01*
X69850000Y-121063500D01*
G75*
G02*
X69799000Y-121012500I0J51000D01*
G01*
X69799000Y-119387500D01*
G75*
G02*
X69850000Y-119336500I51000J0D01*
G01*
G37*
D10*
X70100000Y-119000000D03*
X70100000Y-115000000D03*
G36*
G01*
X69845000Y-118059000D02*
X71695000Y-118059000D01*
G75*
G02*
X71746000Y-118110000I0J-51000D01*
G01*
X71746000Y-118510000D01*
G75*
G02*
X71695000Y-118561000I-51000J0D01*
G01*
X69845000Y-118561000D01*
G75*
G02*
X69794000Y-118510000I0J51000D01*
G01*
X69794000Y-118110000D01*
G75*
G02*
X69845000Y-118059000I51000J0D01*
G01*
G37*
G36*
G01*
X69845000Y-117409000D02*
X71695000Y-117409000D01*
G75*
G02*
X71746000Y-117460000I0J-51000D01*
G01*
X71746000Y-117860000D01*
G75*
G02*
X71695000Y-117911000I-51000J0D01*
G01*
X69845000Y-117911000D01*
G75*
G02*
X69794000Y-117860000I0J51000D01*
G01*
X69794000Y-117460000D01*
G75*
G02*
X69845000Y-117409000I51000J0D01*
G01*
G37*
G36*
G01*
X69845000Y-116759000D02*
X71695000Y-116759000D01*
G75*
G02*
X71746000Y-116810000I0J-51000D01*
G01*
X71746000Y-117210000D01*
G75*
G02*
X71695000Y-117261000I-51000J0D01*
G01*
X69845000Y-117261000D01*
G75*
G02*
X69794000Y-117210000I0J51000D01*
G01*
X69794000Y-116810000D01*
G75*
G02*
X69845000Y-116759000I51000J0D01*
G01*
G37*
G36*
G01*
X69850000Y-112936500D02*
X70750000Y-112936500D01*
G75*
G02*
X70801000Y-112987500I0J-51000D01*
G01*
X70801000Y-114612500D01*
G75*
G02*
X70750000Y-114663500I-51000J0D01*
G01*
X69850000Y-114663500D01*
G75*
G02*
X69799000Y-114612500I0J51000D01*
G01*
X69799000Y-112987500D01*
G75*
G02*
X69850000Y-112936500I51000J0D01*
G01*
G37*
G36*
G01*
X69845000Y-116109000D02*
X71695000Y-116109000D01*
G75*
G02*
X71746000Y-116160000I0J-51000D01*
G01*
X71746000Y-116560000D01*
G75*
G02*
X71695000Y-116611000I-51000J0D01*
G01*
X69845000Y-116611000D01*
G75*
G02*
X69794000Y-116560000I0J51000D01*
G01*
X69794000Y-116160000D01*
G75*
G02*
X69845000Y-116109000I51000J0D01*
G01*
G37*
G36*
G01*
X69845000Y-115459000D02*
X71695000Y-115459000D01*
G75*
G02*
X71746000Y-115510000I0J-51000D01*
G01*
X71746000Y-115910000D01*
G75*
G02*
X71695000Y-115961000I-51000J0D01*
G01*
X69845000Y-115961000D01*
G75*
G02*
X69794000Y-115910000I0J51000D01*
G01*
X69794000Y-115510000D01*
G75*
G02*
X69845000Y-115459000I51000J0D01*
G01*
G37*
G36*
G01*
X67300000Y-119341500D02*
X68600000Y-119341500D01*
G75*
G02*
X68651000Y-119392500I0J-51000D01*
G01*
X68651000Y-121107500D01*
G75*
G02*
X68600000Y-121158500I-51000J0D01*
G01*
X67300000Y-121158500D01*
G75*
G02*
X67249000Y-121107500I0J51000D01*
G01*
X67249000Y-119392500D01*
G75*
G02*
X67300000Y-119341500I51000J0D01*
G01*
G37*
G36*
G01*
X67300000Y-112841500D02*
X68600000Y-112841500D01*
G75*
G02*
X68651000Y-112892500I0J-51000D01*
G01*
X68651000Y-114607500D01*
G75*
G02*
X68600000Y-114658500I-51000J0D01*
G01*
X67300000Y-114658500D01*
G75*
G02*
X67249000Y-114607500I0J51000D01*
G01*
X67249000Y-112892500D01*
G75*
G02*
X67300000Y-112841500I51000J0D01*
G01*
G37*
G36*
G01*
X73868250Y-81649000D02*
X74431750Y-81649000D01*
G75*
G02*
X74676000Y-81893250I0J-244250D01*
G01*
X74676000Y-82381750D01*
G75*
G02*
X74431750Y-82626000I-244250J0D01*
G01*
X73868250Y-82626000D01*
G75*
G02*
X73624000Y-82381750I0J244250D01*
G01*
X73624000Y-81893250D01*
G75*
G02*
X73868250Y-81649000I244250J0D01*
G01*
G37*
G36*
G01*
X73868250Y-80074000D02*
X74431750Y-80074000D01*
G75*
G02*
X74676000Y-80318250I0J-244250D01*
G01*
X74676000Y-80806750D01*
G75*
G02*
X74431750Y-81051000I-244250J0D01*
G01*
X73868250Y-81051000D01*
G75*
G02*
X73624000Y-80806750I0J244250D01*
G01*
X73624000Y-80318250D01*
G75*
G02*
X73868250Y-80074000I244250J0D01*
G01*
G37*
G36*
G01*
X74431750Y-85051000D02*
X73868250Y-85051000D01*
G75*
G02*
X73624000Y-84806750I0J244250D01*
G01*
X73624000Y-84318250D01*
G75*
G02*
X73868250Y-84074000I244250J0D01*
G01*
X74431750Y-84074000D01*
G75*
G02*
X74676000Y-84318250I0J-244250D01*
G01*
X74676000Y-84806750D01*
G75*
G02*
X74431750Y-85051000I-244250J0D01*
G01*
G37*
G36*
G01*
X74431750Y-86626000D02*
X73868250Y-86626000D01*
G75*
G02*
X73624000Y-86381750I0J244250D01*
G01*
X73624000Y-85893250D01*
G75*
G02*
X73868250Y-85649000I244250J0D01*
G01*
X74431750Y-85649000D01*
G75*
G02*
X74676000Y-85893250I0J-244250D01*
G01*
X74676000Y-86381750D01*
G75*
G02*
X74431750Y-86626000I-244250J0D01*
G01*
G37*
G36*
G01*
X96401000Y-87100000D02*
X96401000Y-87900000D01*
G75*
G02*
X96350000Y-87951000I-51000J0D01*
G01*
X95450000Y-87951000D01*
G75*
G02*
X95399000Y-87900000I0J51000D01*
G01*
X95399000Y-87100000D01*
G75*
G02*
X95450000Y-87049000I51000J0D01*
G01*
X96350000Y-87049000D01*
G75*
G02*
X96401000Y-87100000I0J-51000D01*
G01*
G37*
G36*
G01*
X98401000Y-86150000D02*
X98401000Y-86950000D01*
G75*
G02*
X98350000Y-87001000I-51000J0D01*
G01*
X97450000Y-87001000D01*
G75*
G02*
X97399000Y-86950000I0J51000D01*
G01*
X97399000Y-86150000D01*
G75*
G02*
X97450000Y-86099000I51000J0D01*
G01*
X98350000Y-86099000D01*
G75*
G02*
X98401000Y-86150000I0J-51000D01*
G01*
G37*
G36*
G01*
X98401000Y-88050000D02*
X98401000Y-88850000D01*
G75*
G02*
X98350000Y-88901000I-51000J0D01*
G01*
X97450000Y-88901000D01*
G75*
G02*
X97399000Y-88850000I0J51000D01*
G01*
X97399000Y-88050000D01*
G75*
G02*
X97450000Y-87999000I51000J0D01*
G01*
X98350000Y-87999000D01*
G75*
G02*
X98401000Y-88050000I0J-51000D01*
G01*
G37*
G36*
G01*
X97499000Y-83700000D02*
X97499000Y-82900000D01*
G75*
G02*
X97550000Y-82849000I51000J0D01*
G01*
X98450000Y-82849000D01*
G75*
G02*
X98501000Y-82900000I0J-51000D01*
G01*
X98501000Y-83700000D01*
G75*
G02*
X98450000Y-83751000I-51000J0D01*
G01*
X97550000Y-83751000D01*
G75*
G02*
X97499000Y-83700000I0J51000D01*
G01*
G37*
G36*
G01*
X95499000Y-84650000D02*
X95499000Y-83850000D01*
G75*
G02*
X95550000Y-83799000I51000J0D01*
G01*
X96450000Y-83799000D01*
G75*
G02*
X96501000Y-83850000I0J-51000D01*
G01*
X96501000Y-84650000D01*
G75*
G02*
X96450000Y-84701000I-51000J0D01*
G01*
X95550000Y-84701000D01*
G75*
G02*
X95499000Y-84650000I0J51000D01*
G01*
G37*
G36*
G01*
X95499000Y-82750000D02*
X95499000Y-81950000D01*
G75*
G02*
X95550000Y-81899000I51000J0D01*
G01*
X96450000Y-81899000D01*
G75*
G02*
X96501000Y-81950000I0J-51000D01*
G01*
X96501000Y-82750000D01*
G75*
G02*
X96450000Y-82801000I-51000J0D01*
G01*
X95550000Y-82801000D01*
G75*
G02*
X95499000Y-82750000I0J51000D01*
G01*
G37*
G36*
G01*
X77001000Y-111518250D02*
X77001000Y-112081750D01*
G75*
G02*
X76756750Y-112326000I-244250J0D01*
G01*
X76268250Y-112326000D01*
G75*
G02*
X76024000Y-112081750I0J244250D01*
G01*
X76024000Y-111518250D01*
G75*
G02*
X76268250Y-111274000I244250J0D01*
G01*
X76756750Y-111274000D01*
G75*
G02*
X77001000Y-111518250I0J-244250D01*
G01*
G37*
G36*
G01*
X78576000Y-111518250D02*
X78576000Y-112081750D01*
G75*
G02*
X78331750Y-112326000I-244250J0D01*
G01*
X77843250Y-112326000D01*
G75*
G02*
X77599000Y-112081750I0J244250D01*
G01*
X77599000Y-111518250D01*
G75*
G02*
X77843250Y-111274000I244250J0D01*
G01*
X78331750Y-111274000D01*
G75*
G02*
X78576000Y-111518250I0J-244250D01*
G01*
G37*
G36*
G01*
X69500000Y-90599000D02*
X70300000Y-90599000D01*
G75*
G02*
X70351000Y-90650000I0J-51000D01*
G01*
X70351000Y-91550000D01*
G75*
G02*
X70300000Y-91601000I-51000J0D01*
G01*
X69500000Y-91601000D01*
G75*
G02*
X69449000Y-91550000I0J51000D01*
G01*
X69449000Y-90650000D01*
G75*
G02*
X69500000Y-90599000I51000J0D01*
G01*
G37*
G36*
G01*
X68550000Y-88599000D02*
X69350000Y-88599000D01*
G75*
G02*
X69401000Y-88650000I0J-51000D01*
G01*
X69401000Y-89550000D01*
G75*
G02*
X69350000Y-89601000I-51000J0D01*
G01*
X68550000Y-89601000D01*
G75*
G02*
X68499000Y-89550000I0J51000D01*
G01*
X68499000Y-88650000D01*
G75*
G02*
X68550000Y-88599000I51000J0D01*
G01*
G37*
G36*
G01*
X70450000Y-88599000D02*
X71250000Y-88599000D01*
G75*
G02*
X71301000Y-88650000I0J-51000D01*
G01*
X71301000Y-89550000D01*
G75*
G02*
X71250000Y-89601000I-51000J0D01*
G01*
X70450000Y-89601000D01*
G75*
G02*
X70399000Y-89550000I0J51000D01*
G01*
X70399000Y-88650000D01*
G75*
G02*
X70450000Y-88599000I51000J0D01*
G01*
G37*
G36*
G01*
X69750000Y-82099000D02*
X70550000Y-82099000D01*
G75*
G02*
X70601000Y-82150000I0J-51000D01*
G01*
X70601000Y-83050000D01*
G75*
G02*
X70550000Y-83101000I-51000J0D01*
G01*
X69750000Y-83101000D01*
G75*
G02*
X69699000Y-83050000I0J51000D01*
G01*
X69699000Y-82150000D01*
G75*
G02*
X69750000Y-82099000I51000J0D01*
G01*
G37*
G36*
G01*
X68800000Y-80099000D02*
X69600000Y-80099000D01*
G75*
G02*
X69651000Y-80150000I0J-51000D01*
G01*
X69651000Y-81050000D01*
G75*
G02*
X69600000Y-81101000I-51000J0D01*
G01*
X68800000Y-81101000D01*
G75*
G02*
X68749000Y-81050000I0J51000D01*
G01*
X68749000Y-80150000D01*
G75*
G02*
X68800000Y-80099000I51000J0D01*
G01*
G37*
G36*
G01*
X70700000Y-80099000D02*
X71500000Y-80099000D01*
G75*
G02*
X71551000Y-80150000I0J-51000D01*
G01*
X71551000Y-81050000D01*
G75*
G02*
X71500000Y-81101000I-51000J0D01*
G01*
X70700000Y-81101000D01*
G75*
G02*
X70649000Y-81050000I0J51000D01*
G01*
X70649000Y-80150000D01*
G75*
G02*
X70700000Y-80099000I51000J0D01*
G01*
G37*
D11*
X69500000Y-74250000D03*
X97500000Y-74250000D03*
G36*
G01*
X88311000Y-81739999D02*
X88311000Y-83260001D01*
G75*
G02*
X88260001Y-83311000I-50999J0D01*
G01*
X86739999Y-83311000D01*
G75*
G02*
X86689000Y-83260001I0J50999D01*
G01*
X86689000Y-81739999D01*
G75*
G02*
X86739999Y-81689000I50999J0D01*
G01*
X88260001Y-81689000D01*
G75*
G02*
X88311000Y-81739999I0J-50999D01*
G01*
G37*
D12*
X89410000Y-73610000D03*
D13*
X86230000Y-79960000D03*
X84960000Y-82500000D03*
X83690000Y-79960000D03*
X82420000Y-82500000D03*
X81150000Y-79960000D03*
D12*
X79250000Y-73610000D03*
G36*
G01*
X70400000Y-136149000D02*
X71600000Y-136149000D01*
G75*
G02*
X71651000Y-136200000I0J-51000D01*
G01*
X71651000Y-137100000D01*
G75*
G02*
X71600000Y-137151000I-51000J0D01*
G01*
X70400000Y-137151000D01*
G75*
G02*
X70349000Y-137100000I0J51000D01*
G01*
X70349000Y-136200000D01*
G75*
G02*
X70400000Y-136149000I51000J0D01*
G01*
G37*
G36*
G01*
X70400000Y-132849000D02*
X71600000Y-132849000D01*
G75*
G02*
X71651000Y-132900000I0J-51000D01*
G01*
X71651000Y-133800000D01*
G75*
G02*
X71600000Y-133851000I-51000J0D01*
G01*
X70400000Y-133851000D01*
G75*
G02*
X70349000Y-133800000I0J51000D01*
G01*
X70349000Y-132900000D01*
G75*
G02*
X70400000Y-132849000I51000J0D01*
G01*
G37*
G36*
G01*
X74551000Y-141805000D02*
X74551000Y-142705000D01*
G75*
G02*
X74500000Y-142756000I-51000J0D01*
G01*
X72500000Y-142756000D01*
G75*
G02*
X72449000Y-142705000I0J51000D01*
G01*
X72449000Y-141805000D01*
G75*
G02*
X72500000Y-141754000I51000J0D01*
G01*
X74500000Y-141754000D01*
G75*
G02*
X74551000Y-141805000I0J-51000D01*
G01*
G37*
G36*
G01*
X74551000Y-140535000D02*
X74551000Y-141435000D01*
G75*
G02*
X74500000Y-141486000I-51000J0D01*
G01*
X72500000Y-141486000D01*
G75*
G02*
X72449000Y-141435000I0J51000D01*
G01*
X72449000Y-140535000D01*
G75*
G02*
X72500000Y-140484000I51000J0D01*
G01*
X74500000Y-140484000D01*
G75*
G02*
X74551000Y-140535000I0J-51000D01*
G01*
G37*
G36*
G01*
X74551000Y-139265000D02*
X74551000Y-140165000D01*
G75*
G02*
X74500000Y-140216000I-51000J0D01*
G01*
X72500000Y-140216000D01*
G75*
G02*
X72449000Y-140165000I0J51000D01*
G01*
X72449000Y-139265000D01*
G75*
G02*
X72500000Y-139214000I51000J0D01*
G01*
X74500000Y-139214000D01*
G75*
G02*
X74551000Y-139265000I0J-51000D01*
G01*
G37*
G36*
G01*
X74551000Y-137995000D02*
X74551000Y-138895000D01*
G75*
G02*
X74500000Y-138946000I-51000J0D01*
G01*
X72500000Y-138946000D01*
G75*
G02*
X72449000Y-138895000I0J51000D01*
G01*
X72449000Y-137995000D01*
G75*
G02*
X72500000Y-137944000I51000J0D01*
G01*
X74500000Y-137944000D01*
G75*
G02*
X74551000Y-137995000I0J-51000D01*
G01*
G37*
G36*
G01*
X74551000Y-136725000D02*
X74551000Y-137625000D01*
G75*
G02*
X74500000Y-137676000I-51000J0D01*
G01*
X72500000Y-137676000D01*
G75*
G02*
X72449000Y-137625000I0J51000D01*
G01*
X72449000Y-136725000D01*
G75*
G02*
X72500000Y-136674000I51000J0D01*
G01*
X74500000Y-136674000D01*
G75*
G02*
X74551000Y-136725000I0J-51000D01*
G01*
G37*
G36*
G01*
X74551000Y-135455000D02*
X74551000Y-136355000D01*
G75*
G02*
X74500000Y-136406000I-51000J0D01*
G01*
X72500000Y-136406000D01*
G75*
G02*
X72449000Y-136355000I0J51000D01*
G01*
X72449000Y-135455000D01*
G75*
G02*
X72500000Y-135404000I51000J0D01*
G01*
X74500000Y-135404000D01*
G75*
G02*
X74551000Y-135455000I0J-51000D01*
G01*
G37*
G36*
G01*
X74551000Y-134185000D02*
X74551000Y-135085000D01*
G75*
G02*
X74500000Y-135136000I-51000J0D01*
G01*
X72500000Y-135136000D01*
G75*
G02*
X72449000Y-135085000I0J51000D01*
G01*
X72449000Y-134185000D01*
G75*
G02*
X72500000Y-134134000I51000J0D01*
G01*
X74500000Y-134134000D01*
G75*
G02*
X74551000Y-134185000I0J-51000D01*
G01*
G37*
G36*
G01*
X74551000Y-132915000D02*
X74551000Y-133815000D01*
G75*
G02*
X74500000Y-133866000I-51000J0D01*
G01*
X72500000Y-133866000D01*
G75*
G02*
X72449000Y-133815000I0J51000D01*
G01*
X72449000Y-132915000D01*
G75*
G02*
X72500000Y-132864000I51000J0D01*
G01*
X74500000Y-132864000D01*
G75*
G02*
X74551000Y-132915000I0J-51000D01*
G01*
G37*
G36*
G01*
X74551000Y-131645000D02*
X74551000Y-132545000D01*
G75*
G02*
X74500000Y-132596000I-51000J0D01*
G01*
X72500000Y-132596000D01*
G75*
G02*
X72449000Y-132545000I0J51000D01*
G01*
X72449000Y-131645000D01*
G75*
G02*
X72500000Y-131594000I51000J0D01*
G01*
X74500000Y-131594000D01*
G75*
G02*
X74551000Y-131645000I0J-51000D01*
G01*
G37*
G36*
G01*
X74551000Y-130375000D02*
X74551000Y-131275000D01*
G75*
G02*
X74500000Y-131326000I-51000J0D01*
G01*
X72500000Y-131326000D01*
G75*
G02*
X72449000Y-131275000I0J51000D01*
G01*
X72449000Y-130375000D01*
G75*
G02*
X72500000Y-130324000I51000J0D01*
G01*
X74500000Y-130324000D01*
G75*
G02*
X74551000Y-130375000I0J-51000D01*
G01*
G37*
G36*
G01*
X74551000Y-129105000D02*
X74551000Y-130005000D01*
G75*
G02*
X74500000Y-130056000I-51000J0D01*
G01*
X72500000Y-130056000D01*
G75*
G02*
X72449000Y-130005000I0J51000D01*
G01*
X72449000Y-129105000D01*
G75*
G02*
X72500000Y-129054000I51000J0D01*
G01*
X74500000Y-129054000D01*
G75*
G02*
X74551000Y-129105000I0J-51000D01*
G01*
G37*
G36*
G01*
X74551000Y-127835000D02*
X74551000Y-128735000D01*
G75*
G02*
X74500000Y-128786000I-51000J0D01*
G01*
X72500000Y-128786000D01*
G75*
G02*
X72449000Y-128735000I0J51000D01*
G01*
X72449000Y-127835000D01*
G75*
G02*
X72500000Y-127784000I51000J0D01*
G01*
X74500000Y-127784000D01*
G75*
G02*
X74551000Y-127835000I0J-51000D01*
G01*
G37*
G36*
G01*
X74551000Y-126565000D02*
X74551000Y-127465000D01*
G75*
G02*
X74500000Y-127516000I-51000J0D01*
G01*
X72500000Y-127516000D01*
G75*
G02*
X72449000Y-127465000I0J51000D01*
G01*
X72449000Y-126565000D01*
G75*
G02*
X72500000Y-126514000I51000J0D01*
G01*
X74500000Y-126514000D01*
G75*
G02*
X74551000Y-126565000I0J-51000D01*
G01*
G37*
G36*
G01*
X74551000Y-125295000D02*
X74551000Y-126195000D01*
G75*
G02*
X74500000Y-126246000I-51000J0D01*
G01*
X72500000Y-126246000D01*
G75*
G02*
X72449000Y-126195000I0J51000D01*
G01*
X72449000Y-125295000D01*
G75*
G02*
X72500000Y-125244000I51000J0D01*
G01*
X74500000Y-125244000D01*
G75*
G02*
X74551000Y-125295000I0J-51000D01*
G01*
G37*
G36*
G01*
X75835000Y-123694000D02*
X76735000Y-123694000D01*
G75*
G02*
X76786000Y-123745000I0J-51000D01*
G01*
X76786000Y-125745000D01*
G75*
G02*
X76735000Y-125796000I-51000J0D01*
G01*
X75835000Y-125796000D01*
G75*
G02*
X75784000Y-125745000I0J51000D01*
G01*
X75784000Y-123745000D01*
G75*
G02*
X75835000Y-123694000I51000J0D01*
G01*
G37*
G36*
G01*
X77105000Y-123694000D02*
X78005000Y-123694000D01*
G75*
G02*
X78056000Y-123745000I0J-51000D01*
G01*
X78056000Y-125745000D01*
G75*
G02*
X78005000Y-125796000I-51000J0D01*
G01*
X77105000Y-125796000D01*
G75*
G02*
X77054000Y-125745000I0J51000D01*
G01*
X77054000Y-123745000D01*
G75*
G02*
X77105000Y-123694000I51000J0D01*
G01*
G37*
G36*
G01*
X78375000Y-123694000D02*
X79275000Y-123694000D01*
G75*
G02*
X79326000Y-123745000I0J-51000D01*
G01*
X79326000Y-125745000D01*
G75*
G02*
X79275000Y-125796000I-51000J0D01*
G01*
X78375000Y-125796000D01*
G75*
G02*
X78324000Y-125745000I0J51000D01*
G01*
X78324000Y-123745000D01*
G75*
G02*
X78375000Y-123694000I51000J0D01*
G01*
G37*
G36*
G01*
X79645000Y-123694000D02*
X80545000Y-123694000D01*
G75*
G02*
X80596000Y-123745000I0J-51000D01*
G01*
X80596000Y-125745000D01*
G75*
G02*
X80545000Y-125796000I-51000J0D01*
G01*
X79645000Y-125796000D01*
G75*
G02*
X79594000Y-125745000I0J51000D01*
G01*
X79594000Y-123745000D01*
G75*
G02*
X79645000Y-123694000I51000J0D01*
G01*
G37*
G36*
G01*
X80915000Y-123694000D02*
X81815000Y-123694000D01*
G75*
G02*
X81866000Y-123745000I0J-51000D01*
G01*
X81866000Y-125745000D01*
G75*
G02*
X81815000Y-125796000I-51000J0D01*
G01*
X80915000Y-125796000D01*
G75*
G02*
X80864000Y-125745000I0J51000D01*
G01*
X80864000Y-123745000D01*
G75*
G02*
X80915000Y-123694000I51000J0D01*
G01*
G37*
G36*
G01*
X82185000Y-123694000D02*
X83085000Y-123694000D01*
G75*
G02*
X83136000Y-123745000I0J-51000D01*
G01*
X83136000Y-125745000D01*
G75*
G02*
X83085000Y-125796000I-51000J0D01*
G01*
X82185000Y-125796000D01*
G75*
G02*
X82134000Y-125745000I0J51000D01*
G01*
X82134000Y-123745000D01*
G75*
G02*
X82185000Y-123694000I51000J0D01*
G01*
G37*
G36*
G01*
X83455000Y-123694000D02*
X84355000Y-123694000D01*
G75*
G02*
X84406000Y-123745000I0J-51000D01*
G01*
X84406000Y-125745000D01*
G75*
G02*
X84355000Y-125796000I-51000J0D01*
G01*
X83455000Y-125796000D01*
G75*
G02*
X83404000Y-125745000I0J51000D01*
G01*
X83404000Y-123745000D01*
G75*
G02*
X83455000Y-123694000I51000J0D01*
G01*
G37*
G36*
G01*
X84725000Y-123694000D02*
X85625000Y-123694000D01*
G75*
G02*
X85676000Y-123745000I0J-51000D01*
G01*
X85676000Y-125745000D01*
G75*
G02*
X85625000Y-125796000I-51000J0D01*
G01*
X84725000Y-125796000D01*
G75*
G02*
X84674000Y-125745000I0J51000D01*
G01*
X84674000Y-123745000D01*
G75*
G02*
X84725000Y-123694000I51000J0D01*
G01*
G37*
G36*
G01*
X85995000Y-123694000D02*
X86895000Y-123694000D01*
G75*
G02*
X86946000Y-123745000I0J-51000D01*
G01*
X86946000Y-125745000D01*
G75*
G02*
X86895000Y-125796000I-51000J0D01*
G01*
X85995000Y-125796000D01*
G75*
G02*
X85944000Y-125745000I0J51000D01*
G01*
X85944000Y-123745000D01*
G75*
G02*
X85995000Y-123694000I51000J0D01*
G01*
G37*
G36*
G01*
X87265000Y-123694000D02*
X88165000Y-123694000D01*
G75*
G02*
X88216000Y-123745000I0J-51000D01*
G01*
X88216000Y-125745000D01*
G75*
G02*
X88165000Y-125796000I-51000J0D01*
G01*
X87265000Y-125796000D01*
G75*
G02*
X87214000Y-125745000I0J51000D01*
G01*
X87214000Y-123745000D01*
G75*
G02*
X87265000Y-123694000I51000J0D01*
G01*
G37*
G36*
G01*
X91551000Y-125295000D02*
X91551000Y-126195000D01*
G75*
G02*
X91500000Y-126246000I-51000J0D01*
G01*
X89500000Y-126246000D01*
G75*
G02*
X89449000Y-126195000I0J51000D01*
G01*
X89449000Y-125295000D01*
G75*
G02*
X89500000Y-125244000I51000J0D01*
G01*
X91500000Y-125244000D01*
G75*
G02*
X91551000Y-125295000I0J-51000D01*
G01*
G37*
G36*
G01*
X91551000Y-126565000D02*
X91551000Y-127465000D01*
G75*
G02*
X91500000Y-127516000I-51000J0D01*
G01*
X89500000Y-127516000D01*
G75*
G02*
X89449000Y-127465000I0J51000D01*
G01*
X89449000Y-126565000D01*
G75*
G02*
X89500000Y-126514000I51000J0D01*
G01*
X91500000Y-126514000D01*
G75*
G02*
X91551000Y-126565000I0J-51000D01*
G01*
G37*
G36*
G01*
X91551000Y-127835000D02*
X91551000Y-128735000D01*
G75*
G02*
X91500000Y-128786000I-51000J0D01*
G01*
X89500000Y-128786000D01*
G75*
G02*
X89449000Y-128735000I0J51000D01*
G01*
X89449000Y-127835000D01*
G75*
G02*
X89500000Y-127784000I51000J0D01*
G01*
X91500000Y-127784000D01*
G75*
G02*
X91551000Y-127835000I0J-51000D01*
G01*
G37*
G36*
G01*
X91551000Y-129105000D02*
X91551000Y-130005000D01*
G75*
G02*
X91500000Y-130056000I-51000J0D01*
G01*
X89500000Y-130056000D01*
G75*
G02*
X89449000Y-130005000I0J51000D01*
G01*
X89449000Y-129105000D01*
G75*
G02*
X89500000Y-129054000I51000J0D01*
G01*
X91500000Y-129054000D01*
G75*
G02*
X91551000Y-129105000I0J-51000D01*
G01*
G37*
G36*
G01*
X91551000Y-130375000D02*
X91551000Y-131275000D01*
G75*
G02*
X91500000Y-131326000I-51000J0D01*
G01*
X89500000Y-131326000D01*
G75*
G02*
X89449000Y-131275000I0J51000D01*
G01*
X89449000Y-130375000D01*
G75*
G02*
X89500000Y-130324000I51000J0D01*
G01*
X91500000Y-130324000D01*
G75*
G02*
X91551000Y-130375000I0J-51000D01*
G01*
G37*
G36*
G01*
X91551000Y-131645000D02*
X91551000Y-132545000D01*
G75*
G02*
X91500000Y-132596000I-51000J0D01*
G01*
X89500000Y-132596000D01*
G75*
G02*
X89449000Y-132545000I0J51000D01*
G01*
X89449000Y-131645000D01*
G75*
G02*
X89500000Y-131594000I51000J0D01*
G01*
X91500000Y-131594000D01*
G75*
G02*
X91551000Y-131645000I0J-51000D01*
G01*
G37*
G36*
G01*
X91551000Y-132915000D02*
X91551000Y-133815000D01*
G75*
G02*
X91500000Y-133866000I-51000J0D01*
G01*
X89500000Y-133866000D01*
G75*
G02*
X89449000Y-133815000I0J51000D01*
G01*
X89449000Y-132915000D01*
G75*
G02*
X89500000Y-132864000I51000J0D01*
G01*
X91500000Y-132864000D01*
G75*
G02*
X91551000Y-132915000I0J-51000D01*
G01*
G37*
G36*
G01*
X91551000Y-134185000D02*
X91551000Y-135085000D01*
G75*
G02*
X91500000Y-135136000I-51000J0D01*
G01*
X89500000Y-135136000D01*
G75*
G02*
X89449000Y-135085000I0J51000D01*
G01*
X89449000Y-134185000D01*
G75*
G02*
X89500000Y-134134000I51000J0D01*
G01*
X91500000Y-134134000D01*
G75*
G02*
X91551000Y-134185000I0J-51000D01*
G01*
G37*
G36*
G01*
X91551000Y-135455000D02*
X91551000Y-136355000D01*
G75*
G02*
X91500000Y-136406000I-51000J0D01*
G01*
X89500000Y-136406000D01*
G75*
G02*
X89449000Y-136355000I0J51000D01*
G01*
X89449000Y-135455000D01*
G75*
G02*
X89500000Y-135404000I51000J0D01*
G01*
X91500000Y-135404000D01*
G75*
G02*
X91551000Y-135455000I0J-51000D01*
G01*
G37*
G36*
G01*
X91551000Y-136725000D02*
X91551000Y-137625000D01*
G75*
G02*
X91500000Y-137676000I-51000J0D01*
G01*
X89500000Y-137676000D01*
G75*
G02*
X89449000Y-137625000I0J51000D01*
G01*
X89449000Y-136725000D01*
G75*
G02*
X89500000Y-136674000I51000J0D01*
G01*
X91500000Y-136674000D01*
G75*
G02*
X91551000Y-136725000I0J-51000D01*
G01*
G37*
G36*
G01*
X91551000Y-137995000D02*
X91551000Y-138895000D01*
G75*
G02*
X91500000Y-138946000I-51000J0D01*
G01*
X89500000Y-138946000D01*
G75*
G02*
X89449000Y-138895000I0J51000D01*
G01*
X89449000Y-137995000D01*
G75*
G02*
X89500000Y-137944000I51000J0D01*
G01*
X91500000Y-137944000D01*
G75*
G02*
X91551000Y-137995000I0J-51000D01*
G01*
G37*
G36*
G01*
X91551000Y-139265000D02*
X91551000Y-140165000D01*
G75*
G02*
X91500000Y-140216000I-51000J0D01*
G01*
X89500000Y-140216000D01*
G75*
G02*
X89449000Y-140165000I0J51000D01*
G01*
X89449000Y-139265000D01*
G75*
G02*
X89500000Y-139214000I51000J0D01*
G01*
X91500000Y-139214000D01*
G75*
G02*
X91551000Y-139265000I0J-51000D01*
G01*
G37*
G36*
G01*
X91551000Y-140535000D02*
X91551000Y-141435000D01*
G75*
G02*
X91500000Y-141486000I-51000J0D01*
G01*
X89500000Y-141486000D01*
G75*
G02*
X89449000Y-141435000I0J51000D01*
G01*
X89449000Y-140535000D01*
G75*
G02*
X89500000Y-140484000I51000J0D01*
G01*
X91500000Y-140484000D01*
G75*
G02*
X91551000Y-140535000I0J-51000D01*
G01*
G37*
G36*
G01*
X91551000Y-141805000D02*
X91551000Y-142705000D01*
G75*
G02*
X91500000Y-142756000I-51000J0D01*
G01*
X89500000Y-142756000D01*
G75*
G02*
X89449000Y-142705000I0J51000D01*
G01*
X89449000Y-141805000D01*
G75*
G02*
X89500000Y-141754000I51000J0D01*
G01*
X91500000Y-141754000D01*
G75*
G02*
X91551000Y-141805000I0J-51000D01*
G01*
G37*
G36*
G01*
X85551000Y-132255000D02*
X85551000Y-137255000D01*
G75*
G02*
X85500000Y-137306000I-51000J0D01*
G01*
X80500000Y-137306000D01*
G75*
G02*
X80449000Y-137255000I0J51000D01*
G01*
X80449000Y-132255000D01*
G75*
G02*
X80500000Y-132204000I51000J0D01*
G01*
X85500000Y-132204000D01*
G75*
G02*
X85551000Y-132255000I0J-51000D01*
G01*
G37*
G36*
G01*
X70881000Y-97824999D02*
X70881000Y-98475001D01*
G75*
G02*
X70830001Y-98526000I-50999J0D01*
G01*
X69769999Y-98526000D01*
G75*
G02*
X69719000Y-98475001I0J50999D01*
G01*
X69719000Y-97824999D01*
G75*
G02*
X69769999Y-97774000I50999J0D01*
G01*
X70830001Y-97774000D01*
G75*
G02*
X70881000Y-97824999I0J-50999D01*
G01*
G37*
G36*
G01*
X70881000Y-95924999D02*
X70881000Y-96575001D01*
G75*
G02*
X70830001Y-96626000I-50999J0D01*
G01*
X69769999Y-96626000D01*
G75*
G02*
X69719000Y-96575001I0J50999D01*
G01*
X69719000Y-95924999D01*
G75*
G02*
X69769999Y-95874000I50999J0D01*
G01*
X70830001Y-95874000D01*
G75*
G02*
X70881000Y-95924999I0J-50999D01*
G01*
G37*
G36*
G01*
X73081000Y-95924999D02*
X73081000Y-96575001D01*
G75*
G02*
X73030001Y-96626000I-50999J0D01*
G01*
X71969999Y-96626000D01*
G75*
G02*
X71919000Y-96575001I0J50999D01*
G01*
X71919000Y-95924999D01*
G75*
G02*
X71969999Y-95874000I50999J0D01*
G01*
X73030001Y-95874000D01*
G75*
G02*
X73081000Y-95924999I0J-50999D01*
G01*
G37*
G36*
G01*
X73081000Y-96874999D02*
X73081000Y-97525001D01*
G75*
G02*
X73030001Y-97576000I-50999J0D01*
G01*
X71969999Y-97576000D01*
G75*
G02*
X71919000Y-97525001I0J50999D01*
G01*
X71919000Y-96874999D01*
G75*
G02*
X71969999Y-96824000I50999J0D01*
G01*
X73030001Y-96824000D01*
G75*
G02*
X73081000Y-96874999I0J-50999D01*
G01*
G37*
G36*
G01*
X73081000Y-97824999D02*
X73081000Y-98475001D01*
G75*
G02*
X73030001Y-98526000I-50999J0D01*
G01*
X71969999Y-98526000D01*
G75*
G02*
X71919000Y-98475001I0J50999D01*
G01*
X71919000Y-97824999D01*
G75*
G02*
X71969999Y-97774000I50999J0D01*
G01*
X73030001Y-97774000D01*
G75*
G02*
X73081000Y-97824999I0J-50999D01*
G01*
G37*
G36*
G01*
X92800000Y-100649000D02*
X94100000Y-100649000D01*
G75*
G02*
X94151000Y-100700000I0J-51000D01*
G01*
X94151000Y-102250000D01*
G75*
G02*
X94100000Y-102301000I-51000J0D01*
G01*
X92800000Y-102301000D01*
G75*
G02*
X92749000Y-102250000I0J51000D01*
G01*
X92749000Y-100700000D01*
G75*
G02*
X92800000Y-100649000I51000J0D01*
G01*
G37*
G36*
G01*
X97300000Y-100649000D02*
X98600000Y-100649000D01*
G75*
G02*
X98651000Y-100700000I0J-51000D01*
G01*
X98651000Y-102250000D01*
G75*
G02*
X98600000Y-102301000I-51000J0D01*
G01*
X97300000Y-102301000D01*
G75*
G02*
X97249000Y-102250000I0J51000D01*
G01*
X97249000Y-100700000D01*
G75*
G02*
X97300000Y-100649000I51000J0D01*
G01*
G37*
G36*
G01*
X97300000Y-92699000D02*
X98600000Y-92699000D01*
G75*
G02*
X98651000Y-92750000I0J-51000D01*
G01*
X98651000Y-94300000D01*
G75*
G02*
X98600000Y-94351000I-51000J0D01*
G01*
X97300000Y-94351000D01*
G75*
G02*
X97249000Y-94300000I0J51000D01*
G01*
X97249000Y-92750000D01*
G75*
G02*
X97300000Y-92699000I51000J0D01*
G01*
G37*
G36*
G01*
X92800000Y-92699000D02*
X94100000Y-92699000D01*
G75*
G02*
X94151000Y-92750000I0J-51000D01*
G01*
X94151000Y-94300000D01*
G75*
G02*
X94100000Y-94351000I-51000J0D01*
G01*
X92800000Y-94351000D01*
G75*
G02*
X92749000Y-94300000I0J51000D01*
G01*
X92749000Y-92750000D01*
G75*
G02*
X92800000Y-92699000I51000J0D01*
G01*
G37*
G36*
G01*
X92800000Y-113949000D02*
X94100000Y-113949000D01*
G75*
G02*
X94151000Y-114000000I0J-51000D01*
G01*
X94151000Y-115550000D01*
G75*
G02*
X94100000Y-115601000I-51000J0D01*
G01*
X92800000Y-115601000D01*
G75*
G02*
X92749000Y-115550000I0J51000D01*
G01*
X92749000Y-114000000D01*
G75*
G02*
X92800000Y-113949000I51000J0D01*
G01*
G37*
G36*
G01*
X97300000Y-113949000D02*
X98600000Y-113949000D01*
G75*
G02*
X98651000Y-114000000I0J-51000D01*
G01*
X98651000Y-115550000D01*
G75*
G02*
X98600000Y-115601000I-51000J0D01*
G01*
X97300000Y-115601000D01*
G75*
G02*
X97249000Y-115550000I0J51000D01*
G01*
X97249000Y-114000000D01*
G75*
G02*
X97300000Y-113949000I51000J0D01*
G01*
G37*
G36*
G01*
X97300000Y-105999000D02*
X98600000Y-105999000D01*
G75*
G02*
X98651000Y-106050000I0J-51000D01*
G01*
X98651000Y-107600000D01*
G75*
G02*
X98600000Y-107651000I-51000J0D01*
G01*
X97300000Y-107651000D01*
G75*
G02*
X97249000Y-107600000I0J51000D01*
G01*
X97249000Y-106050000D01*
G75*
G02*
X97300000Y-105999000I51000J0D01*
G01*
G37*
G36*
G01*
X92800000Y-105999000D02*
X94100000Y-105999000D01*
G75*
G02*
X94151000Y-106050000I0J-51000D01*
G01*
X94151000Y-107600000D01*
G75*
G02*
X94100000Y-107651000I-51000J0D01*
G01*
X92800000Y-107651000D01*
G75*
G02*
X92749000Y-107600000I0J51000D01*
G01*
X92749000Y-106050000D01*
G75*
G02*
X92800000Y-105999000I51000J0D01*
G01*
G37*
G36*
G01*
X80000000Y-110949000D02*
X81300000Y-110949000D01*
G75*
G02*
X81351000Y-111000000I0J-51000D01*
G01*
X81351000Y-112550000D01*
G75*
G02*
X81300000Y-112601000I-51000J0D01*
G01*
X80000000Y-112601000D01*
G75*
G02*
X79949000Y-112550000I0J51000D01*
G01*
X79949000Y-111000000D01*
G75*
G02*
X80000000Y-110949000I51000J0D01*
G01*
G37*
G36*
G01*
X84500000Y-110949000D02*
X85800000Y-110949000D01*
G75*
G02*
X85851000Y-111000000I0J-51000D01*
G01*
X85851000Y-112550000D01*
G75*
G02*
X85800000Y-112601000I-51000J0D01*
G01*
X84500000Y-112601000D01*
G75*
G02*
X84449000Y-112550000I0J51000D01*
G01*
X84449000Y-111000000D01*
G75*
G02*
X84500000Y-110949000I51000J0D01*
G01*
G37*
G36*
G01*
X84500000Y-102999000D02*
X85800000Y-102999000D01*
G75*
G02*
X85851000Y-103050000I0J-51000D01*
G01*
X85851000Y-104600000D01*
G75*
G02*
X85800000Y-104651000I-51000J0D01*
G01*
X84500000Y-104651000D01*
G75*
G02*
X84449000Y-104600000I0J51000D01*
G01*
X84449000Y-103050000D01*
G75*
G02*
X84500000Y-102999000I51000J0D01*
G01*
G37*
G36*
G01*
X80000000Y-102999000D02*
X81300000Y-102999000D01*
G75*
G02*
X81351000Y-103050000I0J-51000D01*
G01*
X81351000Y-104600000D01*
G75*
G02*
X81300000Y-104651000I-51000J0D01*
G01*
X80000000Y-104651000D01*
G75*
G02*
X79949000Y-104600000I0J51000D01*
G01*
X79949000Y-103050000D01*
G75*
G02*
X80000000Y-102999000I51000J0D01*
G01*
G37*
G36*
G01*
X87299000Y-117281750D02*
X87299000Y-116718250D01*
G75*
G02*
X87543250Y-116474000I244250J0D01*
G01*
X88031750Y-116474000D01*
G75*
G02*
X88276000Y-116718250I0J-244250D01*
G01*
X88276000Y-117281750D01*
G75*
G02*
X88031750Y-117526000I-244250J0D01*
G01*
X87543250Y-117526000D01*
G75*
G02*
X87299000Y-117281750I0J244250D01*
G01*
G37*
G36*
G01*
X85724000Y-117281750D02*
X85724000Y-116718250D01*
G75*
G02*
X85968250Y-116474000I244250J0D01*
G01*
X86456750Y-116474000D01*
G75*
G02*
X86701000Y-116718250I0J-244250D01*
G01*
X86701000Y-117281750D01*
G75*
G02*
X86456750Y-117526000I-244250J0D01*
G01*
X85968250Y-117526000D01*
G75*
G02*
X85724000Y-117281750I0J244250D01*
G01*
G37*
G36*
G01*
X87086500Y-121181750D02*
X87086500Y-120618250D01*
G75*
G02*
X87330750Y-120374000I244250J0D01*
G01*
X87819250Y-120374000D01*
G75*
G02*
X88063500Y-120618250I0J-244250D01*
G01*
X88063500Y-121181750D01*
G75*
G02*
X87819250Y-121426000I-244250J0D01*
G01*
X87330750Y-121426000D01*
G75*
G02*
X87086500Y-121181750I0J244250D01*
G01*
G37*
G36*
G01*
X85511500Y-121181750D02*
X85511500Y-120618250D01*
G75*
G02*
X85755750Y-120374000I244250J0D01*
G01*
X86244250Y-120374000D01*
G75*
G02*
X86488500Y-120618250I0J-244250D01*
G01*
X86488500Y-121181750D01*
G75*
G02*
X86244250Y-121426000I-244250J0D01*
G01*
X85755750Y-121426000D01*
G75*
G02*
X85511500Y-121181750I0J244250D01*
G01*
G37*
G36*
G01*
X76801000Y-104618250D02*
X76801000Y-105181750D01*
G75*
G02*
X76556750Y-105426000I-244250J0D01*
G01*
X76068250Y-105426000D01*
G75*
G02*
X75824000Y-105181750I0J244250D01*
G01*
X75824000Y-104618250D01*
G75*
G02*
X76068250Y-104374000I244250J0D01*
G01*
X76556750Y-104374000D01*
G75*
G02*
X76801000Y-104618250I0J-244250D01*
G01*
G37*
G36*
G01*
X78376000Y-104618250D02*
X78376000Y-105181750D01*
G75*
G02*
X78131750Y-105426000I-244250J0D01*
G01*
X77643250Y-105426000D01*
G75*
G02*
X77399000Y-105181750I0J244250D01*
G01*
X77399000Y-104618250D01*
G75*
G02*
X77643250Y-104374000I244250J0D01*
G01*
X78131750Y-104374000D01*
G75*
G02*
X78376000Y-104618250I0J-244250D01*
G01*
G37*
G36*
G01*
X81799000Y-100781750D02*
X81799000Y-100218250D01*
G75*
G02*
X82043250Y-99974000I244250J0D01*
G01*
X82531750Y-99974000D01*
G75*
G02*
X82776000Y-100218250I0J-244250D01*
G01*
X82776000Y-100781750D01*
G75*
G02*
X82531750Y-101026000I-244250J0D01*
G01*
X82043250Y-101026000D01*
G75*
G02*
X81799000Y-100781750I0J244250D01*
G01*
G37*
G36*
G01*
X80224000Y-100781750D02*
X80224000Y-100218250D01*
G75*
G02*
X80468250Y-99974000I244250J0D01*
G01*
X80956750Y-99974000D01*
G75*
G02*
X81201000Y-100218250I0J-244250D01*
G01*
X81201000Y-100781750D01*
G75*
G02*
X80956750Y-101026000I-244250J0D01*
G01*
X80468250Y-101026000D01*
G75*
G02*
X80224000Y-100781750I0J244250D01*
G01*
G37*
G36*
G01*
X93299000Y-86581750D02*
X93299000Y-86018250D01*
G75*
G02*
X93543250Y-85774000I244250J0D01*
G01*
X94031750Y-85774000D01*
G75*
G02*
X94276000Y-86018250I0J-244250D01*
G01*
X94276000Y-86581750D01*
G75*
G02*
X94031750Y-86826000I-244250J0D01*
G01*
X93543250Y-86826000D01*
G75*
G02*
X93299000Y-86581750I0J244250D01*
G01*
G37*
G36*
G01*
X91724000Y-86581750D02*
X91724000Y-86018250D01*
G75*
G02*
X91968250Y-85774000I244250J0D01*
G01*
X92456750Y-85774000D01*
G75*
G02*
X92701000Y-86018250I0J-244250D01*
G01*
X92701000Y-86581750D01*
G75*
G02*
X92456750Y-86826000I-244250J0D01*
G01*
X91968250Y-86826000D01*
G75*
G02*
X91724000Y-86581750I0J244250D01*
G01*
G37*
G36*
G01*
X72681750Y-85051000D02*
X72118250Y-85051000D01*
G75*
G02*
X71874000Y-84806750I0J244250D01*
G01*
X71874000Y-84318250D01*
G75*
G02*
X72118250Y-84074000I244250J0D01*
G01*
X72681750Y-84074000D01*
G75*
G02*
X72926000Y-84318250I0J-244250D01*
G01*
X72926000Y-84806750D01*
G75*
G02*
X72681750Y-85051000I-244250J0D01*
G01*
G37*
G36*
G01*
X72681750Y-86626000D02*
X72118250Y-86626000D01*
G75*
G02*
X71874000Y-86381750I0J244250D01*
G01*
X71874000Y-85893250D01*
G75*
G02*
X72118250Y-85649000I244250J0D01*
G01*
X72681750Y-85649000D01*
G75*
G02*
X72926000Y-85893250I0J-244250D01*
G01*
X72926000Y-86381750D01*
G75*
G02*
X72681750Y-86626000I-244250J0D01*
G01*
G37*
G36*
G01*
X73181750Y-90551000D02*
X72618250Y-90551000D01*
G75*
G02*
X72374000Y-90306750I0J244250D01*
G01*
X72374000Y-89818250D01*
G75*
G02*
X72618250Y-89574000I244250J0D01*
G01*
X73181750Y-89574000D01*
G75*
G02*
X73426000Y-89818250I0J-244250D01*
G01*
X73426000Y-90306750D01*
G75*
G02*
X73181750Y-90551000I-244250J0D01*
G01*
G37*
G36*
G01*
X73181750Y-92126000D02*
X72618250Y-92126000D01*
G75*
G02*
X72374000Y-91881750I0J244250D01*
G01*
X72374000Y-91393250D01*
G75*
G02*
X72618250Y-91149000I244250J0D01*
G01*
X73181750Y-91149000D01*
G75*
G02*
X73426000Y-91393250I0J-244250D01*
G01*
X73426000Y-91881750D01*
G75*
G02*
X73181750Y-92126000I-244250J0D01*
G01*
G37*
D14*
X67800000Y-129050000D03*
X67800000Y-131590000D03*
X67800000Y-134130000D03*
X67800000Y-136670000D03*
X67800000Y-139210000D03*
G36*
G01*
X68701000Y-140900000D02*
X68701000Y-142600000D01*
G75*
G02*
X68650000Y-142651000I-51000J0D01*
G01*
X66950000Y-142651000D01*
G75*
G02*
X66899000Y-142600000I0J51000D01*
G01*
X66899000Y-140900000D01*
G75*
G02*
X66950000Y-140849000I51000J0D01*
G01*
X68650000Y-140849000D01*
G75*
G02*
X68701000Y-140900000I0J-51000D01*
G01*
G37*
G36*
G01*
X83124000Y-117655600D02*
X83124000Y-116344400D01*
G75*
G02*
X83394400Y-116074000I270400J0D01*
G01*
X84205600Y-116074000D01*
G75*
G02*
X84476000Y-116344400I0J-270400D01*
G01*
X84476000Y-117655600D01*
G75*
G02*
X84205600Y-117926000I-270400J0D01*
G01*
X83394400Y-117926000D01*
G75*
G02*
X83124000Y-117655600I0J270400D01*
G01*
G37*
G36*
G01*
X80324000Y-117655600D02*
X80324000Y-116344400D01*
G75*
G02*
X80594400Y-116074000I270400J0D01*
G01*
X81405600Y-116074000D01*
G75*
G02*
X81676000Y-116344400I0J-270400D01*
G01*
X81676000Y-117655600D01*
G75*
G02*
X81405600Y-117926000I-270400J0D01*
G01*
X80594400Y-117926000D01*
G75*
G02*
X80324000Y-117655600I0J270400D01*
G01*
G37*
G36*
G01*
X83124000Y-121655600D02*
X83124000Y-120344400D01*
G75*
G02*
X83394400Y-120074000I270400J0D01*
G01*
X84205600Y-120074000D01*
G75*
G02*
X84476000Y-120344400I0J-270400D01*
G01*
X84476000Y-121655600D01*
G75*
G02*
X84205600Y-121926000I-270400J0D01*
G01*
X83394400Y-121926000D01*
G75*
G02*
X83124000Y-121655600I0J270400D01*
G01*
G37*
G36*
G01*
X80324000Y-121655600D02*
X80324000Y-120344400D01*
G75*
G02*
X80594400Y-120074000I270400J0D01*
G01*
X81405600Y-120074000D01*
G75*
G02*
X81676000Y-120344400I0J-270400D01*
G01*
X81676000Y-121655600D01*
G75*
G02*
X81405600Y-121926000I-270400J0D01*
G01*
X80594400Y-121926000D01*
G75*
G02*
X80324000Y-121655600I0J270400D01*
G01*
G37*
G36*
G01*
X73199000Y-103381750D02*
X73199000Y-102818250D01*
G75*
G02*
X73443250Y-102574000I244250J0D01*
G01*
X73931750Y-102574000D01*
G75*
G02*
X74176000Y-102818250I0J-244250D01*
G01*
X74176000Y-103381750D01*
G75*
G02*
X73931750Y-103626000I-244250J0D01*
G01*
X73443250Y-103626000D01*
G75*
G02*
X73199000Y-103381750I0J244250D01*
G01*
G37*
G36*
G01*
X71624000Y-103381750D02*
X71624000Y-102818250D01*
G75*
G02*
X71868250Y-102574000I244250J0D01*
G01*
X72356750Y-102574000D01*
G75*
G02*
X72601000Y-102818250I0J-244250D01*
G01*
X72601000Y-103381750D01*
G75*
G02*
X72356750Y-103626000I-244250J0D01*
G01*
X71868250Y-103626000D01*
G75*
G02*
X71624000Y-103381750I0J244250D01*
G01*
G37*
G36*
G01*
X73199000Y-101381750D02*
X73199000Y-100818250D01*
G75*
G02*
X73443250Y-100574000I244250J0D01*
G01*
X73931750Y-100574000D01*
G75*
G02*
X74176000Y-100818250I0J-244250D01*
G01*
X74176000Y-101381750D01*
G75*
G02*
X73931750Y-101626000I-244250J0D01*
G01*
X73443250Y-101626000D01*
G75*
G02*
X73199000Y-101381750I0J244250D01*
G01*
G37*
G36*
G01*
X71624000Y-101381750D02*
X71624000Y-100818250D01*
G75*
G02*
X71868250Y-100574000I244250J0D01*
G01*
X72356750Y-100574000D01*
G75*
G02*
X72601000Y-100818250I0J-244250D01*
G01*
X72601000Y-101381750D01*
G75*
G02*
X72356750Y-101626000I-244250J0D01*
G01*
X71868250Y-101626000D01*
G75*
G02*
X71624000Y-101381750I0J244250D01*
G01*
G37*
G36*
G01*
X71849000Y-94481750D02*
X71849000Y-93918250D01*
G75*
G02*
X72093250Y-93674000I244250J0D01*
G01*
X72581750Y-93674000D01*
G75*
G02*
X72826000Y-93918250I0J-244250D01*
G01*
X72826000Y-94481750D01*
G75*
G02*
X72581750Y-94726000I-244250J0D01*
G01*
X72093250Y-94726000D01*
G75*
G02*
X71849000Y-94481750I0J244250D01*
G01*
G37*
G36*
G01*
X70274000Y-94481750D02*
X70274000Y-93918250D01*
G75*
G02*
X70518250Y-93674000I244250J0D01*
G01*
X71006750Y-93674000D01*
G75*
G02*
X71251000Y-93918250I0J-244250D01*
G01*
X71251000Y-94481750D01*
G75*
G02*
X71006750Y-94726000I-244250J0D01*
G01*
X70518250Y-94726000D01*
G75*
G02*
X70274000Y-94481750I0J244250D01*
G01*
G37*
D15*
G36*
X69839930Y-119146353D02*
G01*
X69868878Y-119189678D01*
X69910322Y-119231122D01*
X69959057Y-119263685D01*
X70013206Y-119286115D01*
X70070696Y-119297551D01*
X70129304Y-119297551D01*
X70186794Y-119286115D01*
X70240943Y-119263685D01*
X70289678Y-119231122D01*
X70331122Y-119189678D01*
X70360070Y-119146354D01*
X70361864Y-119145469D01*
X70363527Y-119146580D01*
X70363497Y-119148408D01*
X70354929Y-119164437D01*
X70347932Y-119187510D01*
X70345568Y-119211501D01*
X70347931Y-119235493D01*
X70354931Y-119258568D01*
X70366297Y-119279832D01*
X70381592Y-119298469D01*
X70400229Y-119313764D01*
X70421494Y-119325130D01*
X70444567Y-119332127D01*
X70468754Y-119334510D01*
X70470380Y-119335675D01*
X70470184Y-119337665D01*
X70468558Y-119338500D01*
X69799000Y-119338500D01*
X69797268Y-119337500D01*
X69797000Y-119336500D01*
X69797000Y-119316443D01*
X69798057Y-119314679D01*
X69799772Y-119313762D01*
X69818409Y-119298468D01*
X69833704Y-119279831D01*
X69845069Y-119258567D01*
X69852069Y-119235492D01*
X69854432Y-119211501D01*
X69852069Y-119187510D01*
X69845069Y-119164435D01*
X69836503Y-119148407D01*
X69836569Y-119146408D01*
X69838333Y-119145465D01*
X69839930Y-119146353D01*
G37*
G36*
X70387284Y-118560000D02*
G01*
X70387284Y-118562000D01*
X70385748Y-118562990D01*
X70361561Y-118565372D01*
X70338486Y-118572372D01*
X70317222Y-118583737D01*
X70298585Y-118599032D01*
X70283290Y-118617669D01*
X70271925Y-118638933D01*
X70264925Y-118662008D01*
X70262562Y-118685999D01*
X70264925Y-118709990D01*
X70271925Y-118733065D01*
X70283290Y-118754329D01*
X70294816Y-118768373D01*
X70295142Y-118770347D01*
X70293596Y-118771615D01*
X70291856Y-118771056D01*
X70289678Y-118768878D01*
X70240943Y-118736315D01*
X70186794Y-118713885D01*
X70129304Y-118702449D01*
X70070696Y-118702449D01*
X70013206Y-118713885D01*
X69959057Y-118736315D01*
X69910322Y-118768878D01*
X69908144Y-118771056D01*
X69906212Y-118771574D01*
X69904798Y-118770160D01*
X69905184Y-118768373D01*
X69916710Y-118754329D01*
X69928075Y-118733065D01*
X69935075Y-118709990D01*
X69937438Y-118685999D01*
X69935075Y-118662008D01*
X69928075Y-118638933D01*
X69916710Y-118617669D01*
X69901415Y-118599032D01*
X69882778Y-118583737D01*
X69861514Y-118572372D01*
X69838439Y-118565372D01*
X69814252Y-118562990D01*
X69812626Y-118561825D01*
X69812822Y-118559835D01*
X69814448Y-118559000D01*
X70385552Y-118559000D01*
X70387284Y-118560000D01*
G37*
G36*
X71747732Y-117910000D02*
G01*
X71748000Y-117911000D01*
X71748000Y-118059000D01*
X71747000Y-118060732D01*
X71746000Y-118061000D01*
X69794000Y-118061000D01*
X69792268Y-118060000D01*
X69792000Y-118059000D01*
X69792000Y-117911000D01*
X69793000Y-117909268D01*
X69794000Y-117909000D01*
X71746000Y-117909000D01*
X71747732Y-117910000D01*
G37*
G36*
X71747732Y-117260000D02*
G01*
X71748000Y-117261000D01*
X71748000Y-117409000D01*
X71747000Y-117410732D01*
X71746000Y-117411000D01*
X69794000Y-117411000D01*
X69792268Y-117410000D01*
X69792000Y-117409000D01*
X69792000Y-117261000D01*
X69793000Y-117259268D01*
X69794000Y-117259000D01*
X71746000Y-117259000D01*
X71747732Y-117260000D01*
G37*
G36*
X71747732Y-116610000D02*
G01*
X71748000Y-116611000D01*
X71748000Y-116759000D01*
X71747000Y-116760732D01*
X71746000Y-116761000D01*
X69794000Y-116761000D01*
X69792268Y-116760000D01*
X69792000Y-116759000D01*
X69792000Y-116611000D01*
X69793000Y-116609268D01*
X69794000Y-116609000D01*
X71746000Y-116609000D01*
X71747732Y-116610000D01*
G37*
G36*
X71747732Y-115960000D02*
G01*
X71748000Y-115961000D01*
X71748000Y-116109000D01*
X71747000Y-116110732D01*
X71746000Y-116111000D01*
X69794000Y-116111000D01*
X69792268Y-116110000D01*
X69792000Y-116109000D01*
X69792000Y-115961000D01*
X69793000Y-115959268D01*
X69794000Y-115959000D01*
X71746000Y-115959000D01*
X71747732Y-115960000D01*
G37*
G36*
X69912724Y-115232727D02*
G01*
X69959057Y-115263685D01*
X70013206Y-115286115D01*
X70070696Y-115297551D01*
X70129304Y-115297551D01*
X70186794Y-115286115D01*
X70240943Y-115263685D01*
X70287276Y-115232727D01*
X70289272Y-115232596D01*
X70290383Y-115234259D01*
X70289801Y-115235804D01*
X70289249Y-115236356D01*
X70289104Y-115236488D01*
X70276249Y-115247038D01*
X70260955Y-115265675D01*
X70249589Y-115286940D01*
X70242592Y-115310013D01*
X70240229Y-115334006D01*
X70242593Y-115357997D01*
X70249594Y-115381071D01*
X70260960Y-115402334D01*
X70276256Y-115420971D01*
X70294893Y-115436265D01*
X70316158Y-115447631D01*
X70339231Y-115454628D01*
X70363415Y-115457010D01*
X70365041Y-115458175D01*
X70364845Y-115460165D01*
X70363219Y-115461000D01*
X69836781Y-115461000D01*
X69835049Y-115460000D01*
X69835049Y-115458000D01*
X69836585Y-115457010D01*
X69860772Y-115454628D01*
X69883847Y-115447628D01*
X69905111Y-115436263D01*
X69923748Y-115420968D01*
X69939043Y-115402331D01*
X69950408Y-115381067D01*
X69957408Y-115357992D01*
X69959771Y-115334001D01*
X69957408Y-115310010D01*
X69950408Y-115286935D01*
X69939043Y-115265671D01*
X69923748Y-115247034D01*
X69910893Y-115236485D01*
X69910748Y-115236353D01*
X69910199Y-115235804D01*
X69909681Y-115233872D01*
X69911095Y-115232458D01*
X69912724Y-115232727D01*
G37*
G36*
X70470290Y-114662500D02*
G01*
X70470290Y-114664500D01*
X70468754Y-114665490D01*
X70444567Y-114667872D01*
X70421492Y-114674872D01*
X70400228Y-114686237D01*
X70381591Y-114701532D01*
X70366296Y-114720169D01*
X70354931Y-114741433D01*
X70347931Y-114764508D01*
X70345568Y-114788498D01*
X70347931Y-114812490D01*
X70354931Y-114835565D01*
X70363497Y-114851593D01*
X70363431Y-114853592D01*
X70361667Y-114854535D01*
X70360070Y-114853647D01*
X70331122Y-114810322D01*
X70289678Y-114768878D01*
X70240943Y-114736315D01*
X70186794Y-114713885D01*
X70129304Y-114702449D01*
X70070696Y-114702449D01*
X70013206Y-114713885D01*
X69959057Y-114736315D01*
X69910322Y-114768878D01*
X69868878Y-114810322D01*
X69839930Y-114853646D01*
X69838136Y-114854531D01*
X69836473Y-114853420D01*
X69836503Y-114851592D01*
X69845071Y-114835563D01*
X69852068Y-114812490D01*
X69854432Y-114788498D01*
X69852069Y-114764507D01*
X69845069Y-114741432D01*
X69833703Y-114720168D01*
X69818408Y-114701531D01*
X69799771Y-114686236D01*
X69798057Y-114685320D01*
X69797000Y-114683556D01*
X69797000Y-114663500D01*
X69798000Y-114661768D01*
X69799000Y-114661500D01*
X70468558Y-114661500D01*
X70470290Y-114662500D01*
G37*
G36*
X73082732Y-97575000D02*
G01*
X73083000Y-97576000D01*
X73083000Y-97774000D01*
X73082000Y-97775732D01*
X73081000Y-97776000D01*
X71919000Y-97776000D01*
X71917268Y-97775000D01*
X71917000Y-97774000D01*
X71917000Y-97576000D01*
X71918000Y-97574268D01*
X71919000Y-97574000D01*
X73081000Y-97574000D01*
X73082732Y-97575000D01*
G37*
G36*
X73082732Y-96625000D02*
G01*
X73083000Y-96626000D01*
X73083000Y-96824000D01*
X73082000Y-96825732D01*
X73081000Y-96826000D01*
X71919000Y-96826000D01*
X71917268Y-96825000D01*
X71917000Y-96824000D01*
X71917000Y-96626000D01*
X71918000Y-96624268D01*
X71919000Y-96624000D01*
X73081000Y-96624000D01*
X73082732Y-96625000D01*
G37*
G36*
X81552165Y-94539174D02*
G01*
X81553000Y-94540800D01*
X81553000Y-94634660D01*
X81552990Y-94634856D01*
X81549319Y-94672130D01*
X81549243Y-94672515D01*
X81540160Y-94702458D01*
X81540010Y-94702820D01*
X81525264Y-94730408D01*
X81525046Y-94730734D01*
X81505197Y-94754920D01*
X81504920Y-94755197D01*
X81480734Y-94775046D01*
X81480408Y-94775264D01*
X81452820Y-94790010D01*
X81452458Y-94790160D01*
X81422515Y-94799243D01*
X81422130Y-94799319D01*
X81384856Y-94802990D01*
X81384660Y-94803000D01*
X81290800Y-94803000D01*
X81289068Y-94802000D01*
X81289068Y-94800000D01*
X81290604Y-94799010D01*
X81341168Y-94794030D01*
X81389605Y-94779336D01*
X81434243Y-94755477D01*
X81473368Y-94723368D01*
X81505477Y-94684243D01*
X81529336Y-94639605D01*
X81544030Y-94591168D01*
X81549010Y-94540604D01*
X81550175Y-94538978D01*
X81552165Y-94539174D01*
G37*
G36*
X88952165Y-94539174D02*
G01*
X88953000Y-94540800D01*
X88953000Y-94634660D01*
X88952990Y-94634856D01*
X88949319Y-94672130D01*
X88949243Y-94672515D01*
X88940160Y-94702458D01*
X88940010Y-94702820D01*
X88925264Y-94730408D01*
X88925046Y-94730734D01*
X88905197Y-94754920D01*
X88904920Y-94755197D01*
X88880734Y-94775046D01*
X88880408Y-94775264D01*
X88852820Y-94790010D01*
X88852458Y-94790160D01*
X88822515Y-94799243D01*
X88822130Y-94799319D01*
X88784856Y-94802990D01*
X88784660Y-94803000D01*
X88690800Y-94803000D01*
X88689068Y-94802000D01*
X88689068Y-94800000D01*
X88690604Y-94799010D01*
X88741168Y-94794030D01*
X88789605Y-94779336D01*
X88834243Y-94755477D01*
X88873368Y-94723368D01*
X88905477Y-94684243D01*
X88929336Y-94639605D01*
X88944030Y-94591168D01*
X88949010Y-94540604D01*
X88950175Y-94538978D01*
X88952165Y-94539174D01*
G37*
G36*
X77050990Y-94540604D02*
G01*
X77055970Y-94591168D01*
X77070664Y-94639605D01*
X77094523Y-94684243D01*
X77126632Y-94723368D01*
X77165757Y-94755477D01*
X77210395Y-94779336D01*
X77258832Y-94794030D01*
X77309396Y-94799010D01*
X77311022Y-94800175D01*
X77310826Y-94802165D01*
X77309200Y-94803000D01*
X77215340Y-94803000D01*
X77215144Y-94802990D01*
X77177870Y-94799319D01*
X77177485Y-94799243D01*
X77147542Y-94790160D01*
X77147180Y-94790010D01*
X77119592Y-94775264D01*
X77119266Y-94775046D01*
X77095080Y-94755197D01*
X77094803Y-94754920D01*
X77074954Y-94730734D01*
X77074736Y-94730408D01*
X77059990Y-94702820D01*
X77059840Y-94702458D01*
X77050757Y-94672515D01*
X77050681Y-94672130D01*
X77047010Y-94634856D01*
X77047000Y-94634660D01*
X77047000Y-94540800D01*
X77048000Y-94539068D01*
X77050000Y-94539068D01*
X77050990Y-94540604D01*
G37*
G36*
X84450990Y-94540604D02*
G01*
X84455970Y-94591168D01*
X84470664Y-94639605D01*
X84494523Y-94684243D01*
X84526632Y-94723368D01*
X84565757Y-94755477D01*
X84610395Y-94779336D01*
X84658832Y-94794030D01*
X84709396Y-94799010D01*
X84711022Y-94800175D01*
X84710826Y-94802165D01*
X84709200Y-94803000D01*
X84615340Y-94803000D01*
X84615144Y-94802990D01*
X84577870Y-94799319D01*
X84577485Y-94799243D01*
X84547542Y-94790160D01*
X84547180Y-94790010D01*
X84519592Y-94775264D01*
X84519266Y-94775046D01*
X84495080Y-94755197D01*
X84494803Y-94754920D01*
X84474954Y-94730734D01*
X84474736Y-94730408D01*
X84459990Y-94702820D01*
X84459840Y-94702458D01*
X84450757Y-94672515D01*
X84450681Y-94672130D01*
X84447010Y-94634856D01*
X84447000Y-94634660D01*
X84447000Y-94540800D01*
X84448000Y-94539068D01*
X84450000Y-94539068D01*
X84450990Y-94540604D01*
G37*
G36*
X84710932Y-92198000D02*
G01*
X84710932Y-92200000D01*
X84709396Y-92200990D01*
X84658832Y-92205970D01*
X84610395Y-92220664D01*
X84565757Y-92244523D01*
X84526632Y-92276632D01*
X84494523Y-92315757D01*
X84470664Y-92360395D01*
X84455970Y-92408832D01*
X84450990Y-92459396D01*
X84449825Y-92461022D01*
X84447835Y-92460826D01*
X84447000Y-92459200D01*
X84447000Y-92365340D01*
X84447010Y-92365144D01*
X84450681Y-92327870D01*
X84450757Y-92327485D01*
X84459840Y-92297542D01*
X84459990Y-92297180D01*
X84474736Y-92269592D01*
X84474954Y-92269266D01*
X84494803Y-92245080D01*
X84495080Y-92244803D01*
X84519266Y-92224954D01*
X84519592Y-92224736D01*
X84547180Y-92209990D01*
X84547542Y-92209840D01*
X84577485Y-92200757D01*
X84577870Y-92200681D01*
X84615144Y-92197010D01*
X84615340Y-92197000D01*
X84709200Y-92197000D01*
X84710932Y-92198000D01*
G37*
G36*
X77310932Y-92198000D02*
G01*
X77310932Y-92200000D01*
X77309396Y-92200990D01*
X77258832Y-92205970D01*
X77210395Y-92220664D01*
X77165757Y-92244523D01*
X77126632Y-92276632D01*
X77094523Y-92315757D01*
X77070664Y-92360395D01*
X77055970Y-92408832D01*
X77050990Y-92459396D01*
X77049825Y-92461022D01*
X77047835Y-92460826D01*
X77047000Y-92459200D01*
X77047000Y-92365340D01*
X77047010Y-92365144D01*
X77050681Y-92327870D01*
X77050757Y-92327485D01*
X77059840Y-92297542D01*
X77059990Y-92297180D01*
X77074736Y-92269592D01*
X77074954Y-92269266D01*
X77094803Y-92245080D01*
X77095080Y-92244803D01*
X77119266Y-92224954D01*
X77119592Y-92224736D01*
X77147180Y-92209990D01*
X77147542Y-92209840D01*
X77177485Y-92200757D01*
X77177870Y-92200681D01*
X77215144Y-92197010D01*
X77215340Y-92197000D01*
X77309200Y-92197000D01*
X77310932Y-92198000D01*
G37*
G36*
X81384856Y-92197010D02*
G01*
X81422130Y-92200681D01*
X81422515Y-92200757D01*
X81452458Y-92209840D01*
X81452820Y-92209990D01*
X81480408Y-92224736D01*
X81480734Y-92224954D01*
X81504920Y-92244803D01*
X81505197Y-92245080D01*
X81525046Y-92269266D01*
X81525264Y-92269592D01*
X81540010Y-92297180D01*
X81540160Y-92297542D01*
X81549243Y-92327485D01*
X81549319Y-92327870D01*
X81552990Y-92365144D01*
X81553000Y-92365340D01*
X81553000Y-92459200D01*
X81552000Y-92460932D01*
X81550000Y-92460932D01*
X81549010Y-92459396D01*
X81544030Y-92408832D01*
X81529336Y-92360395D01*
X81505477Y-92315757D01*
X81473368Y-92276632D01*
X81434243Y-92244523D01*
X81389605Y-92220664D01*
X81341168Y-92205970D01*
X81290604Y-92200990D01*
X81288978Y-92199825D01*
X81289174Y-92197835D01*
X81290800Y-92197000D01*
X81384660Y-92197000D01*
X81384856Y-92197010D01*
G37*
G36*
X88784856Y-92197010D02*
G01*
X88822130Y-92200681D01*
X88822515Y-92200757D01*
X88852458Y-92209840D01*
X88852820Y-92209990D01*
X88880408Y-92224736D01*
X88880734Y-92224954D01*
X88904920Y-92244803D01*
X88905197Y-92245080D01*
X88925046Y-92269266D01*
X88925264Y-92269592D01*
X88940010Y-92297180D01*
X88940160Y-92297542D01*
X88949243Y-92327485D01*
X88949319Y-92327870D01*
X88952990Y-92365144D01*
X88953000Y-92365340D01*
X88953000Y-92459200D01*
X88952000Y-92460932D01*
X88950000Y-92460932D01*
X88949010Y-92459396D01*
X88944030Y-92408832D01*
X88929336Y-92360395D01*
X88905477Y-92315757D01*
X88873368Y-92276632D01*
X88834243Y-92244523D01*
X88789605Y-92220664D01*
X88741168Y-92205970D01*
X88690604Y-92200990D01*
X88688978Y-92199825D01*
X88689174Y-92197835D01*
X88690800Y-92197000D01*
X88784660Y-92197000D01*
X88784856Y-92197010D01*
G37*
M02*
