%FSLAX45Y45*%
G04 Gerber Fmt 4.5, Leading zero omitted, Abs format (unit mm)*
G04 Created by KiCad (PCBNEW (5.1.7)-1) date 2021-06-27 15:00:12*
%MOMM*%
%LPD*%
G01*
G04 APERTURE LIST*
%TA.AperFunction,Profile*%
%ADD10C,0.050000*%
%TD*%
%ADD11C,0.200000*%
%ADD12C,0.300000*%
G04 APERTURE END LIST*
D10*
X6600000Y-6530000D02*
X6600000Y-7075000D01*
X10160000Y-7075000D02*
X10160000Y-6530000D01*
X10160000Y-6530000D02*
X10100000Y-6530000D01*
X10100000Y-14425000D02*
X10160000Y-14425000D01*
X6600000Y-6530000D02*
X10100000Y-6530000D01*
X6600000Y-14425000D02*
X10100000Y-14425000D01*
X10160000Y-14425000D02*
X10160000Y-7075000D01*
X6600000Y-7075000D02*
X6600000Y-14425000D01*
D11*
X6985000Y-11475000D02*
X7035000Y-11525000D01*
X7035000Y-11475000D02*
X6985000Y-11525000D01*
X6985000Y-11875000D02*
X7035000Y-11925000D01*
X7035000Y-11875000D02*
X6985000Y-11925000D01*
X9910000Y-7425000D02*
G75*
G03*
X9910000Y-7425000I-160000J0D01*
G01*
X7110000Y-7425000D02*
G75*
G03*
X7110000Y-7425000I-160000J0D01*
G01*
X7925000Y-7198500D02*
X7925000Y-7523500D01*
X7762500Y-7361000D02*
X8087500Y-7361000D01*
X8941000Y-7198500D02*
X8941000Y-7523500D01*
X8778500Y-7361000D02*
X9103500Y-7361000D01*
D12*
X6883928Y-14893214D02*
X6883928Y-14593214D01*
X6955357Y-14593214D01*
X6998214Y-14607500D01*
X7026786Y-14636071D01*
X7041071Y-14664643D01*
X7055357Y-14721786D01*
X7055357Y-14764643D01*
X7041071Y-14821786D01*
X7026786Y-14850357D01*
X6998214Y-14878929D01*
X6955357Y-14893214D01*
X6883928Y-14893214D01*
X7183928Y-14893214D02*
X7183928Y-14693214D01*
X7183928Y-14750357D02*
X7198214Y-14721786D01*
X7212500Y-14707500D01*
X7241071Y-14693214D01*
X7269643Y-14693214D01*
X7369643Y-14893214D02*
X7369643Y-14693214D01*
X7369643Y-14593214D02*
X7355357Y-14607500D01*
X7369643Y-14621786D01*
X7383928Y-14607500D01*
X7369643Y-14593214D01*
X7369643Y-14621786D01*
X7555357Y-14893214D02*
X7526786Y-14878929D01*
X7512500Y-14850357D01*
X7512500Y-14593214D01*
X7712500Y-14893214D02*
X7683928Y-14878929D01*
X7669643Y-14850357D01*
X7669643Y-14593214D01*
X8055357Y-14893214D02*
X8055357Y-14593214D01*
X8155357Y-14807500D01*
X8255357Y-14593214D01*
X8255357Y-14893214D01*
X8526786Y-14893214D02*
X8526786Y-14736071D01*
X8512500Y-14707500D01*
X8483928Y-14693214D01*
X8426786Y-14693214D01*
X8398214Y-14707500D01*
X8526786Y-14878929D02*
X8498214Y-14893214D01*
X8426786Y-14893214D01*
X8398214Y-14878929D01*
X8383928Y-14850357D01*
X8383928Y-14821786D01*
X8398214Y-14793214D01*
X8426786Y-14778929D01*
X8498214Y-14778929D01*
X8526786Y-14764643D01*
X8669643Y-14693214D02*
X8669643Y-14993214D01*
X8669643Y-14707500D02*
X8698214Y-14693214D01*
X8755357Y-14693214D01*
X8783928Y-14707500D01*
X8798214Y-14721786D01*
X8812500Y-14750357D01*
X8812500Y-14836071D01*
X8798214Y-14864643D01*
X8783928Y-14878929D01*
X8755357Y-14893214D01*
X8698214Y-14893214D01*
X8669643Y-14878929D01*
X8941071Y-14864643D02*
X8955357Y-14878929D01*
X8941071Y-14893214D01*
X8926786Y-14878929D01*
X8941071Y-14864643D01*
X8941071Y-14893214D01*
X8941071Y-14707500D02*
X8955357Y-14721786D01*
X8941071Y-14736071D01*
X8926786Y-14721786D01*
X8941071Y-14707500D01*
X8941071Y-14736071D01*
X6547500Y-15362500D02*
X6597500Y-15412500D01*
X6597500Y-15362500D02*
X6547500Y-15412500D01*
X6941071Y-15223214D02*
X6969643Y-15223214D01*
X6998214Y-15237500D01*
X7012500Y-15251786D01*
X7026786Y-15280357D01*
X7041071Y-15337500D01*
X7041071Y-15408929D01*
X7026786Y-15466071D01*
X7012500Y-15494643D01*
X6998214Y-15508929D01*
X6969643Y-15523214D01*
X6941071Y-15523214D01*
X6912500Y-15508929D01*
X6898214Y-15494643D01*
X6883928Y-15466071D01*
X6869643Y-15408929D01*
X6869643Y-15337500D01*
X6883928Y-15280357D01*
X6898214Y-15251786D01*
X6912500Y-15237500D01*
X6941071Y-15223214D01*
X7169643Y-15494643D02*
X7183928Y-15508929D01*
X7169643Y-15523214D01*
X7155357Y-15508929D01*
X7169643Y-15494643D01*
X7169643Y-15523214D01*
X7455357Y-15223214D02*
X7312500Y-15223214D01*
X7298214Y-15366071D01*
X7312500Y-15351786D01*
X7341071Y-15337500D01*
X7412500Y-15337500D01*
X7441071Y-15351786D01*
X7455357Y-15366071D01*
X7469643Y-15394643D01*
X7469643Y-15466071D01*
X7455357Y-15494643D01*
X7441071Y-15508929D01*
X7412500Y-15523214D01*
X7341071Y-15523214D01*
X7312500Y-15508929D01*
X7298214Y-15494643D01*
X7655357Y-15223214D02*
X7683928Y-15223214D01*
X7712500Y-15237500D01*
X7726786Y-15251786D01*
X7741071Y-15280357D01*
X7755357Y-15337500D01*
X7755357Y-15408929D01*
X7741071Y-15466071D01*
X7726786Y-15494643D01*
X7712500Y-15508929D01*
X7683928Y-15523214D01*
X7655357Y-15523214D01*
X7626786Y-15508929D01*
X7612500Y-15494643D01*
X7598214Y-15466071D01*
X7583928Y-15408929D01*
X7583928Y-15337500D01*
X7598214Y-15280357D01*
X7612500Y-15251786D01*
X7626786Y-15237500D01*
X7655357Y-15223214D01*
X7883928Y-15523214D02*
X7883928Y-15323214D01*
X7883928Y-15351786D02*
X7898214Y-15337500D01*
X7926786Y-15323214D01*
X7969643Y-15323214D01*
X7998214Y-15337500D01*
X8012500Y-15366071D01*
X8012500Y-15523214D01*
X8012500Y-15366071D02*
X8026786Y-15337500D01*
X8055357Y-15323214D01*
X8098214Y-15323214D01*
X8126786Y-15337500D01*
X8141071Y-15366071D01*
X8141071Y-15523214D01*
X8283928Y-15523214D02*
X8283928Y-15323214D01*
X8283928Y-15351786D02*
X8298214Y-15337500D01*
X8326786Y-15323214D01*
X8369643Y-15323214D01*
X8398214Y-15337500D01*
X8412500Y-15366071D01*
X8412500Y-15523214D01*
X8412500Y-15366071D02*
X8426786Y-15337500D01*
X8455357Y-15323214D01*
X8498214Y-15323214D01*
X8526786Y-15337500D01*
X8541071Y-15366071D01*
X8541071Y-15523214D01*
X9126786Y-15208929D02*
X8869643Y-15594643D01*
X9512500Y-15223214D02*
X9541071Y-15223214D01*
X9569643Y-15237500D01*
X9583928Y-15251786D01*
X9598214Y-15280357D01*
X9612500Y-15337500D01*
X9612500Y-15408929D01*
X9598214Y-15466071D01*
X9583928Y-15494643D01*
X9569643Y-15508929D01*
X9541071Y-15523214D01*
X9512500Y-15523214D01*
X9483928Y-15508929D01*
X9469643Y-15494643D01*
X9455357Y-15466071D01*
X9441071Y-15408929D01*
X9441071Y-15337500D01*
X9455357Y-15280357D01*
X9469643Y-15251786D01*
X9483928Y-15237500D01*
X9512500Y-15223214D01*
X9741071Y-15494643D02*
X9755357Y-15508929D01*
X9741071Y-15523214D01*
X9726786Y-15508929D01*
X9741071Y-15494643D01*
X9741071Y-15523214D01*
X9941071Y-15223214D02*
X9969643Y-15223214D01*
X9998214Y-15237500D01*
X10012500Y-15251786D01*
X10026786Y-15280357D01*
X10041071Y-15337500D01*
X10041071Y-15408929D01*
X10026786Y-15466071D01*
X10012500Y-15494643D01*
X9998214Y-15508929D01*
X9969643Y-15523214D01*
X9941071Y-15523214D01*
X9912500Y-15508929D01*
X9898214Y-15494643D01*
X9883928Y-15466071D01*
X9869643Y-15408929D01*
X9869643Y-15337500D01*
X9883928Y-15280357D01*
X9898214Y-15251786D01*
X9912500Y-15237500D01*
X9941071Y-15223214D01*
X10155357Y-15251786D02*
X10169643Y-15237500D01*
X10198214Y-15223214D01*
X10269643Y-15223214D01*
X10298214Y-15237500D01*
X10312500Y-15251786D01*
X10326786Y-15280357D01*
X10326786Y-15308929D01*
X10312500Y-15351786D01*
X10141071Y-15523214D01*
X10326786Y-15523214D01*
X10512500Y-15223214D02*
X10541071Y-15223214D01*
X10569643Y-15237500D01*
X10583928Y-15251786D01*
X10598214Y-15280357D01*
X10612500Y-15337500D01*
X10612500Y-15408929D01*
X10598214Y-15466071D01*
X10583928Y-15494643D01*
X10569643Y-15508929D01*
X10541071Y-15523214D01*
X10512500Y-15523214D01*
X10483928Y-15508929D01*
X10469643Y-15494643D01*
X10455357Y-15466071D01*
X10441071Y-15408929D01*
X10441071Y-15337500D01*
X10455357Y-15280357D01*
X10469643Y-15251786D01*
X10483928Y-15237500D01*
X10512500Y-15223214D01*
X10726786Y-15223214D02*
X10726786Y-15280357D01*
X10841071Y-15223214D02*
X10841071Y-15280357D01*
X11283928Y-15637500D02*
X11269643Y-15623214D01*
X11241071Y-15580357D01*
X11226786Y-15551786D01*
X11212500Y-15508929D01*
X11198214Y-15437500D01*
X11198214Y-15380357D01*
X11212500Y-15308929D01*
X11226786Y-15266071D01*
X11241071Y-15237500D01*
X11269643Y-15194643D01*
X11283928Y-15180357D01*
X11383928Y-15251786D02*
X11398214Y-15237500D01*
X11426786Y-15223214D01*
X11498214Y-15223214D01*
X11526786Y-15237500D01*
X11541071Y-15251786D01*
X11555357Y-15280357D01*
X11555357Y-15308929D01*
X11541071Y-15351786D01*
X11369643Y-15523214D01*
X11555357Y-15523214D01*
X11912500Y-15523214D02*
X11912500Y-15223214D01*
X12041071Y-15523214D02*
X12041071Y-15366071D01*
X12026786Y-15337500D01*
X11998214Y-15323214D01*
X11955357Y-15323214D01*
X11926786Y-15337500D01*
X11912500Y-15351786D01*
X12226786Y-15523214D02*
X12198214Y-15508929D01*
X12183928Y-15494643D01*
X12169643Y-15466071D01*
X12169643Y-15380357D01*
X12183928Y-15351786D01*
X12198214Y-15337500D01*
X12226786Y-15323214D01*
X12269643Y-15323214D01*
X12298214Y-15337500D01*
X12312500Y-15351786D01*
X12326786Y-15380357D01*
X12326786Y-15466071D01*
X12312500Y-15494643D01*
X12298214Y-15508929D01*
X12269643Y-15523214D01*
X12226786Y-15523214D01*
X12498214Y-15523214D02*
X12469643Y-15508929D01*
X12455357Y-15480357D01*
X12455357Y-15223214D01*
X12726786Y-15508929D02*
X12698214Y-15523214D01*
X12641071Y-15523214D01*
X12612500Y-15508929D01*
X12598214Y-15480357D01*
X12598214Y-15366071D01*
X12612500Y-15337500D01*
X12641071Y-15323214D01*
X12698214Y-15323214D01*
X12726786Y-15337500D01*
X12741071Y-15366071D01*
X12741071Y-15394643D01*
X12598214Y-15423214D01*
X12855357Y-15508929D02*
X12883928Y-15523214D01*
X12941071Y-15523214D01*
X12969643Y-15508929D01*
X12983928Y-15480357D01*
X12983928Y-15466071D01*
X12969643Y-15437500D01*
X12941071Y-15423214D01*
X12898214Y-15423214D01*
X12869643Y-15408929D01*
X12855357Y-15380357D01*
X12855357Y-15366071D01*
X12869643Y-15337500D01*
X12898214Y-15323214D01*
X12941071Y-15323214D01*
X12969643Y-15337500D01*
X13083928Y-15637500D02*
X13098214Y-15623214D01*
X13126786Y-15580357D01*
X13141071Y-15551786D01*
X13155357Y-15508929D01*
X13169643Y-15437500D01*
X13169643Y-15380357D01*
X13155357Y-15308929D01*
X13141071Y-15266071D01*
X13126786Y-15237500D01*
X13098214Y-15194643D01*
X13083928Y-15180357D01*
X13626786Y-15637500D02*
X13612500Y-15623214D01*
X13583928Y-15580357D01*
X13569643Y-15551786D01*
X13555357Y-15508929D01*
X13541071Y-15437500D01*
X13541071Y-15380357D01*
X13555357Y-15308929D01*
X13569643Y-15266071D01*
X13583928Y-15237500D01*
X13612500Y-15194643D01*
X13626786Y-15180357D01*
X13741071Y-15323214D02*
X13741071Y-15523214D01*
X13741071Y-15351786D02*
X13755357Y-15337500D01*
X13783928Y-15323214D01*
X13826786Y-15323214D01*
X13855357Y-15337500D01*
X13869643Y-15366071D01*
X13869643Y-15523214D01*
X14055357Y-15523214D02*
X14026786Y-15508929D01*
X14012500Y-15494643D01*
X13998214Y-15466071D01*
X13998214Y-15380357D01*
X14012500Y-15351786D01*
X14026786Y-15337500D01*
X14055357Y-15323214D01*
X14098214Y-15323214D01*
X14126786Y-15337500D01*
X14141071Y-15351786D01*
X14155357Y-15380357D01*
X14155357Y-15466071D01*
X14141071Y-15494643D01*
X14126786Y-15508929D01*
X14098214Y-15523214D01*
X14055357Y-15523214D01*
X14241071Y-15323214D02*
X14355357Y-15323214D01*
X14283928Y-15223214D02*
X14283928Y-15480357D01*
X14298214Y-15508929D01*
X14326786Y-15523214D01*
X14355357Y-15523214D01*
X14683928Y-15323214D02*
X14683928Y-15623214D01*
X14683928Y-15337500D02*
X14712500Y-15323214D01*
X14769643Y-15323214D01*
X14798214Y-15337500D01*
X14812500Y-15351786D01*
X14826786Y-15380357D01*
X14826786Y-15466071D01*
X14812500Y-15494643D01*
X14798214Y-15508929D01*
X14769643Y-15523214D01*
X14712500Y-15523214D01*
X14683928Y-15508929D01*
X14998214Y-15523214D02*
X14969643Y-15508929D01*
X14955357Y-15480357D01*
X14955357Y-15223214D01*
X15241071Y-15523214D02*
X15241071Y-15366071D01*
X15226786Y-15337500D01*
X15198214Y-15323214D01*
X15141071Y-15323214D01*
X15112500Y-15337500D01*
X15241071Y-15508929D02*
X15212500Y-15523214D01*
X15141071Y-15523214D01*
X15112500Y-15508929D01*
X15098214Y-15480357D01*
X15098214Y-15451786D01*
X15112500Y-15423214D01*
X15141071Y-15408929D01*
X15212500Y-15408929D01*
X15241071Y-15394643D01*
X15341071Y-15323214D02*
X15455357Y-15323214D01*
X15383928Y-15223214D02*
X15383928Y-15480357D01*
X15398214Y-15508929D01*
X15426786Y-15523214D01*
X15455357Y-15523214D01*
X15669643Y-15508929D02*
X15641071Y-15523214D01*
X15583928Y-15523214D01*
X15555357Y-15508929D01*
X15541071Y-15480357D01*
X15541071Y-15366071D01*
X15555357Y-15337500D01*
X15583928Y-15323214D01*
X15641071Y-15323214D01*
X15669643Y-15337500D01*
X15683928Y-15366071D01*
X15683928Y-15394643D01*
X15541071Y-15423214D01*
X15941071Y-15523214D02*
X15941071Y-15223214D01*
X15941071Y-15508929D02*
X15912500Y-15523214D01*
X15855357Y-15523214D01*
X15826786Y-15508929D01*
X15812500Y-15494643D01*
X15798214Y-15466071D01*
X15798214Y-15380357D01*
X15812500Y-15351786D01*
X15826786Y-15337500D01*
X15855357Y-15323214D01*
X15912500Y-15323214D01*
X15941071Y-15337500D01*
X16055357Y-15637500D02*
X16069643Y-15623214D01*
X16098214Y-15580357D01*
X16112500Y-15551786D01*
X16126786Y-15508929D01*
X16141071Y-15437500D01*
X16141071Y-15380357D01*
X16126786Y-15308929D01*
X16112500Y-15266071D01*
X16098214Y-15237500D01*
X16069643Y-15194643D01*
X16055357Y-15180357D01*
X6597500Y-15783500D02*
G75*
G03*
X6597500Y-15783500I-160000J0D01*
G01*
X6855357Y-15619214D02*
X7041071Y-15619214D01*
X6941071Y-15733500D01*
X6983928Y-15733500D01*
X7012500Y-15747786D01*
X7026786Y-15762071D01*
X7041071Y-15790643D01*
X7041071Y-15862071D01*
X7026786Y-15890643D01*
X7012500Y-15904929D01*
X6983928Y-15919214D01*
X6898214Y-15919214D01*
X6869643Y-15904929D01*
X6855357Y-15890643D01*
X7169643Y-15890643D02*
X7183928Y-15904929D01*
X7169643Y-15919214D01*
X7155357Y-15904929D01*
X7169643Y-15890643D01*
X7169643Y-15919214D01*
X7298214Y-15647786D02*
X7312500Y-15633500D01*
X7341071Y-15619214D01*
X7412500Y-15619214D01*
X7441071Y-15633500D01*
X7455357Y-15647786D01*
X7469643Y-15676357D01*
X7469643Y-15704929D01*
X7455357Y-15747786D01*
X7283928Y-15919214D01*
X7469643Y-15919214D01*
X7655357Y-15619214D02*
X7683928Y-15619214D01*
X7712500Y-15633500D01*
X7726786Y-15647786D01*
X7741071Y-15676357D01*
X7755357Y-15733500D01*
X7755357Y-15804929D01*
X7741071Y-15862071D01*
X7726786Y-15890643D01*
X7712500Y-15904929D01*
X7683928Y-15919214D01*
X7655357Y-15919214D01*
X7626786Y-15904929D01*
X7612500Y-15890643D01*
X7598214Y-15862071D01*
X7583928Y-15804929D01*
X7583928Y-15733500D01*
X7598214Y-15676357D01*
X7612500Y-15647786D01*
X7626786Y-15633500D01*
X7655357Y-15619214D01*
X7883928Y-15919214D02*
X7883928Y-15719214D01*
X7883928Y-15747786D02*
X7898214Y-15733500D01*
X7926786Y-15719214D01*
X7969643Y-15719214D01*
X7998214Y-15733500D01*
X8012500Y-15762071D01*
X8012500Y-15919214D01*
X8012500Y-15762071D02*
X8026786Y-15733500D01*
X8055357Y-15719214D01*
X8098214Y-15719214D01*
X8126786Y-15733500D01*
X8141071Y-15762071D01*
X8141071Y-15919214D01*
X8283928Y-15919214D02*
X8283928Y-15719214D01*
X8283928Y-15747786D02*
X8298214Y-15733500D01*
X8326786Y-15719214D01*
X8369643Y-15719214D01*
X8398214Y-15733500D01*
X8412500Y-15762071D01*
X8412500Y-15919214D01*
X8412500Y-15762071D02*
X8426786Y-15733500D01*
X8455357Y-15719214D01*
X8498214Y-15719214D01*
X8526786Y-15733500D01*
X8541071Y-15762071D01*
X8541071Y-15919214D01*
X9126786Y-15604929D02*
X8869643Y-15990643D01*
X9512500Y-15619214D02*
X9541071Y-15619214D01*
X9569643Y-15633500D01*
X9583928Y-15647786D01*
X9598214Y-15676357D01*
X9612500Y-15733500D01*
X9612500Y-15804929D01*
X9598214Y-15862071D01*
X9583928Y-15890643D01*
X9569643Y-15904929D01*
X9541071Y-15919214D01*
X9512500Y-15919214D01*
X9483928Y-15904929D01*
X9469643Y-15890643D01*
X9455357Y-15862071D01*
X9441071Y-15804929D01*
X9441071Y-15733500D01*
X9455357Y-15676357D01*
X9469643Y-15647786D01*
X9483928Y-15633500D01*
X9512500Y-15619214D01*
X9741071Y-15890643D02*
X9755357Y-15904929D01*
X9741071Y-15919214D01*
X9726786Y-15904929D01*
X9741071Y-15890643D01*
X9741071Y-15919214D01*
X10041071Y-15919214D02*
X9869643Y-15919214D01*
X9955357Y-15919214D02*
X9955357Y-15619214D01*
X9926786Y-15662071D01*
X9898214Y-15690643D01*
X9869643Y-15704929D01*
X10155357Y-15647786D02*
X10169643Y-15633500D01*
X10198214Y-15619214D01*
X10269643Y-15619214D01*
X10298214Y-15633500D01*
X10312500Y-15647786D01*
X10326786Y-15676357D01*
X10326786Y-15704929D01*
X10312500Y-15747786D01*
X10141071Y-15919214D01*
X10326786Y-15919214D01*
X10583928Y-15619214D02*
X10526786Y-15619214D01*
X10498214Y-15633500D01*
X10483928Y-15647786D01*
X10455357Y-15690643D01*
X10441071Y-15747786D01*
X10441071Y-15862071D01*
X10455357Y-15890643D01*
X10469643Y-15904929D01*
X10498214Y-15919214D01*
X10555357Y-15919214D01*
X10583928Y-15904929D01*
X10598214Y-15890643D01*
X10612500Y-15862071D01*
X10612500Y-15790643D01*
X10598214Y-15762071D01*
X10583928Y-15747786D01*
X10555357Y-15733500D01*
X10498214Y-15733500D01*
X10469643Y-15747786D01*
X10455357Y-15762071D01*
X10441071Y-15790643D01*
X10726786Y-15619214D02*
X10726786Y-15676357D01*
X10841071Y-15619214D02*
X10841071Y-15676357D01*
X11283928Y-16033500D02*
X11269643Y-16019214D01*
X11241071Y-15976357D01*
X11226786Y-15947786D01*
X11212500Y-15904929D01*
X11198214Y-15833500D01*
X11198214Y-15776357D01*
X11212500Y-15704929D01*
X11226786Y-15662071D01*
X11241071Y-15633500D01*
X11269643Y-15590643D01*
X11283928Y-15576357D01*
X11383928Y-15647786D02*
X11398214Y-15633500D01*
X11426786Y-15619214D01*
X11498214Y-15619214D01*
X11526786Y-15633500D01*
X11541071Y-15647786D01*
X11555357Y-15676357D01*
X11555357Y-15704929D01*
X11541071Y-15747786D01*
X11369643Y-15919214D01*
X11555357Y-15919214D01*
X11912500Y-15919214D02*
X11912500Y-15619214D01*
X12041071Y-15919214D02*
X12041071Y-15762071D01*
X12026786Y-15733500D01*
X11998214Y-15719214D01*
X11955357Y-15719214D01*
X11926786Y-15733500D01*
X11912500Y-15747786D01*
X12226786Y-15919214D02*
X12198214Y-15904929D01*
X12183928Y-15890643D01*
X12169643Y-15862071D01*
X12169643Y-15776357D01*
X12183928Y-15747786D01*
X12198214Y-15733500D01*
X12226786Y-15719214D01*
X12269643Y-15719214D01*
X12298214Y-15733500D01*
X12312500Y-15747786D01*
X12326786Y-15776357D01*
X12326786Y-15862071D01*
X12312500Y-15890643D01*
X12298214Y-15904929D01*
X12269643Y-15919214D01*
X12226786Y-15919214D01*
X12498214Y-15919214D02*
X12469643Y-15904929D01*
X12455357Y-15876357D01*
X12455357Y-15619214D01*
X12726786Y-15904929D02*
X12698214Y-15919214D01*
X12641071Y-15919214D01*
X12612500Y-15904929D01*
X12598214Y-15876357D01*
X12598214Y-15762071D01*
X12612500Y-15733500D01*
X12641071Y-15719214D01*
X12698214Y-15719214D01*
X12726786Y-15733500D01*
X12741071Y-15762071D01*
X12741071Y-15790643D01*
X12598214Y-15819214D01*
X12855357Y-15904929D02*
X12883928Y-15919214D01*
X12941071Y-15919214D01*
X12969643Y-15904929D01*
X12983928Y-15876357D01*
X12983928Y-15862071D01*
X12969643Y-15833500D01*
X12941071Y-15819214D01*
X12898214Y-15819214D01*
X12869643Y-15804929D01*
X12855357Y-15776357D01*
X12855357Y-15762071D01*
X12869643Y-15733500D01*
X12898214Y-15719214D01*
X12941071Y-15719214D01*
X12969643Y-15733500D01*
X13083928Y-16033500D02*
X13098214Y-16019214D01*
X13126786Y-15976357D01*
X13141071Y-15947786D01*
X13155357Y-15904929D01*
X13169643Y-15833500D01*
X13169643Y-15776357D01*
X13155357Y-15704929D01*
X13141071Y-15662071D01*
X13126786Y-15633500D01*
X13098214Y-15590643D01*
X13083928Y-15576357D01*
X13626786Y-16033500D02*
X13612500Y-16019214D01*
X13583928Y-15976357D01*
X13569643Y-15947786D01*
X13555357Y-15904929D01*
X13541071Y-15833500D01*
X13541071Y-15776357D01*
X13555357Y-15704929D01*
X13569643Y-15662071D01*
X13583928Y-15633500D01*
X13612500Y-15590643D01*
X13626786Y-15576357D01*
X13741071Y-15719214D02*
X13741071Y-15919214D01*
X13741071Y-15747786D02*
X13755357Y-15733500D01*
X13783928Y-15719214D01*
X13826786Y-15719214D01*
X13855357Y-15733500D01*
X13869643Y-15762071D01*
X13869643Y-15919214D01*
X14055357Y-15919214D02*
X14026786Y-15904929D01*
X14012500Y-15890643D01*
X13998214Y-15862071D01*
X13998214Y-15776357D01*
X14012500Y-15747786D01*
X14026786Y-15733500D01*
X14055357Y-15719214D01*
X14098214Y-15719214D01*
X14126786Y-15733500D01*
X14141071Y-15747786D01*
X14155357Y-15776357D01*
X14155357Y-15862071D01*
X14141071Y-15890643D01*
X14126786Y-15904929D01*
X14098214Y-15919214D01*
X14055357Y-15919214D01*
X14241071Y-15719214D02*
X14355357Y-15719214D01*
X14283928Y-15619214D02*
X14283928Y-15876357D01*
X14298214Y-15904929D01*
X14326786Y-15919214D01*
X14355357Y-15919214D01*
X14683928Y-15719214D02*
X14683928Y-16019214D01*
X14683928Y-15733500D02*
X14712500Y-15719214D01*
X14769643Y-15719214D01*
X14798214Y-15733500D01*
X14812500Y-15747786D01*
X14826786Y-15776357D01*
X14826786Y-15862071D01*
X14812500Y-15890643D01*
X14798214Y-15904929D01*
X14769643Y-15919214D01*
X14712500Y-15919214D01*
X14683928Y-15904929D01*
X14998214Y-15919214D02*
X14969643Y-15904929D01*
X14955357Y-15876357D01*
X14955357Y-15619214D01*
X15241071Y-15919214D02*
X15241071Y-15762071D01*
X15226786Y-15733500D01*
X15198214Y-15719214D01*
X15141071Y-15719214D01*
X15112500Y-15733500D01*
X15241071Y-15904929D02*
X15212500Y-15919214D01*
X15141071Y-15919214D01*
X15112500Y-15904929D01*
X15098214Y-15876357D01*
X15098214Y-15847786D01*
X15112500Y-15819214D01*
X15141071Y-15804929D01*
X15212500Y-15804929D01*
X15241071Y-15790643D01*
X15341071Y-15719214D02*
X15455357Y-15719214D01*
X15383928Y-15619214D02*
X15383928Y-15876357D01*
X15398214Y-15904929D01*
X15426786Y-15919214D01*
X15455357Y-15919214D01*
X15669643Y-15904929D02*
X15641071Y-15919214D01*
X15583928Y-15919214D01*
X15555357Y-15904929D01*
X15541071Y-15876357D01*
X15541071Y-15762071D01*
X15555357Y-15733500D01*
X15583928Y-15719214D01*
X15641071Y-15719214D01*
X15669643Y-15733500D01*
X15683928Y-15762071D01*
X15683928Y-15790643D01*
X15541071Y-15819214D01*
X15941071Y-15919214D02*
X15941071Y-15619214D01*
X15941071Y-15904929D02*
X15912500Y-15919214D01*
X15855357Y-15919214D01*
X15826786Y-15904929D01*
X15812500Y-15890643D01*
X15798214Y-15862071D01*
X15798214Y-15776357D01*
X15812500Y-15747786D01*
X15826786Y-15733500D01*
X15855357Y-15719214D01*
X15912500Y-15719214D01*
X15941071Y-15733500D01*
X16055357Y-16033500D02*
X16069643Y-16019214D01*
X16098214Y-15976357D01*
X16112500Y-15947786D01*
X16126786Y-15904929D01*
X16141071Y-15833500D01*
X16141071Y-15776357D01*
X16126786Y-15704929D01*
X16112500Y-15662071D01*
X16098214Y-15633500D01*
X16069643Y-15590643D01*
X16055357Y-15576357D01*
X6435000Y-16071000D02*
X6435000Y-16396000D01*
X6272500Y-16233500D02*
X6597500Y-16233500D01*
X6855357Y-16069214D02*
X7041071Y-16069214D01*
X6941071Y-16183500D01*
X6983928Y-16183500D01*
X7012500Y-16197786D01*
X7026786Y-16212071D01*
X7041071Y-16240643D01*
X7041071Y-16312071D01*
X7026786Y-16340643D01*
X7012500Y-16354929D01*
X6983928Y-16369214D01*
X6898214Y-16369214D01*
X6869643Y-16354929D01*
X6855357Y-16340643D01*
X7169643Y-16340643D02*
X7183928Y-16354929D01*
X7169643Y-16369214D01*
X7155357Y-16354929D01*
X7169643Y-16340643D01*
X7169643Y-16369214D01*
X7298214Y-16097786D02*
X7312500Y-16083500D01*
X7341071Y-16069214D01*
X7412500Y-16069214D01*
X7441071Y-16083500D01*
X7455357Y-16097786D01*
X7469643Y-16126357D01*
X7469643Y-16154929D01*
X7455357Y-16197786D01*
X7283928Y-16369214D01*
X7469643Y-16369214D01*
X7741071Y-16069214D02*
X7598214Y-16069214D01*
X7583928Y-16212071D01*
X7598214Y-16197786D01*
X7626786Y-16183500D01*
X7698214Y-16183500D01*
X7726786Y-16197786D01*
X7741071Y-16212071D01*
X7755357Y-16240643D01*
X7755357Y-16312071D01*
X7741071Y-16340643D01*
X7726786Y-16354929D01*
X7698214Y-16369214D01*
X7626786Y-16369214D01*
X7598214Y-16354929D01*
X7583928Y-16340643D01*
X7883928Y-16369214D02*
X7883928Y-16169214D01*
X7883928Y-16197786D02*
X7898214Y-16183500D01*
X7926786Y-16169214D01*
X7969643Y-16169214D01*
X7998214Y-16183500D01*
X8012500Y-16212071D01*
X8012500Y-16369214D01*
X8012500Y-16212071D02*
X8026786Y-16183500D01*
X8055357Y-16169214D01*
X8098214Y-16169214D01*
X8126786Y-16183500D01*
X8141071Y-16212071D01*
X8141071Y-16369214D01*
X8283928Y-16369214D02*
X8283928Y-16169214D01*
X8283928Y-16197786D02*
X8298214Y-16183500D01*
X8326786Y-16169214D01*
X8369643Y-16169214D01*
X8398214Y-16183500D01*
X8412500Y-16212071D01*
X8412500Y-16369214D01*
X8412500Y-16212071D02*
X8426786Y-16183500D01*
X8455357Y-16169214D01*
X8498214Y-16169214D01*
X8526786Y-16183500D01*
X8541071Y-16212071D01*
X8541071Y-16369214D01*
X9126786Y-16054929D02*
X8869643Y-16440643D01*
X9512500Y-16069214D02*
X9541071Y-16069214D01*
X9569643Y-16083500D01*
X9583928Y-16097786D01*
X9598214Y-16126357D01*
X9612500Y-16183500D01*
X9612500Y-16254929D01*
X9598214Y-16312071D01*
X9583928Y-16340643D01*
X9569643Y-16354929D01*
X9541071Y-16369214D01*
X9512500Y-16369214D01*
X9483928Y-16354929D01*
X9469643Y-16340643D01*
X9455357Y-16312071D01*
X9441071Y-16254929D01*
X9441071Y-16183500D01*
X9455357Y-16126357D01*
X9469643Y-16097786D01*
X9483928Y-16083500D01*
X9512500Y-16069214D01*
X9741071Y-16340643D02*
X9755357Y-16354929D01*
X9741071Y-16369214D01*
X9726786Y-16354929D01*
X9741071Y-16340643D01*
X9741071Y-16369214D01*
X10041071Y-16369214D02*
X9869643Y-16369214D01*
X9955357Y-16369214D02*
X9955357Y-16069214D01*
X9926786Y-16112071D01*
X9898214Y-16140643D01*
X9869643Y-16154929D01*
X10155357Y-16097786D02*
X10169643Y-16083500D01*
X10198214Y-16069214D01*
X10269643Y-16069214D01*
X10298214Y-16083500D01*
X10312500Y-16097786D01*
X10326786Y-16126357D01*
X10326786Y-16154929D01*
X10312500Y-16197786D01*
X10141071Y-16369214D01*
X10326786Y-16369214D01*
X10498214Y-16197786D02*
X10469643Y-16183500D01*
X10455357Y-16169214D01*
X10441071Y-16140643D01*
X10441071Y-16126357D01*
X10455357Y-16097786D01*
X10469643Y-16083500D01*
X10498214Y-16069214D01*
X10555357Y-16069214D01*
X10583928Y-16083500D01*
X10598214Y-16097786D01*
X10612500Y-16126357D01*
X10612500Y-16140643D01*
X10598214Y-16169214D01*
X10583928Y-16183500D01*
X10555357Y-16197786D01*
X10498214Y-16197786D01*
X10469643Y-16212071D01*
X10455357Y-16226357D01*
X10441071Y-16254929D01*
X10441071Y-16312071D01*
X10455357Y-16340643D01*
X10469643Y-16354929D01*
X10498214Y-16369214D01*
X10555357Y-16369214D01*
X10583928Y-16354929D01*
X10598214Y-16340643D01*
X10612500Y-16312071D01*
X10612500Y-16254929D01*
X10598214Y-16226357D01*
X10583928Y-16212071D01*
X10555357Y-16197786D01*
X10726786Y-16069214D02*
X10726786Y-16126357D01*
X10841071Y-16069214D02*
X10841071Y-16126357D01*
X11283928Y-16483500D02*
X11269643Y-16469214D01*
X11241071Y-16426357D01*
X11226786Y-16397786D01*
X11212500Y-16354929D01*
X11198214Y-16283500D01*
X11198214Y-16226357D01*
X11212500Y-16154929D01*
X11226786Y-16112071D01*
X11241071Y-16083500D01*
X11269643Y-16040643D01*
X11283928Y-16026357D01*
X11383928Y-16097786D02*
X11398214Y-16083500D01*
X11426786Y-16069214D01*
X11498214Y-16069214D01*
X11526786Y-16083500D01*
X11541071Y-16097786D01*
X11555357Y-16126357D01*
X11555357Y-16154929D01*
X11541071Y-16197786D01*
X11369643Y-16369214D01*
X11555357Y-16369214D01*
X11912500Y-16369214D02*
X11912500Y-16069214D01*
X12041071Y-16369214D02*
X12041071Y-16212071D01*
X12026786Y-16183500D01*
X11998214Y-16169214D01*
X11955357Y-16169214D01*
X11926786Y-16183500D01*
X11912500Y-16197786D01*
X12226786Y-16369214D02*
X12198214Y-16354929D01*
X12183928Y-16340643D01*
X12169643Y-16312071D01*
X12169643Y-16226357D01*
X12183928Y-16197786D01*
X12198214Y-16183500D01*
X12226786Y-16169214D01*
X12269643Y-16169214D01*
X12298214Y-16183500D01*
X12312500Y-16197786D01*
X12326786Y-16226357D01*
X12326786Y-16312071D01*
X12312500Y-16340643D01*
X12298214Y-16354929D01*
X12269643Y-16369214D01*
X12226786Y-16369214D01*
X12498214Y-16369214D02*
X12469643Y-16354929D01*
X12455357Y-16326357D01*
X12455357Y-16069214D01*
X12726786Y-16354929D02*
X12698214Y-16369214D01*
X12641071Y-16369214D01*
X12612500Y-16354929D01*
X12598214Y-16326357D01*
X12598214Y-16212071D01*
X12612500Y-16183500D01*
X12641071Y-16169214D01*
X12698214Y-16169214D01*
X12726786Y-16183500D01*
X12741071Y-16212071D01*
X12741071Y-16240643D01*
X12598214Y-16269214D01*
X12855357Y-16354929D02*
X12883928Y-16369214D01*
X12941071Y-16369214D01*
X12969643Y-16354929D01*
X12983928Y-16326357D01*
X12983928Y-16312071D01*
X12969643Y-16283500D01*
X12941071Y-16269214D01*
X12898214Y-16269214D01*
X12869643Y-16254929D01*
X12855357Y-16226357D01*
X12855357Y-16212071D01*
X12869643Y-16183500D01*
X12898214Y-16169214D01*
X12941071Y-16169214D01*
X12969643Y-16183500D01*
X13083928Y-16483500D02*
X13098214Y-16469214D01*
X13126786Y-16426357D01*
X13141071Y-16397786D01*
X13155357Y-16354929D01*
X13169643Y-16283500D01*
X13169643Y-16226357D01*
X13155357Y-16154929D01*
X13141071Y-16112071D01*
X13126786Y-16083500D01*
X13098214Y-16040643D01*
X13083928Y-16026357D01*
X13626786Y-16483500D02*
X13612500Y-16469214D01*
X13583928Y-16426357D01*
X13569643Y-16397786D01*
X13555357Y-16354929D01*
X13541071Y-16283500D01*
X13541071Y-16226357D01*
X13555357Y-16154929D01*
X13569643Y-16112071D01*
X13583928Y-16083500D01*
X13612500Y-16040643D01*
X13626786Y-16026357D01*
X13741071Y-16169214D02*
X13741071Y-16369214D01*
X13741071Y-16197786D02*
X13755357Y-16183500D01*
X13783928Y-16169214D01*
X13826786Y-16169214D01*
X13855357Y-16183500D01*
X13869643Y-16212071D01*
X13869643Y-16369214D01*
X14055357Y-16369214D02*
X14026786Y-16354929D01*
X14012500Y-16340643D01*
X13998214Y-16312071D01*
X13998214Y-16226357D01*
X14012500Y-16197786D01*
X14026786Y-16183500D01*
X14055357Y-16169214D01*
X14098214Y-16169214D01*
X14126786Y-16183500D01*
X14141071Y-16197786D01*
X14155357Y-16226357D01*
X14155357Y-16312071D01*
X14141071Y-16340643D01*
X14126786Y-16354929D01*
X14098214Y-16369214D01*
X14055357Y-16369214D01*
X14241071Y-16169214D02*
X14355357Y-16169214D01*
X14283928Y-16069214D02*
X14283928Y-16326357D01*
X14298214Y-16354929D01*
X14326786Y-16369214D01*
X14355357Y-16369214D01*
X14683928Y-16169214D02*
X14683928Y-16469214D01*
X14683928Y-16183500D02*
X14712500Y-16169214D01*
X14769643Y-16169214D01*
X14798214Y-16183500D01*
X14812500Y-16197786D01*
X14826786Y-16226357D01*
X14826786Y-16312071D01*
X14812500Y-16340643D01*
X14798214Y-16354929D01*
X14769643Y-16369214D01*
X14712500Y-16369214D01*
X14683928Y-16354929D01*
X14998214Y-16369214D02*
X14969643Y-16354929D01*
X14955357Y-16326357D01*
X14955357Y-16069214D01*
X15241071Y-16369214D02*
X15241071Y-16212071D01*
X15226786Y-16183500D01*
X15198214Y-16169214D01*
X15141071Y-16169214D01*
X15112500Y-16183500D01*
X15241071Y-16354929D02*
X15212500Y-16369214D01*
X15141071Y-16369214D01*
X15112500Y-16354929D01*
X15098214Y-16326357D01*
X15098214Y-16297786D01*
X15112500Y-16269214D01*
X15141071Y-16254929D01*
X15212500Y-16254929D01*
X15241071Y-16240643D01*
X15341071Y-16169214D02*
X15455357Y-16169214D01*
X15383928Y-16069214D02*
X15383928Y-16326357D01*
X15398214Y-16354929D01*
X15426786Y-16369214D01*
X15455357Y-16369214D01*
X15669643Y-16354929D02*
X15641071Y-16369214D01*
X15583928Y-16369214D01*
X15555357Y-16354929D01*
X15541071Y-16326357D01*
X15541071Y-16212071D01*
X15555357Y-16183500D01*
X15583928Y-16169214D01*
X15641071Y-16169214D01*
X15669643Y-16183500D01*
X15683928Y-16212071D01*
X15683928Y-16240643D01*
X15541071Y-16269214D01*
X15941071Y-16369214D02*
X15941071Y-16069214D01*
X15941071Y-16354929D02*
X15912500Y-16369214D01*
X15855357Y-16369214D01*
X15826786Y-16354929D01*
X15812500Y-16340643D01*
X15798214Y-16312071D01*
X15798214Y-16226357D01*
X15812500Y-16197786D01*
X15826786Y-16183500D01*
X15855357Y-16169214D01*
X15912500Y-16169214D01*
X15941071Y-16183500D01*
X16055357Y-16483500D02*
X16069643Y-16469214D01*
X16098214Y-16426357D01*
X16112500Y-16397786D01*
X16126786Y-16354929D01*
X16141071Y-16283500D01*
X16141071Y-16226357D01*
X16126786Y-16154929D01*
X16112500Y-16112071D01*
X16098214Y-16083500D01*
X16069643Y-16040643D01*
X16055357Y-16026357D01*
M02*
