M48
; DRILL file {KiCad (5.1.7)-1} date 06/27/21 15:00:10
; FORMAT={-:-/ absolute / metric / decimal}
; #@! TF.CreationDate,2021-06-27T15:00:10+02:00
; #@! TF.GenerationSoftware,Kicad,Pcbnew,(5.1.7)-1
; #@! TF.FileFunction,Plated,1,2,PTH
FMAT,2
METRIC
T1C0.400
T2C0.760
T3C1.000
%
G90
G05
T1
X68.25Y-79.5
X68.25Y-91.5
X68.25Y-109.5
X68.25Y-115.5
X68.25Y-121.5
X68.25Y-127.5
X69.25Y-97.25
X72.8Y-77.2
X75.25Y-91.5
X75.25Y-97.5
X75.25Y-103.5
X75.25Y-127.5
X75.25Y-133.5
X75.25Y-139.5
X76.0Y-102.5
X77.2Y-79.2
X77.35Y-67.9
X77.5Y-136.5
X77.8Y-97.6
X78.4Y-70.4
X78.5Y-86.5
X79.6Y-97.6
X81.4Y-97.6
X82.0Y-110.0
X82.25Y-121.5
X82.25Y-127.5
X82.25Y-133.5
X82.25Y-139.5
X85.0Y-129.0
X86.0Y-86.45
X86.5Y-108.0
X88.0Y-140.0
X89.25Y-67.5
X89.25Y-85.5
X89.25Y-103.5
X89.25Y-115.5
X92.0Y-120.0
X95.0Y-71.0
X96.0Y-96.5
X96.25Y-91.5
X96.25Y-127.5
X96.25Y-133.5
X98.275Y-118.4
X98.275Y-120.4
X98.275Y-122.4
X98.275Y-124.4
X98.275Y-126.4
X99.8Y-89.8
T2
X81.15Y-79.96
X82.42Y-82.5
X83.69Y-79.96
X84.96Y-82.5
X86.23Y-79.96
X87.5Y-82.5
T3
X67.8Y-129.05
X67.8Y-131.59
X67.8Y-134.13
X67.8Y-136.67
X67.8Y-139.21
X67.8Y-141.75
T0
M30
