G04 #@! TF.GenerationSoftware,KiCad,Pcbnew,(5.1.7)-1*
G04 #@! TF.CreationDate,2021-06-29T10:42:22+02:00*
G04 #@! TF.ProjectId,TwomesGateway,54776f6d-6573-4476-9174-657761792e6b,rev?*
G04 #@! TF.SameCoordinates,Original*
G04 #@! TF.FileFunction,Legend,Bot*
G04 #@! TF.FilePolarity,Positive*
%FSLAX46Y46*%
G04 Gerber Fmt 4.6, Leading zero omitted, Abs format (unit mm)*
G04 Created by KiCad (PCBNEW (5.1.7)-1) date 2021-06-29 10:42:22*
%MOMM*%
%LPD*%
G01*
G04 APERTURE LIST*
%ADD10C,0.150000*%
%ADD11C,1.000000*%
%ADD12C,0.602000*%
%ADD13C,3.302000*%
%ADD14C,3.352000*%
%ADD15C,1.622000*%
%ADD16O,1.802000X1.802000*%
G04 APERTURE END LIST*
D10*
X69827380Y-80985714D02*
X70827380Y-81223809D01*
X70113095Y-81414285D01*
X70827380Y-81604761D01*
X69827380Y-81842857D01*
X70827380Y-82223809D02*
X70160714Y-82223809D01*
X69827380Y-82223809D02*
X69875000Y-82176190D01*
X69922619Y-82223809D01*
X69875000Y-82271428D01*
X69827380Y-82223809D01*
X69922619Y-82223809D01*
X70160714Y-82700000D02*
X70827380Y-82700000D01*
X70255952Y-82700000D02*
X70208333Y-82747619D01*
X70160714Y-82842857D01*
X70160714Y-82985714D01*
X70208333Y-83080952D01*
X70303571Y-83128571D01*
X70827380Y-83128571D01*
X70827380Y-84033333D02*
X69827380Y-84033333D01*
X70779761Y-84033333D02*
X70827380Y-83938095D01*
X70827380Y-83747619D01*
X70779761Y-83652380D01*
X70732142Y-83604761D01*
X70636904Y-83557142D01*
X70351190Y-83557142D01*
X70255952Y-83604761D01*
X70208333Y-83652380D01*
X70160714Y-83747619D01*
X70160714Y-83938095D01*
X70208333Y-84033333D01*
X70779761Y-84890476D02*
X70827380Y-84795238D01*
X70827380Y-84604761D01*
X70779761Y-84509523D01*
X70684523Y-84461904D01*
X70303571Y-84461904D01*
X70208333Y-84509523D01*
X70160714Y-84604761D01*
X70160714Y-84795238D01*
X70208333Y-84890476D01*
X70303571Y-84938095D01*
X70398809Y-84938095D01*
X70494047Y-84461904D01*
X70779761Y-85319047D02*
X70827380Y-85414285D01*
X70827380Y-85604761D01*
X70779761Y-85700000D01*
X70684523Y-85747619D01*
X70636904Y-85747619D01*
X70541666Y-85700000D01*
X70494047Y-85604761D01*
X70494047Y-85461904D01*
X70446428Y-85366666D01*
X70351190Y-85319047D01*
X70303571Y-85319047D01*
X70208333Y-85366666D01*
X70160714Y-85461904D01*
X70160714Y-85604761D01*
X70208333Y-85700000D01*
X70827380Y-86176190D02*
X69827380Y-86176190D01*
X70827380Y-86604761D02*
X70303571Y-86604761D01*
X70208333Y-86557142D01*
X70160714Y-86461904D01*
X70160714Y-86319047D01*
X70208333Y-86223809D01*
X70255952Y-86176190D01*
X70779761Y-87461904D02*
X70827380Y-87366666D01*
X70827380Y-87176190D01*
X70779761Y-87080952D01*
X70684523Y-87033333D01*
X70303571Y-87033333D01*
X70208333Y-87080952D01*
X70160714Y-87176190D01*
X70160714Y-87366666D01*
X70208333Y-87461904D01*
X70303571Y-87509523D01*
X70398809Y-87509523D01*
X70494047Y-87033333D01*
X70827380Y-87938095D02*
X70160714Y-87938095D01*
X69827380Y-87938095D02*
X69875000Y-87890476D01*
X69922619Y-87938095D01*
X69875000Y-87985714D01*
X69827380Y-87938095D01*
X69922619Y-87938095D01*
X70827380Y-88414285D02*
X70160714Y-88414285D01*
X70255952Y-88414285D02*
X70208333Y-88461904D01*
X70160714Y-88557142D01*
X70160714Y-88700000D01*
X70208333Y-88795238D01*
X70303571Y-88842857D01*
X70827380Y-88842857D01*
X70303571Y-88842857D02*
X70208333Y-88890476D01*
X70160714Y-88985714D01*
X70160714Y-89128571D01*
X70208333Y-89223809D01*
X70303571Y-89271428D01*
X70827380Y-89271428D01*
X69827380Y-90509523D02*
X70636904Y-90509523D01*
X70732142Y-90557142D01*
X70779761Y-90604761D01*
X70827380Y-90700000D01*
X70827380Y-90890476D01*
X70779761Y-90985714D01*
X70732142Y-91033333D01*
X70636904Y-91080952D01*
X69827380Y-91080952D01*
X70160714Y-91557142D02*
X70827380Y-91557142D01*
X70255952Y-91557142D02*
X70208333Y-91604761D01*
X70160714Y-91700000D01*
X70160714Y-91842857D01*
X70208333Y-91938095D01*
X70303571Y-91985714D01*
X70827380Y-91985714D01*
X70827380Y-92461904D02*
X70160714Y-92461904D01*
X69827380Y-92461904D02*
X69875000Y-92414285D01*
X69922619Y-92461904D01*
X69875000Y-92509523D01*
X69827380Y-92461904D01*
X69922619Y-92461904D01*
X70160714Y-92842857D02*
X70827380Y-93080952D01*
X70160714Y-93319047D01*
X70779761Y-94080952D02*
X70827380Y-93985714D01*
X70827380Y-93795238D01*
X70779761Y-93700000D01*
X70684523Y-93652380D01*
X70303571Y-93652380D01*
X70208333Y-93700000D01*
X70160714Y-93795238D01*
X70160714Y-93985714D01*
X70208333Y-94080952D01*
X70303571Y-94128571D01*
X70398809Y-94128571D01*
X70494047Y-93652380D01*
X70827380Y-94557142D02*
X70160714Y-94557142D01*
X70351190Y-94557142D02*
X70255952Y-94604761D01*
X70208333Y-94652380D01*
X70160714Y-94747619D01*
X70160714Y-94842857D01*
X70779761Y-95128571D02*
X70827380Y-95223809D01*
X70827380Y-95414285D01*
X70779761Y-95509523D01*
X70684523Y-95557142D01*
X70636904Y-95557142D01*
X70541666Y-95509523D01*
X70494047Y-95414285D01*
X70494047Y-95271428D01*
X70446428Y-95176190D01*
X70351190Y-95128571D01*
X70303571Y-95128571D01*
X70208333Y-95176190D01*
X70160714Y-95271428D01*
X70160714Y-95414285D01*
X70208333Y-95509523D01*
X70827380Y-95985714D02*
X70160714Y-95985714D01*
X69827380Y-95985714D02*
X69875000Y-95938095D01*
X69922619Y-95985714D01*
X69875000Y-96033333D01*
X69827380Y-95985714D01*
X69922619Y-95985714D01*
X70160714Y-96319047D02*
X70160714Y-96700000D01*
X69827380Y-96461904D02*
X70684523Y-96461904D01*
X70779761Y-96509523D01*
X70827380Y-96604761D01*
X70827380Y-96700000D01*
X70160714Y-96938095D02*
X70827380Y-97176190D01*
X70160714Y-97414285D02*
X70827380Y-97176190D01*
X71065476Y-97080952D01*
X71113095Y-97033333D01*
X71160714Y-96938095D01*
X72477380Y-82080952D02*
X72429761Y-81985714D01*
X72382142Y-81938095D01*
X72286904Y-81890476D01*
X72001190Y-81890476D01*
X71905952Y-81938095D01*
X71858333Y-81985714D01*
X71810714Y-82080952D01*
X71810714Y-82223809D01*
X71858333Y-82319047D01*
X71905952Y-82366666D01*
X72001190Y-82414285D01*
X72286904Y-82414285D01*
X72382142Y-82366666D01*
X72429761Y-82319047D01*
X72477380Y-82223809D01*
X72477380Y-82080952D01*
X71810714Y-82700000D02*
X71810714Y-83080952D01*
X72477380Y-82842857D02*
X71620238Y-82842857D01*
X71525000Y-82890476D01*
X71477380Y-82985714D01*
X71477380Y-83080952D01*
X72191666Y-84128571D02*
X72191666Y-84604761D01*
X72477380Y-84033333D02*
X71477380Y-84366666D01*
X72477380Y-84700000D01*
X71810714Y-85033333D02*
X72810714Y-85033333D01*
X71858333Y-85033333D02*
X71810714Y-85128571D01*
X71810714Y-85319047D01*
X71858333Y-85414285D01*
X71905952Y-85461904D01*
X72001190Y-85509523D01*
X72286904Y-85509523D01*
X72382142Y-85461904D01*
X72429761Y-85414285D01*
X72477380Y-85319047D01*
X72477380Y-85128571D01*
X72429761Y-85033333D01*
X71810714Y-85938095D02*
X72810714Y-85938095D01*
X71858333Y-85938095D02*
X71810714Y-86033333D01*
X71810714Y-86223809D01*
X71858333Y-86319047D01*
X71905952Y-86366666D01*
X72001190Y-86414285D01*
X72286904Y-86414285D01*
X72382142Y-86366666D01*
X72429761Y-86319047D01*
X72477380Y-86223809D01*
X72477380Y-86033333D01*
X72429761Y-85938095D01*
X72477380Y-86985714D02*
X72429761Y-86890476D01*
X72334523Y-86842857D01*
X71477380Y-86842857D01*
X72477380Y-87366666D02*
X71810714Y-87366666D01*
X71477380Y-87366666D02*
X71525000Y-87319047D01*
X71572619Y-87366666D01*
X71525000Y-87414285D01*
X71477380Y-87366666D01*
X71572619Y-87366666D01*
X72429761Y-88223809D02*
X72477380Y-88128571D01*
X72477380Y-87938095D01*
X72429761Y-87842857D01*
X72334523Y-87795238D01*
X71953571Y-87795238D01*
X71858333Y-87842857D01*
X71810714Y-87938095D01*
X71810714Y-88128571D01*
X71858333Y-88223809D01*
X71953571Y-88271428D01*
X72048809Y-88271428D01*
X72144047Y-87795238D01*
X72477380Y-89128571D02*
X71477380Y-89128571D01*
X72429761Y-89128571D02*
X72477380Y-89033333D01*
X72477380Y-88842857D01*
X72429761Y-88747619D01*
X72382142Y-88700000D01*
X72286904Y-88652380D01*
X72001190Y-88652380D01*
X71905952Y-88700000D01*
X71858333Y-88747619D01*
X71810714Y-88842857D01*
X71810714Y-89033333D01*
X71858333Y-89128571D01*
X72429761Y-90319047D02*
X72477380Y-90461904D01*
X72477380Y-90700000D01*
X72429761Y-90795238D01*
X72382142Y-90842857D01*
X72286904Y-90890476D01*
X72191666Y-90890476D01*
X72096428Y-90842857D01*
X72048809Y-90795238D01*
X72001190Y-90700000D01*
X71953571Y-90509523D01*
X71905952Y-90414285D01*
X71858333Y-90366666D01*
X71763095Y-90319047D01*
X71667857Y-90319047D01*
X71572619Y-90366666D01*
X71525000Y-90414285D01*
X71477380Y-90509523D01*
X71477380Y-90747619D01*
X71525000Y-90890476D01*
X72429761Y-91747619D02*
X72477380Y-91652380D01*
X72477380Y-91461904D01*
X72429761Y-91366666D01*
X72382142Y-91319047D01*
X72286904Y-91271428D01*
X72001190Y-91271428D01*
X71905952Y-91319047D01*
X71858333Y-91366666D01*
X71810714Y-91461904D01*
X71810714Y-91652380D01*
X71858333Y-91747619D01*
X72477380Y-92176190D02*
X71810714Y-92176190D01*
X71477380Y-92176190D02*
X71525000Y-92128571D01*
X71572619Y-92176190D01*
X71525000Y-92223809D01*
X71477380Y-92176190D01*
X71572619Y-92176190D01*
X72429761Y-93033333D02*
X72477380Y-92938095D01*
X72477380Y-92747619D01*
X72429761Y-92652380D01*
X72334523Y-92604761D01*
X71953571Y-92604761D01*
X71858333Y-92652380D01*
X71810714Y-92747619D01*
X71810714Y-92938095D01*
X71858333Y-93033333D01*
X71953571Y-93080952D01*
X72048809Y-93080952D01*
X72144047Y-92604761D01*
X71810714Y-93509523D02*
X72477380Y-93509523D01*
X71905952Y-93509523D02*
X71858333Y-93557142D01*
X71810714Y-93652380D01*
X71810714Y-93795238D01*
X71858333Y-93890476D01*
X71953571Y-93938095D01*
X72477380Y-93938095D01*
X72429761Y-94842857D02*
X72477380Y-94747619D01*
X72477380Y-94557142D01*
X72429761Y-94461904D01*
X72382142Y-94414285D01*
X72286904Y-94366666D01*
X72001190Y-94366666D01*
X71905952Y-94414285D01*
X71858333Y-94461904D01*
X71810714Y-94557142D01*
X71810714Y-94747619D01*
X71858333Y-94842857D01*
X72429761Y-95652380D02*
X72477380Y-95557142D01*
X72477380Y-95366666D01*
X72429761Y-95271428D01*
X72334523Y-95223809D01*
X71953571Y-95223809D01*
X71858333Y-95271428D01*
X71810714Y-95366666D01*
X71810714Y-95557142D01*
X71858333Y-95652380D01*
X71953571Y-95700000D01*
X72048809Y-95700000D01*
X72144047Y-95223809D01*
X72429761Y-96080952D02*
X72477380Y-96176190D01*
X72477380Y-96366666D01*
X72429761Y-96461904D01*
X72334523Y-96509523D01*
X72286904Y-96509523D01*
X72191666Y-96461904D01*
X72144047Y-96366666D01*
X72144047Y-96223809D01*
X72096428Y-96128571D01*
X72001190Y-96080952D01*
X71953571Y-96080952D01*
X71858333Y-96128571D01*
X71810714Y-96223809D01*
X71810714Y-96366666D01*
X71858333Y-96461904D01*
D11*
X75714285Y-83571428D02*
X75714285Y-87000000D01*
X81714285Y-85285714D02*
X75714285Y-85285714D01*
X75714285Y-88428571D02*
X81714285Y-89857142D01*
X77428571Y-91000000D01*
X81714285Y-92142857D01*
X75714285Y-93571428D01*
X75714285Y-97000000D02*
X75714285Y-98142857D01*
X76000000Y-98714285D01*
X76571428Y-99285714D01*
X77714285Y-99571428D01*
X79714285Y-99571428D01*
X80857142Y-99285714D01*
X81428571Y-98714285D01*
X81714285Y-98142857D01*
X81714285Y-97000000D01*
X81428571Y-96428571D01*
X80857142Y-95857142D01*
X79714285Y-95571428D01*
X77714285Y-95571428D01*
X76571428Y-95857142D01*
X76000000Y-96428571D01*
X75714285Y-97000000D01*
X81714285Y-102142857D02*
X75714285Y-102142857D01*
X80000000Y-104142857D01*
X75714285Y-106142857D01*
X81714285Y-106142857D01*
X78571428Y-109000000D02*
X78571428Y-111000000D01*
X81714285Y-111857142D02*
X81714285Y-109000000D01*
X75714285Y-109000000D01*
X75714285Y-111857142D01*
X81428571Y-114142857D02*
X81714285Y-115000000D01*
X81714285Y-116428571D01*
X81428571Y-117000000D01*
X81142857Y-117285714D01*
X80571428Y-117571428D01*
X80000000Y-117571428D01*
X79428571Y-117285714D01*
X79142857Y-117000000D01*
X78857142Y-116428571D01*
X78571428Y-115285714D01*
X78285714Y-114714285D01*
X78000000Y-114428571D01*
X77428571Y-114142857D01*
X76857142Y-114142857D01*
X76285714Y-114428571D01*
X76000000Y-114714285D01*
X75714285Y-115285714D01*
X75714285Y-116714285D01*
X76000000Y-117571428D01*
X81714285Y-124714285D02*
X75714285Y-124714285D01*
X75714285Y-127000000D01*
X76000000Y-127571428D01*
X76285714Y-127857142D01*
X76857142Y-128142857D01*
X77714285Y-128142857D01*
X78285714Y-127857142D01*
X78571428Y-127571428D01*
X78857142Y-127000000D01*
X78857142Y-124714285D01*
X81714285Y-133857142D02*
X81714285Y-130428571D01*
X81714285Y-132142857D02*
X75714285Y-132142857D01*
X76571428Y-131571428D01*
X77142857Y-131000000D01*
X77428571Y-130428571D01*
X86000000Y-94428571D02*
X85714285Y-93857142D01*
X85714285Y-93000000D01*
X86000000Y-92142857D01*
X86571428Y-91571428D01*
X87142857Y-91285714D01*
X88285714Y-91000000D01*
X89142857Y-91000000D01*
X90285714Y-91285714D01*
X90857142Y-91571428D01*
X91428571Y-92142857D01*
X91714285Y-93000000D01*
X91714285Y-93571428D01*
X91428571Y-94428571D01*
X91142857Y-94714285D01*
X89142857Y-94714285D01*
X89142857Y-93571428D01*
X90000000Y-97000000D02*
X90000000Y-99857142D01*
X91714285Y-96428571D02*
X85714285Y-98428571D01*
X91714285Y-100428571D01*
X85714285Y-101571428D02*
X85714285Y-105000000D01*
X91714285Y-103285714D02*
X85714285Y-103285714D01*
X88571428Y-107000000D02*
X88571428Y-109000000D01*
X91714285Y-109857142D02*
X91714285Y-107000000D01*
X85714285Y-107000000D01*
X85714285Y-109857142D01*
X85714285Y-111857142D02*
X91714285Y-113285714D01*
X87428571Y-114428571D01*
X91714285Y-115571428D01*
X85714285Y-117000000D01*
X90000000Y-119000000D02*
X90000000Y-121857142D01*
X91714285Y-118428571D02*
X85714285Y-120428571D01*
X91714285Y-122428571D01*
X88857142Y-125571428D02*
X91714285Y-125571428D01*
X85714285Y-123571428D02*
X88857142Y-125571428D01*
X85714285Y-127571428D01*
D10*
X70761904Y-138552380D02*
X70190476Y-138552380D01*
X70476190Y-139552380D02*
X70476190Y-138552380D01*
X69952380Y-138552380D02*
X69285714Y-139552380D01*
X69285714Y-138552380D02*
X69952380Y-139552380D01*
X70266666Y-137152380D02*
X70600000Y-136676190D01*
X70838095Y-137152380D02*
X70838095Y-136152380D01*
X70457142Y-136152380D01*
X70361904Y-136200000D01*
X70314285Y-136247619D01*
X70266666Y-136342857D01*
X70266666Y-136485714D01*
X70314285Y-136580952D01*
X70361904Y-136628571D01*
X70457142Y-136676190D01*
X70838095Y-136676190D01*
X69933333Y-136152380D02*
X69266666Y-137152380D01*
X69266666Y-136152380D02*
X69933333Y-137152380D01*
X71833333Y-133552380D02*
X71500000Y-134552380D01*
X71166666Y-133552380D01*
X70261904Y-134457142D02*
X70309523Y-134504761D01*
X70452380Y-134552380D01*
X70547619Y-134552380D01*
X70690476Y-134504761D01*
X70785714Y-134409523D01*
X70833333Y-134314285D01*
X70880952Y-134123809D01*
X70880952Y-133980952D01*
X70833333Y-133790476D01*
X70785714Y-133695238D01*
X70690476Y-133600000D01*
X70547619Y-133552380D01*
X70452380Y-133552380D01*
X70309523Y-133600000D01*
X70261904Y-133647619D01*
X69261904Y-134457142D02*
X69309523Y-134504761D01*
X69452380Y-134552380D01*
X69547619Y-134552380D01*
X69690476Y-134504761D01*
X69785714Y-134409523D01*
X69833333Y-134314285D01*
X69880952Y-134123809D01*
X69880952Y-133980952D01*
X69833333Y-133790476D01*
X69785714Y-133695238D01*
X69690476Y-133600000D01*
X69547619Y-133552380D01*
X69452380Y-133552380D01*
X69309523Y-133600000D01*
X69261904Y-133647619D01*
X71461904Y-128600000D02*
X71557142Y-128552380D01*
X71700000Y-128552380D01*
X71842857Y-128600000D01*
X71938095Y-128695238D01*
X71985714Y-128790476D01*
X72033333Y-128980952D01*
X72033333Y-129123809D01*
X71985714Y-129314285D01*
X71938095Y-129409523D01*
X71842857Y-129504761D01*
X71700000Y-129552380D01*
X71604761Y-129552380D01*
X71461904Y-129504761D01*
X71414285Y-129457142D01*
X71414285Y-129123809D01*
X71604761Y-129123809D01*
X70985714Y-129552380D02*
X70985714Y-128552380D01*
X70414285Y-129552380D01*
X70414285Y-128552380D01*
X69938095Y-129552380D02*
X69938095Y-128552380D01*
X69700000Y-128552380D01*
X69557142Y-128600000D01*
X69461904Y-128695238D01*
X69414285Y-128790476D01*
X69366666Y-128980952D01*
X69366666Y-129123809D01*
X69414285Y-129314285D01*
X69461904Y-129409523D01*
X69557142Y-129504761D01*
X69700000Y-129552380D01*
X69938095Y-129552380D01*
X79000000Y-68138095D02*
X78952380Y-68042857D01*
X78952380Y-67900000D01*
X79000000Y-67757142D01*
X79095238Y-67661904D01*
X79190476Y-67614285D01*
X79380952Y-67566666D01*
X79523809Y-67566666D01*
X79714285Y-67614285D01*
X79809523Y-67661904D01*
X79904761Y-67757142D01*
X79952380Y-67900000D01*
X79952380Y-67995238D01*
X79904761Y-68138095D01*
X79857142Y-68185714D01*
X79523809Y-68185714D01*
X79523809Y-67995238D01*
X79952380Y-68614285D02*
X78952380Y-68614285D01*
X79952380Y-69185714D01*
X78952380Y-69185714D01*
X79952380Y-69661904D02*
X78952380Y-69661904D01*
X78952380Y-69900000D01*
X79000000Y-70042857D01*
X79095238Y-70138095D01*
X79190476Y-70185714D01*
X79380952Y-70233333D01*
X79523809Y-70233333D01*
X79714285Y-70185714D01*
X79809523Y-70138095D01*
X79904761Y-70042857D01*
X79952380Y-69900000D01*
X79952380Y-69661904D01*
X82752380Y-70400000D02*
X81752380Y-70400000D01*
X81752380Y-70638095D01*
X81800000Y-70780952D01*
X81895238Y-70876190D01*
X81990476Y-70923809D01*
X82180952Y-70971428D01*
X82323809Y-70971428D01*
X82514285Y-70923809D01*
X82609523Y-70876190D01*
X82704761Y-70780952D01*
X82752380Y-70638095D01*
X82752380Y-70400000D01*
X82466666Y-71352380D02*
X82466666Y-71828571D01*
X82752380Y-71257142D02*
X81752380Y-71590476D01*
X82752380Y-71923809D01*
X81752380Y-72114285D02*
X81752380Y-72685714D01*
X82752380Y-72400000D02*
X81752380Y-72400000D01*
X82466666Y-72971428D02*
X82466666Y-73447619D01*
X82752380Y-72876190D02*
X81752380Y-73209523D01*
X82752380Y-73542857D01*
X84052380Y-70438095D02*
X83052380Y-70438095D01*
X84052380Y-71009523D01*
X83052380Y-71009523D01*
X83957142Y-71485714D02*
X84004761Y-71533333D01*
X84052380Y-71485714D01*
X84004761Y-71438095D01*
X83957142Y-71485714D01*
X84052380Y-71485714D01*
X83957142Y-72533333D02*
X84004761Y-72485714D01*
X84052380Y-72342857D01*
X84052380Y-72247619D01*
X84004761Y-72104761D01*
X83909523Y-72009523D01*
X83814285Y-71961904D01*
X83623809Y-71914285D01*
X83480952Y-71914285D01*
X83290476Y-71961904D01*
X83195238Y-72009523D01*
X83100000Y-72104761D01*
X83052380Y-72247619D01*
X83052380Y-72342857D01*
X83100000Y-72485714D01*
X83147619Y-72533333D01*
X83957142Y-72961904D02*
X84004761Y-73009523D01*
X84052380Y-72961904D01*
X84004761Y-72914285D01*
X83957142Y-72961904D01*
X84052380Y-72961904D01*
X84400000Y-70938095D02*
X84352380Y-70842857D01*
X84352380Y-70700000D01*
X84400000Y-70557142D01*
X84495238Y-70461904D01*
X84590476Y-70414285D01*
X84780952Y-70366666D01*
X84923809Y-70366666D01*
X85114285Y-70414285D01*
X85209523Y-70461904D01*
X85304761Y-70557142D01*
X85352380Y-70700000D01*
X85352380Y-70795238D01*
X85304761Y-70938095D01*
X85257142Y-70985714D01*
X84923809Y-70985714D01*
X84923809Y-70795238D01*
X85352380Y-71414285D02*
X84352380Y-71414285D01*
X85352380Y-71985714D01*
X84352380Y-71985714D01*
X85352380Y-72461904D02*
X84352380Y-72461904D01*
X84352380Y-72700000D01*
X84400000Y-72842857D01*
X84495238Y-72938095D01*
X84590476Y-72985714D01*
X84780952Y-73033333D01*
X84923809Y-73033333D01*
X85114285Y-72985714D01*
X85209523Y-72938095D01*
X85304761Y-72842857D01*
X85352380Y-72700000D01*
X85352380Y-72461904D01*
X86702380Y-70464285D02*
X85702380Y-70464285D01*
X85702380Y-70702380D01*
X85750000Y-70845238D01*
X85845238Y-70940476D01*
X85940476Y-70988095D01*
X86130952Y-71035714D01*
X86273809Y-71035714D01*
X86464285Y-70988095D01*
X86559523Y-70940476D01*
X86654761Y-70845238D01*
X86702380Y-70702380D01*
X86702380Y-70464285D01*
X86702380Y-72035714D02*
X86226190Y-71702380D01*
X86702380Y-71464285D02*
X85702380Y-71464285D01*
X85702380Y-71845238D01*
X85750000Y-71940476D01*
X85797619Y-71988095D01*
X85892857Y-72035714D01*
X86035714Y-72035714D01*
X86130952Y-71988095D01*
X86178571Y-71940476D01*
X86226190Y-71845238D01*
X86226190Y-71464285D01*
X86797619Y-73130952D02*
X86750000Y-73035714D01*
X86654761Y-72940476D01*
X86511904Y-72797619D01*
X86464285Y-72702380D01*
X86464285Y-72607142D01*
X86702380Y-72654761D02*
X86654761Y-72559523D01*
X86559523Y-72464285D01*
X86369047Y-72416666D01*
X86035714Y-72416666D01*
X85845238Y-72464285D01*
X85750000Y-72559523D01*
X85702380Y-72654761D01*
X85702380Y-72845238D01*
X85750000Y-72940476D01*
X85845238Y-73035714D01*
X86035714Y-73083333D01*
X86369047Y-73083333D01*
X86559523Y-73035714D01*
X86654761Y-72940476D01*
X86702380Y-72845238D01*
X86702380Y-72654761D01*
X86952380Y-71059523D02*
X86952380Y-70583333D01*
X87428571Y-70535714D01*
X87380952Y-70583333D01*
X87333333Y-70678571D01*
X87333333Y-70916666D01*
X87380952Y-71011904D01*
X87428571Y-71059523D01*
X87523809Y-71107142D01*
X87761904Y-71107142D01*
X87857142Y-71059523D01*
X87904761Y-71011904D01*
X87952380Y-70916666D01*
X87952380Y-70678571D01*
X87904761Y-70583333D01*
X87857142Y-70535714D01*
X86952380Y-71392857D02*
X87952380Y-71726190D01*
X86952380Y-72059523D01*
%LPC*%
G36*
G01*
X80575000Y-66649000D02*
X81475000Y-66649000D01*
G75*
G02*
X81526000Y-66700000I0J-51000D01*
G01*
X81526000Y-69700000D01*
G75*
G02*
X81475000Y-69751000I-51000J0D01*
G01*
X80575000Y-69751000D01*
G75*
G02*
X80524000Y-69700000I0J51000D01*
G01*
X80524000Y-66700000D01*
G75*
G02*
X80575000Y-66649000I51000J0D01*
G01*
G37*
G36*
G01*
X81845000Y-66649000D02*
X82745000Y-66649000D01*
G75*
G02*
X82796000Y-66700000I0J-51000D01*
G01*
X82796000Y-69700000D01*
G75*
G02*
X82745000Y-69751000I-51000J0D01*
G01*
X81845000Y-69751000D01*
G75*
G02*
X81794000Y-69700000I0J51000D01*
G01*
X81794000Y-66700000D01*
G75*
G02*
X81845000Y-66649000I51000J0D01*
G01*
G37*
G36*
G01*
X83115000Y-66649000D02*
X84015000Y-66649000D01*
G75*
G02*
X84066000Y-66700000I0J-51000D01*
G01*
X84066000Y-69700000D01*
G75*
G02*
X84015000Y-69751000I-51000J0D01*
G01*
X83115000Y-69751000D01*
G75*
G02*
X83064000Y-69700000I0J51000D01*
G01*
X83064000Y-66700000D01*
G75*
G02*
X83115000Y-66649000I51000J0D01*
G01*
G37*
G36*
G01*
X84385000Y-66649000D02*
X85285000Y-66649000D01*
G75*
G02*
X85336000Y-66700000I0J-51000D01*
G01*
X85336000Y-69700000D01*
G75*
G02*
X85285000Y-69751000I-51000J0D01*
G01*
X84385000Y-69751000D01*
G75*
G02*
X84334000Y-69700000I0J51000D01*
G01*
X84334000Y-66700000D01*
G75*
G02*
X84385000Y-66649000I51000J0D01*
G01*
G37*
G36*
G01*
X85655000Y-66649000D02*
X86555000Y-66649000D01*
G75*
G02*
X86606000Y-66700000I0J-51000D01*
G01*
X86606000Y-69700000D01*
G75*
G02*
X86555000Y-69751000I-51000J0D01*
G01*
X85655000Y-69751000D01*
G75*
G02*
X85604000Y-69700000I0J51000D01*
G01*
X85604000Y-66700000D01*
G75*
G02*
X85655000Y-66649000I51000J0D01*
G01*
G37*
G36*
G01*
X86925000Y-66649000D02*
X87825000Y-66649000D01*
G75*
G02*
X87876000Y-66700000I0J-51000D01*
G01*
X87876000Y-69700000D01*
G75*
G02*
X87825000Y-69751000I-51000J0D01*
G01*
X86925000Y-69751000D01*
G75*
G02*
X86874000Y-69700000I0J51000D01*
G01*
X86874000Y-66700000D01*
G75*
G02*
X86925000Y-66649000I51000J0D01*
G01*
G37*
D12*
X70100000Y-119000000D03*
X70100000Y-115000000D03*
D13*
X69500000Y-74250000D03*
X97500000Y-74250000D03*
G36*
G01*
X88311000Y-81739999D02*
X88311000Y-83260001D01*
G75*
G02*
X88260001Y-83311000I-50999J0D01*
G01*
X86739999Y-83311000D01*
G75*
G02*
X86689000Y-83260001I0J50999D01*
G01*
X86689000Y-81739999D01*
G75*
G02*
X86739999Y-81689000I50999J0D01*
G01*
X88260001Y-81689000D01*
G75*
G02*
X88311000Y-81739999I0J-50999D01*
G01*
G37*
D14*
X89410000Y-73610000D03*
D15*
X86230000Y-79960000D03*
X84960000Y-82500000D03*
X83690000Y-79960000D03*
X82420000Y-82500000D03*
X81150000Y-79960000D03*
D14*
X79250000Y-73610000D03*
D16*
X67800000Y-129050000D03*
X67800000Y-131590000D03*
X67800000Y-134130000D03*
X67800000Y-136670000D03*
X67800000Y-139210000D03*
G36*
G01*
X68701000Y-140900000D02*
X68701000Y-142600000D01*
G75*
G02*
X68650000Y-142651000I-51000J0D01*
G01*
X66950000Y-142651000D01*
G75*
G02*
X66899000Y-142600000I0J51000D01*
G01*
X66899000Y-140900000D01*
G75*
G02*
X66950000Y-140849000I51000J0D01*
G01*
X68650000Y-140849000D01*
G75*
G02*
X68701000Y-140900000I0J-51000D01*
G01*
G37*
M02*
